<?xml version="1.0" encoding="utf-8"?>
<!-- Generator: Adobe Illustrator 19.2.1, SVG Export Plug-In . SVG Version: 6.00 Build 0)  -->
<svg version="1.1" id="layer" xmlns="http://www.w3.org/2000/svg" xmlns:xlink="http://www.w3.org/1999/xlink" x="0px" y="0px"
	 viewBox="0 0 652 652" style="enable-background:new 0 0 652 652;" xml:space="preserve">
<style type="text/css">
	.st0{fill:#273C4E;}
	.st1{fill:#0071B9;}
</style>
<path class="st0" d="M230.7,322.5l58.7-58.7l58.7,58.7l-58.7,58.7L230.7,322.5z M289.4,259l-63.6,63.6l63.5,63.5l63.6-63.6
	L289.4,259z"/>
<path class="st1" d="M274,285.5l15.4-15.4l52.5,52.5L326.5,338L274,285.5z M308,356.5l15.4-15.4l-33.9-33.9L274,322.5L308,356.5z
	 M289.4,375l15.4-15.4l-15.4-15.4L274,359.6L289.4,375z M267.8,322.5l18.5-18.5l-15.4-15.4l-34,34l33.9,33.9l15.4-15.4L267.8,322.5z
	"/>
<g>
	<path class="st0" d="M79.4,360.8c-0.1,0.2-0.3,0.4-0.4,0.4"/>
	<path class="st0" d="M83.5,329.1c0.5,0,0.8-0.4,0.8-0.9s-0.4-0.9-0.8-0.9c-0.5,0-0.8,0.4-0.8,0.9S83,329.1,83.5,329.1"/>
	<path class="st0" d="M122.8,293.2L122.8,293.2l-30.6,0v0h0l0,24.7c0,2.4,1,4.5,2.4,5.1l11.8,7c0.3,0.3,0.6,0.5,1.1,0.5
		c0.4,0,0.7-0.1,1-0.4l11.9-7.1c1.4-0.6,2.4-2.7,2.4-5.1L122.8,293.2L122.8,293.2z M102.4,300.4h-2.6v-6.3h2.6V300.4z M100.5,302.6
		l0.4-0.4l-0.2-0.4l0.5,0.1l0.3-0.5l0.3,0.5l0.5,0l-0.2,0.4l0.4,0.4l-0.5,0.1v0.5l-0.5-0.3l-0.5,0.3v-0.5L100.5,302.6z M93.1,304.5
		h3.2v6h-3.2V304.5z M93.6,301.8l0.5,0.1l0.3-0.5l0.3,0.5l0.5,0l-0.2,0.4l0.4,0.4l-0.5,0.1v0.5l-0.5-0.3l-0.5,0.3v-0.5l-0.5-0.1
		l0.4-0.4L93.6,301.8z M97.3,307.9l0.5,0.1l0.3-0.5l0.3,0.5l0.5,0l-0.2,0.4l0.4,0.4l-0.5,0.1v0.5l-0.5-0.3l-0.5,0.3v-0.5l-0.5-0.1
		l0.4-0.4L97.3,307.9z M99.4,303.1c0-0.2-0.2-0.2-0.3-0.2c-0.3,0-0.4,0.5-0.6,0.5c-0.2,0-0.3,0-0.3-0.2c0-0.2,0.4-0.3,0.5-0.4
		c-2,0-2,0.9-2.3,0.9c-0.5,0,0.4-1,0.7-1.2c-0.4-0.1-0.6-0.6-1.1-0.8c0.2-0.3,0.3-0.2,0.6,0c0-0.2,0.2-0.4,0.6-0.4
		c0.9,0,0.6,0.9,0.8,0.9c0.1,0,0-0.9,0.6-0.9c0.9,0,2,2.3,1,2.3C99.1,303.4,99.4,303.1,99.4,303.1 M97.1,296.4l0.4-0.4l-0.2-0.4
		l0.5,0.1l0.3-0.5l0.3,0.5l0.5,0l-0.2,0.4l0.4,0.4l-0.5,0.1v0.5l-0.5-0.3l-0.5,0.3v-0.5L97.1,296.4z M96.3,300.4h-3.2v-6.3h3.2
		V300.4z M102.4,326.7l-7.3-4.4c-1.2-0.8-1.8-2.3-2-4.1v-7h9.3V326.7z M99.8,304.5h2.6v6h-2.6V304.5z M111.8,327.2l-3.4,2h-0.1
		c-0.2,0.2-0.6,0.3-0.9,0.3c-0.3,0-0.7-0.1-0.9-0.3l-3.4-2v-15.9h8.6V327.2z M111.8,310.5h-8.6v-16.4h8.6V310.5z M122,318.3
		c-0.2,1.8-0.8,3.2-2,4.1l-7.3,4.4v-15.4h9.3V318.3z M122,310.5h-9.3v-16.4h9.3V310.5z"/>
	<path class="st0" d="M101.9,317c0-0.1-1.2,0.4-0.8,0.3c0-0.3,0.7-1,0.9-1.3c-0.1-0.4-0.6,0-1.1,0.2c1.7-2.5,0.6-1.5-0.3-1.3
		c1.6-1.7,1.1-1.6,0-1.1c0.9-0.7,1.1-1.6,1-1.8c-0.8,1.1-1.6,1-1.6,2c0,0.7-0.2,1.8-0.6,2.2c-0.5,0.5-0.1-1.8-1.3-1.8
		c-0.4,0-1.3,0-1.6,0.4c0.2,0,0.6,0.6,0.6,0.9c0,0.2,0.2,0.9-0.2,0.9c-0.4,0-0.9-0.9-0.9-1.3c0-0.4,0-0.3,0-0.9c0-1-1.6-2.4-2.3-2.4
		c0,0.7,0.9,0.9,0.9,1.7c-0.4,0-0.9-0.7-0.9-0.3c0,0.4,0.6,0.5,0.6,0.9c0,0.4-0.7-0.1-0.7,0.3c0,0.4,0.4,0.3,0.4,0.7
		c-0.3-0.1-0.5,0-0.6,0.1c0,0.1,0.1,0.3,0.3,0.4c-0.1,0.1-0.2,0.3-0.2,0.9c0,2,1.2,2.9,2.1,2.9c0.6,0,0.5-0.4,0.6-0.7
		c0,0.3,0.3-0.2,0.3,0.4c0,0.6-0.6,0.3-0.6,0.9c0,0.7,1,0,1,0.8c0,0.9-0.1,0.9-0.1,1.3c0,0.2,1-0.3,1-0.4c0.2,0.1,0.2,0.8,0.7,0.8
		c0.3,0,0.4-0.7,0.6-0.8c-0.1,0,0.9,0.7,0.9,0.4c0-0.9-0.4-0.5-0.4-1.1c0-0.6,1.3-0.5,1.1-0.8c-0.2-0.2-0.3-0.1-0.4-0.5
		c0,0.1-1-1.4,0.2-0.7C101.8,319.9,102,317.1,101.9,317"/>
	<path class="st0" d="M134.5,323.4c0.6,0,1-0.4,1-0.9c0-0.5-0.4-0.9-1-0.9c-0.6,0-1,0.4-1,0.9C133.5,323,134,323.4,134.5,323.4"/>
	<path class="st0" d="M130.5,325.8c0.6,0,1-0.4,1-0.9c0-0.5-0.4-0.9-1-0.9s-1,0.4-1,0.9C129.5,325.4,129.9,325.8,130.5,325.8"/>
	<path class="st0" d="M82.1,331.4c0.6,0,1-0.4,1-0.9c0-0.5-0.5-0.9-1-0.9c-0.6,0-1,0.4-1,0.9C81.1,331,81.6,331.4,82.1,331.4"/>
	<path class="st0" d="M85.3,331.7c0.6,0,1-0.4,1-0.9c0-0.5-0.4-0.9-1-0.9c-0.6,0-1,0.4-1,0.9C84.3,331.3,84.7,331.7,85.3,331.7"/>
	<path class="st0" d="M172.3,289.5c1.5,1.8,1.8,4.6,0.7,6.7c-0.6-0.1-0.5-0.8-0.6-1.2c-1.1-2-1.9-4.5-1-6.8
		C172.2,288.3,171.9,289.1,172.3,289.5"/>
	<path class="st0" d="M44.6,291.9c-0.3,1.3-0.3,3.1,0,4.2c-0.3,0.3-0.2-0.3-0.5-0.2c-2.1-1.5-1.1-4.5-1.7-6.6
		c0.1-0.2,0.4-0.2,0.5-0.1C43.9,289.9,44.4,290.8,44.6,291.9"/>
	<path class="st0" d="M176.9,292.1c0.3,0.6-0.3,1.2-0.7,1.4c-0.5,0.1-1-0.2-1.3-0.6c-0.2-0.6,0.2-1.1,0.6-1.4
		C176,291.5,176.6,291.6,176.9,292.1"/>
	<path class="st0" d="M41.3,294.4c-0.1,0.5-0.3,1-0.7,1.2c-0.3,0-0.8,0-1-0.3c-0.3-0.3-0.4-0.8-0.2-1.1c0.2-0.4,0.6-0.4,1-0.5
		C40.8,293.9,41.2,294,41.3,294.4"/>
	<path class="st0" d="M179,295.4c0.1,0.3,0.1,0.5,0,0.9c-0.4,0.5-0.9,0.7-1.4,0.5c-0.4-0.2-0.5-0.6-0.6-0.9c0.1-0.4,0.5-0.8,0.9-1
		C178.3,294.8,178.6,295.1,179,295.4"/>
	<path class="st0" d="M175.9,295.4c0.4,0.2,0.1,0.8,0.1,1.1c-0.3,0.3-0.6,0.7-1.1,0.5c-0.3-0.3-0.6-0.3-0.7-0.6
		c0-0.5,0.2-1.1,0.7-1.2C175.3,295,175.6,295.3,175.9,295.4"/>
	<path class="st0" d="M172,296.2c0,0.6,0.1,1.3-0.6,1.5c-0.6,0.2-1.1-0.3-1.2-0.8c-0.1-0.5,0.3-1.1,0.8-1.3
		C171.4,295.6,171.8,295.9,172,296.2"/>
	<path class="st0" d="M47.1,296.5c0.2,0.5-0.4,0.9-0.7,1.1c-0.4,0.1-0.9-0.2-1.1-0.6c-0.4-0.4,0.1-0.7,0.2-1
		C46.1,295.5,46.9,295.9,47.1,296.5"/>
	<path class="st0" d="M43.9,296.6c0,0.4-0.2,0.9-0.6,1c-0.4,0.2-0.9-0.2-1.1-0.5c-0.3-0.5,0.1-1,0.5-1.2
		C43.4,295.7,43.7,296.3,43.9,296.6"/>
	<path class="st0" d="M159.1,296.9c0.5,1.1,1,2.5,1.1,3.9c-0.2,1,0.2,2.4-0.6,3.1c-0.7-0.3-0.8-1.2-1.3-1.7c-1-1.9-0.1-4.1,0.2-5.9
		C159,296.1,159,296.6,159.1,296.9"/>
	<path class="st0" d="M41.4,297.5c0.2,0.6-0.3,1-0.7,1.3c-0.6,0.2-1.1-0.3-1.3-0.8c-0.1-0.5,0.3-1.1,0.7-1.3
		C40.6,296.8,41.2,297,41.4,297.5"/>
	<path class="st0" d="M167.5,299.1c0.7,1.6,0.7,3.4,0.3,5.2l-0.3,0.3c-0.7-1.5-1.8-2.8-2.2-4.4c0-1.1,0.2-2.1,0.6-3.1
		c0.4-0.3,0.6,0.1,0.7,0.4C166.7,298,167,298.7,167.5,299.1"/>
	<path class="st0" d="M174.3,298.1c-0.1,0.5-0.3,1.1-0.8,1.3c-0.5,0.1-1.1-0.1-1.2-0.6c-0.2-0.5,0.2-1,0.6-1.3
		C173.4,297.1,174,297.7,174.3,298.1"/>
	<path class="st0" d="M44,299.8c0,0.4-0.4,0.9-0.8,1c-0.4,0.3-0.7-0.2-1.1-0.4c-0.2-0.4-0.3-0.8,0-1.2c0.2-0.3,0.5-0.3,0.9-0.4
		C43.4,299,43.9,299.2,44,299.8"/>
	<path class="st0" d="M46.3,299.5c0.2,0.5-0.4,0.8-0.6,1.1c-0.6,0.2-1-0.3-1.2-0.6c-0.1-0.5,0.2-0.9,0.6-1.2
		C45.8,298.6,46.1,299,46.3,299.5"/>
	<path class="st0" d="M175.8,299.3c-0.1,0.7-1.1,1.4-1.2,2.1c-0.6,1.5-1.9,2.5-3.3,3c-0.3,0.3-0.8,0.6-1.2,0.7c-0.1-1.1,0.9-2,1.4-3
		C172.6,300.7,174.1,299.8,175.8,299.3"/>
	<path class="st0" d="M42.9,301.6c0.8,0.9,1.2,1.7,2.2,2.5c0.1,0.2-0.1,0.5-0.4,0.5c-2.6-0.2-4.4-2.9-5.7-4.7
		c0.2-0.6,0.9-0.1,1.2-0.2C41.2,300.5,42.2,300.7,42.9,301.6"/>
	<path class="st0" d="M176.5,302.3c-0.1,2.3-1.2,4.7-3.3,5.8c-0.6,0.2-1.2,0.8-1.8,0.4c1.1-2.3,2.8-4.2,4.7-6.2H176.5z"/>
	<path class="st0" d="M166.3,303.9c0.2,0.8-0.3,1.3-0.9,1.6c-0.6,0.1-1-0.4-1.2-0.9c-0.1-0.5,0.3-1,0.7-1.2c0.2-0.2,0.4-0.2,0.6-0.2
		C165.8,303.4,166,303.6,166.3,303.9"/>
	<path class="st0" d="M40,304.4c1,0.7,1.9,1.7,2.9,2.5c-0.7,0.5-1.5,0.1-2.3,0.1c-1.8-0.6-3-2.2-4.9-2.7c0.1-0.6,0.7-0.4,1.1-0.5
		C37.9,303.6,38.9,304.1,40,304.4"/>
	<path class="st0" d="M97.1,288.5c-3-1.2-5,1.9-8,1.6c-0.4,0.2-0.3,0.6-0.5,0.9c-0.2,0.2-0.4,0.1-0.6-0.1c-0.2-1.3-0.6-2.5-0.8-3.7
		c-0.3-0.5-0.2-1.3-0.4-1.8c-1.7-4.7,4.2-1.1,5.3-3.9c1-2.4-2-2.6-2.9-4.3v-0.7c-0.9-0.9-1.8-1.1-2.3-2.3c0.4-1.3,0.5-2.8,0.2-4.1
		c-0.1-0.3-0.3-0.8-0.7-0.6c-1,1.4-1.8,2.5-2.7,3.9c-1-0.8-2-1.7-3.1-2.4c-0.8-0.1-1.5-0.9-2.5-0.6c-0.2,0.3,0,0.6,0.2,0.8
		c0.1,2.1,1.1,3.8,2.6,5.3l0.2,0.8c-1,2.2-0.7,4.7-1,7.1c-2.4,6.1-6.3,12-11.6,16.3c-3,3.4-6.7,6.8-7.1,11.5
		c-0.2,0.8,0.1,1.7-0.5,2.2c-1.8-0.6-3.5-1.5-5-2.6c-2.5-1.7-6-1.5-7.6-4.6c-0.6-1.2,0.2-2.5,0.7-3.4c1.8-1.7,1.5-4.8,0.6-6.9
		c-0.2-0.1-0.3,0.2-0.4,0.3c-0.2,3.2-2.7,5.4-1.7,8.9c0.2,1,0.7,1.7,1,2.6c-0.4-0.1-0.9-0.1-1.2-0.3c-1.2-0.2-2.3-0.6-3.6-0.5
		c-2.5,1.1-5.8-0.3-7.8,2c-0.3,0.1-0.7,0.1-0.6,0.6c1.2,0,2.3,0.3,3.5,0.3c1.9,0.3,3.1-1.2,4.4-1.9h0.3c0.5-0.5,1.4-0.2,2.1-0.3
		c3.4,0.4,6,2,8.7,3.7v0.2c-1.1,0.5-2.3,0.8-3.4,1.4c-1.2,0.9-2.6,2.1-3,3.6c-0.9,1.3,0.3,2.5,0.8,3.7c0.1,0.5,0.1,1.2,0.6,1.4
		c1.7-1.8,0.1-4.1,0.4-6.2c0.4-1.6,1.9-2.4,3.5-2.8c3-1.3,5.2,1.2,7.7,2.6c-0.1,2.5,0.3,4.8-0.3,7.3c-0.7,0.3-1.7,0.4-2.5,0.4
		c-4.2,0.3-7.5,2.6-11.3,3.9c-1.7,0.6-3.7,0.5-5.4,1.2c1.3,0.4,2.7-0.1,4.1-0.2c5.2-0.8,9.2-4.8,14.9-4.1l0.1,0.2
		c-0.6,1.3-1.5,2.5-2.5,3.5c-0.2-0.6-0.2-1.1-0.7-1.4c-0.4-0.2-0.9,0-1.2,0.4c-0.2,0.3-0.2,0.6,0,0.8c0.3,0.5,0.7,0.6,1.2,0.8
		c-0.1,0.5-0.7,0.7-1,1.1c-1.5,2.5-4.5,1.5-6.3,3.3c-0.3,0.4-1.2,0.6-0.8,1.2c2,0.2,4-0.3,5.5-1.4c2-2.2,4.1-4.3,6-6.4
		c0.3,1.7-0.2,3.5-1.2,4.9c-0.5-0.3-0.9-0.6-1.4-0.8c-0.5,0.1-0.9,0.6-1,1.1c0.2,0.4,0.4,0.8,0.8,1.1c-1.8,1.3-4.1,1.4-6.2,2
		c-3.9,0.5-7.7,0.8-11.6,0.9c-1.9-0.1-4,0.5-5.8,0c-2,0.4-4.2-0.3-5.9,0.9c-0.2,0.3,0.1,0.5,0.1,0.8c2.5,1.6,5.8,0.3,8.6,0.8h21
		c1.5-0.1,3.1-0.1,4.3-0.8c2.7-1.6,4.2-4.4,5.6-7.1c0.5-1,0.9-2.1,1.1-3.2c0.5-1.8,2.2-3.1,4-3.3c0.3,2.8-0.3,5.6-0.9,8.2
		c-0.3,1.7-1.4,3.4-0.7,5.2c0.2,0.9,1.1,0.9,1.8,1c6.5-0.1,12.9-0.4,19.7,0.1c1.2,0.2,2.3,0.6,3.6,0.5c0.1-0.2,0.5-0.2,0.3-0.5
		c-0.2-0.6-0.6-1.3-1.3-1.5c-0.1-0.3-0.6-0.2-0.7-0.4c-3.4-1.9-7.5-0.9-11.5-0.9c-2.1,0.2-4.2,0.6-5.9-0.6c-0.8-1-0.2-4-0.2-4
		c0-1.2,2.9-9.7,3.3-10.4c0.1-0.8,0.4-1.6,0.3-2.5c0.4-1.1,0.3-2.5,0.3-3.7c0.2-1.7,1.1-3.3,1.7-5c0.3-0.8,0.6-1.7,0.9-2.5
		c0.3-1,0.4-2,1.1-2.8c1.7,1.1,3.4,1.1,4.3,3l0.7,4.5c0,0.3,0.2,0.8,0.6,0.5c1.4-0.9,1-3,1-4.4c0.3-1.7-0.8-2.5-1.3-3.9
		c-0.4-0.3-1-1.5-1-1.5c-0.2-1.2-2.8-2-2.2-3.4c0.3-1.2,0.6-2.4,1.8-3.1c0.2,0.1,0.2,0.2,0.3,0.4l0.6-0.4l0.1-4.5
		c1.7,0,4.3,0.2,6.1,0.2c0.5,0.2,0.9,0.5,1.4,0.6l0.4-0.6l4.3-0.8C100,290.6,98.9,288.5,97.1,288.5"/>
	<path class="st0" d="M101.8,290.4c0.1,0,0.3,0,0.4-0.1L101.8,290.4z"/>
	<path class="st0" d="M55.4,305.4c0.1,0.6-0.3,1-0.8,1.2c-0.4-0.2-0.7-0.2-1-0.6c-0.2-0.6,0.3-1,0.7-1.2
		C54.7,304.8,55.3,304.9,55.4,305.4"/>
	<path class="st0" d="M51.9,305.4c0.3,0.3,0.4,0.9,0.2,1.2c-0.4,0.3-1,0.6-1.3,0.2c-0.3-0.3-0.6-0.7-0.4-1.1
		C50.8,305.2,51.5,304.9,51.9,305.4"/>
	<path class="st0" d="M126.2,305.9C126.2,306,126.2,306,126.2,305.9"/>
	<path class="st0" d="M166.8,306.9c0.2,0.6-0.3,1-0.7,1.2c-0.5-0.2-1.2-0.3-1.2-1c0.1-0.4,0.4-0.7,0.8-0.8
		C166.2,306.2,166.6,306.5,166.8,306.9"/>
	<path class="st0" d="M169.6,306.7c0.2,0.3,0.5,0.7,0.1,1c-0.2,0.2-0.4,0.2-0.5,0.4c-0.6,0.1-1.1-0.1-1.3-0.6
		c-0.1-0.6,0.4-0.9,0.8-1.1C169.1,306.3,169.4,306.5,169.6,306.7"/>
	<path class="st0" d="M38.5,307.4c-0.2,0.6-0.7,0.9-1.4,0.7c-0.2-0.2-0.3-0.4-0.4-0.7c0.1-0.4,0.2-0.8,0.6-0.9
		C37.9,306.5,38.3,306.8,38.5,307.4"/>
	<path class="st0" d="M56.5,308.3c-0.1,0.4-0.5,0.8-0.9,1c-0.5,0.1-0.9-0.4-1.2-0.7c0-0.4,0.2-1,0.6-1.1
		C55.6,307.3,56.3,307.7,56.5,308.3"/>
	<path class="st0" d="M53.3,307.9c0.2,0.2,0.3,0.6,0.2,0.9c-0.3,0.3-0.8,0.8-1.3,0.4c-0.3-0.3-0.7-0.5-0.6-1
		c0.2-0.2,0.5-0.5,0.8-0.6C52.8,307.4,53,307.7,53.3,307.9"/>
	<path class="st0" d="M177.8,308.6c0,0.4-0.4,0.9-0.7,1c-0.4,0.2-0.9,0.1-1.2-0.3c-0.3-0.1-0.2-0.5-0.2-0.8c0.3-0.4,0.6-0.6,1-0.7
		C177.2,307.9,177.5,308.3,177.8,308.6"/>
	<path class="st0" d="M181.2,309.1c-0.2,0.5-0.5,0.9-1,1c-0.3-0.1-0.9-0.2-0.8-0.6c0-0.4,0.2-0.8,0.5-0.9
		C180.4,308.3,181,308.5,181.2,309.1"/>
	<path class="st0" d="M44.6,309.8c0.1,0.6-0.1,1.1-0.6,1.3c-0.4,0.2-0.7-0.1-1-0.3c-0.3-0.3-0.5-0.7-0.3-1.1
		c0.1-0.5,0.6-0.4,0.9-0.6C44.1,309.2,44.3,309.4,44.6,309.8"/>
	<path class="st0" d="M47.2,310.3c0.2,0.4-0.3,0.6-0.4,0.9c-0.3,0.2-0.6,0.3-1,0.1c-0.4-0.3-0.8-0.8-0.4-1.3
		C45.8,309.2,46.9,309.6,47.2,310.3"/>
	<path class="st0" d="M174.6,310c0.1,0.5-0.4,0.9-0.7,1.2c-0.5,0.1-1-0.2-1.1-0.6c-0.1-0.4,0.2-0.8,0.6-1
		C173.9,309.5,174.4,309.6,174.6,310"/>
	<path class="st0" d="M179,310.9c-0.1,0.5-0.1,1-0.6,1.3c-0.4,0.1-1,0.1-1.3-0.2c-0.3-0.3-0.4-0.7-0.2-1.1c0.3-0.4,0.7-0.8,1.3-0.6
		C178.6,310.5,178.7,310.7,179,310.9"/>
	<path class="st0" d="M42.6,312c0.2,0.4-0.3,0.5-0.4,0.8c-0.4,0.2-0.7,0.1-1.1-0.1c-0.4-0.2-0.2-0.8-0.2-1
		C41.4,310.7,42.3,311.4,42.6,312"/>
	<path class="st0" d="M175.7,313c0.2,0.1,0.1,0.4,0.1,0.5c-1.3,0.6-3.2,0.8-4.3-0.2c-0.6-0.5-1.4-0.8-2.1-1.2
		c0.3-0.7,1.2-0.6,1.9-0.8C172.7,311.5,173.9,313,175.7,313"/>
	<path class="st0" d="M45.1,312.6c0.1,0.4-0.2,0.6-0.3,0.9c-0.2,0.3-0.6,0.2-0.9,0.1c-0.5-0.3-0.7-0.9-0.4-1.3
		C44.1,311.6,44.8,312,45.1,312.6"/>
	<path class="st0" d="M49.8,312.9c0.2,0.5-0.1,0.9-0.5,1.2c-0.4,0.2-0.7-0.1-1-0.2c-0.3-0.4-0.7-0.8-0.3-1.2
		C48.5,311.9,49.4,312.3,49.8,312.9"/>
	<path class="st0" d="M111.5,315.1c-0.1,1.1-1.9-0.1-1.6,1.3c0.3,1,0.5,2.2,1.1,3c0.5,0.7,0.3,1.8,0.2,2.7c-0.5,0.8-1.2,1.3-2,1.7
		c-1.5-0.2-3.8,0.8-4.5-1.1c-0.3-0.8-0.9-1.6-0.9-2.6c0.2-0.1,0.4-0.1,0.5-0.3c0-0.4-0.4-0.6-0.4-0.9c1.7-0.3-0.7-1.8,0.8-1.9
		c1.2,1.3,3.2,0.9,4.3,2.2c0.3,0.2,0.5,0.5,0.8,0.7c-0.2-1.3-0.8-2.6-1-3.9c-0.1-0.7,0.1-1.4,0.6-1.8
		C110.2,313.6,111,314.6,111.5,315.1"/>
	<path class="st0" d="M54.5,314.8c0.2,0.5-0.3,0.9-0.6,1.1c-0.5,0.2-0.7-0.3-1-0.6c-0.2-0.5,0.2-0.8,0.5-1.1
		C53.9,314.3,54.3,314.4,54.5,314.8"/>
	<path class="st0" d="M87.4,315.3c0.6,2.1,0.4,4.2-0.6,6c-0.1,0.4,0.1,1.1-0.5,1.1c-1.4-2-0.4-4.8,0.2-6.9
		C86.6,315,87.3,314.8,87.4,315.3"/>
	<path class="st0" d="M133.1,316.4c0.7,1.5,0.8,3.5,0.1,5l-0.4,0.4c-0.6-1.2-1.1-2.5-1.2-3.8c0.3-1,0.6-1.8,0.6-2.9
		C132.9,315,132.9,315.9,133.1,316.4"/>
	<path class="st0" d="M58.7,317c-0.3,0.6-1.2,0.8-1.8,1.2c-1.3,1-3.1,1.2-4.7,0.9c1.4-1.9,3.5-3.1,6.1-2.5
		C58.3,316.8,58.6,316.7,58.7,317"/>
	<path class="st0" d="M36.7,318.9c2,1.4,2.5,3.3,3.7,5.3c0.2,0.2,0.7,0.3,0.5,0.7c-0.4,0.3-0.9-0.3-1.4-0.2c-2-0.9-3.3-3.2-3.3-5.5
		C36.2,318.9,36.5,318.9,36.7,318.9"/>
	<path class="st0" d="M131,320.6c0.1,0.5-0.1,1.1-0.5,1.2c-0.6,0.2-1.1-0.2-1.2-0.6c-0.2-0.4,0.2-0.6,0.3-0.9
		C130,319.9,130.7,320.1,131,320.6"/>
	<path class="st0" d="M153.5,323.4c0-1,0.3-2,0.4-3c0.2-0.3,0.3-0.7,0.2-1.1c1.3-1.7,3.9-1.2,5.9-1c0.8,0.4,1.8,0.4,2.7,0.6
		c0.4-0.3,0.9-0.3,1.3-0.3c1.7-0.9,0.6-2.9,0.7-4.5l-0.6-1.6c-0.2-0.3-0.3-0.7-0.4-1.1c-0.3-0.4-0.5-1.1-0.8-1.5
		c-0.9-2.4-2.7-3.7-4.2-5.6c-2.7-3.5-7-5.5-11.3-6.9c-4.2-1.5-8.5,0.4-12.3,1.8c-1.2-0.3-1.8-1.2-2.1-2.3c-0.2-2,0.2-4,1-5.7
		c0.2-1.3,1.1-2.4,1.4-3.6c1-3,2-6,2.2-9.2c0.1-2-1.4-3.4-2.9-4.2c-1-0.3-2.2-0.2-2.9,0.6c-0.7,1.5-2.2,2.4-3.5,3.1
		c-0.1,0.9,1,0.3,1.4,0.6c1.2,0.2,2.5-0.2,3.5,0.6c0.1,2.1-1.1,3.9-2.2,5.5c-1.8,2.7-3.7,5.4-4.9,8.4l-0.2-0.2l0.3,13.1
		c1.7,2.8,3.8,6.1,7,7.1c1.7,1.4,3.8,3.1,6.1,1.8c1.2-0.4,1.3,1.3,1.9,2c0.6,2-0.8,3.4-0.9,5.2l-1.4,3c-1.6,3.1-3,6.4-5.5,9.1
		c-0.8,0-1.3,0.9-2.1,0.9c-0.4,0.6-1.3,0.2-1.8,0.4c-1.7,0.7-4,0.3-5.1,1.8c0.1,0.2,0.3,0.2,0.4,0.3c3.3,0.1,6.9,0.3,10.3,0.1
		c0.4-0.2,0.8-0.5,0.9-1c-0.5-0.9,0.2-1.7,0.6-2.4c0.3-1.3,1.1-2.1,1.5-3.3c1.1-2.2,2.4-4.4,3.6-6.6l1.7-2.7c0.4-0.9,1-2,1.7-3
		c0.4-0.4,0.6-0.9,1-1.4c0.1-0.5-0.2-0.8-0.5-1.1c0.4-0.4,1-0.3,1.4-0.4c1.3,0.8,2.7,2.1,3,3.6l0.5,1.4l0.2,0.6l-0.1,1.8l0.2,1.7
		c0.3,2.6-0.2,5.2-0.5,7.8c-0.9,3.1-4.5,2.8-7,3.5c-0.6,0.4-1.9,0.2-1.9,1.3c3.1,0.6,6.7,0.3,10,0.2c0.5-0.2,0.6-0.7,0.9-1.2
		c0.1-0.7,0.8-1.3,0.6-2c-0.6-0.8-0.1-1.9-0.2-3c0.1-0.3,0.1-0.6,0-1c0.4-1.6,0.3-3.4,0.6-4.9L153.5,323.4z"/>
	<path class="st0" d="M179.8,321.3c-1.7,2.4-3.5,5.2-6.5,6c-0.2,0-0.4,0.1-0.5-0.2c1.8-1.9,2.8-4.9,5.6-5.6
		C178.7,321.3,179.3,321.1,179.8,321.3"/>
	<path class="st0" d="M34.1,323.9c-0.3,0.2-0.1,0.7-0.5,0.8c-0.4,0.2-0.9-0.1-1.1-0.5c-0.2-0.5,0.3-1.1,0.7-1.2
		C33.6,323.2,34,323.4,34.1,323.9"/>
	<path class="st0" d="M49.5,324.7c0.2,0.5-0.4,0.5-0.6,0.6c-2.2,0.8-4.5,0.1-6.1-1.6c0-0.2,0-0.4,0.2-0.5
		C45.1,323.8,47.7,323.4,49.5,324.7"/>
	<path class="st0" d="M37.1,324c0.1,0.2,0.2,0.6,0.1,0.8c-0.3,0.5-0.8,0.6-1.3,0.5c-0.3-0.2-0.5-0.4-0.7-0.7c0.1-0.5,0.5-0.9,0.9-1
		C36.5,323.6,36.8,323.7,37.1,324"/>
	<path class="st0" d="M87,324.3c0.1,0.5-0.3,0.8-0.6,1c-0.5,0.1-0.9-0.1-1.1-0.4c-0.2-0.4,0-0.9,0.4-1
		C86.1,323.7,86.9,323.8,87,324.3"/>
	<path class="st0" d="M181.8,324.5c0.2,0.5-0.3,0.8-0.7,1.1c-0.3,0.2-0.7,0-1-0.2c-0.1-0.3-0.4-0.5-0.3-0.9c0.2-0.5,0.7-0.7,1.2-0.6
		C181.3,324.2,181.5,324.2,181.8,324.5"/>
	<path class="st0" d="M185.3,324.3c0.3,0.5,0.1,0.9-0.2,1.2c-0.2,0.4-0.6,0.5-1,0.3c-0.3-0.3-0.7-0.5-0.8-1c0-0.4,0.5-0.8,0.8-0.9
		C184.7,323.7,184.9,324.3,185.3,324.3"/>
	<path class="st0" d="M31.9,325.8c0.1,0.4-0.3,0.6-0.4,0.9c-0.3,0.1-0.5,0.3-0.9,0.2c-0.4-0.2-0.6-0.5-0.8-0.9
		c0.1-0.5,0.4-0.9,1-1.1C31.3,325.1,31.7,325.3,31.9,325.8"/>
	<path class="st0" d="M144.2,325.8c0.1,0.2,0.1,0.5,0.1,0.7c-0.3,0.4-0.7,0.8-1.3,0.5c-0.3-0.3-0.7-0.6-0.5-1.1
		C142.9,325.3,143.8,325.1,144.2,325.8"/>
	<path class="st0" d="M40.5,326.6c-0.1,0.4-0.3,0.8-0.7,0.8c-0.5,0.1-0.6-0.4-0.9-0.6c0-0.5-0.1-1,0.4-1.2
		C39.9,325.4,40.5,325.9,40.5,326.6"/>
	<path class="st0" d="M35.4,326.7c0.2,0.5-0.2,0.9-0.5,1.2c-0.6,0.2-1.2-0.3-1.4-0.8c0.1-0.5,0.4-1.1,1-1.2
		C34.8,325.9,35.1,326.5,35.4,326.7"/>
	<path class="st0" d="M147.8,326.6c0.1,0.5-0.1,1.1-0.6,1.3c-0.6,0.2-1.2-0.3-1.4-0.7c0.3-0.4,0.3-1,1-1.1
		C147.2,326,147.5,326.3,147.8,326.6"/>
	<path class="st0" d="M37.9,326.8c0.2,0.4-0.2,0.5-0.3,0.8c-0.3,0-0.4,0.3-0.7,0.2c-0.2-0.3-0.6-0.4-0.7-0.8c-0.1-0.5,0.3-0.8,0.7-1
		C37.4,326,37.7,326.4,37.9,326.8"/>
	<path class="st0" d="M178.9,327.3c-0.2,0.4-0.5,0.6-0.9,0.9c-0.4,0.1-0.7-0.3-1-0.4c-0.3-0.2-0.2-0.7-0.1-1
		C177.4,325.8,178.9,326.3,178.9,327.3"/>
	<path class="st0" d="M182.9,327.5c-0.2,0.6-0.7,0.9-1.3,0.9c-0.5-0.2-1-0.6-0.6-1.2c0.2-0.2,0.3-0.4,0.6-0.5
		C182.3,326.5,182.7,327,182.9,327.5"/>
	<path class="st0" d="M157.6,327.9c0.3,0.7-0.4,0.9-0.8,1.2c-0.4-0.1-0.7-0.2-1-0.4c-0.1-0.6,0.2-1.1,0.7-1.4
		C157,327.3,157.2,327.5,157.6,327.9"/>
	<path class="st0" d="M142.9,328.5c0.3,0.1,0.2,0.5,0.1,0.6c-0.3,0.2-0.7,0.8-1.2,0.4c-0.4-0.2-0.6-0.5-0.5-1
		C141.5,328,142.6,327.9,142.9,328.5"/>
	<path class="st0" d="M145.9,328.9c0.1,0.4-0.1,0.6-0.4,0.9c-0.4,0.4-0.8-0.1-1.2-0.2c-0.1-0.2-0.2-0.5-0.1-0.8
		c0.2-0.2,0.4-0.4,0.7-0.4C145.3,328.5,145.7,328.5,145.9,328.9"/>
	<path class="st0" d="M55.4,328.9c0.3,0.3-0.1,0.7-0.1,1c-0.3,0.3-0.9,0.6-1.3,0.3c-0.5-0.2-0.5-0.9-0.4-1.3
		c0.3-0.1,0.3-0.5,0.7-0.5C54.8,328.5,55,328.7,55.4,328.9"/>
	<path class="st0" d="M163.3,329.2c0.1,0.5-0.4,0.8-0.8,0.9c-0.6,0.2-1-0.3-1.2-0.7c0-0.3,0.3-0.5,0.4-0.8
		C162.4,328.2,162.9,328.7,163.3,329.2"/>
	<path class="st0" d="M160.4,329.2c0.2,0.5-0.4,0.8-0.6,1.1c-0.4,0.2-0.9,0.1-1.2-0.2c-0.3-0.2-0.3-0.5-0.3-0.8
		c0.3-0.3,0.5-0.6,0.9-0.7C159.7,328.5,160.2,328.8,160.4,329.2"/>
	<path class="st0" d="M184.5,329.8c0.1,0.8-0.9,0.4-1.2,0.6c-2.2,1.3-5.1,0.3-7.3-0.5c0.2-0.7,1-0.4,1.4-0.7
		c2.3-1.5,4.6,0.3,6.9,0.4L184.5,329.8z"/>
	<path class="st0" d="M38.5,329.2l-0.2,0.4c-2,1.2-4.5,2-6.9,1.2l-0.2-0.3c2-1.5,4.6-1.8,7.1-1.5L38.5,329.2z"/>
	<path class="st0" d="M168.7,329.5c0,0.4-0.2,0.8-0.5,1c-0.5,0.2-1.2,0-1.4-0.6c-0.2-0.4,0.3-0.9,0.7-1
		C167.9,328.9,168.5,329,168.7,329.5"/>
	<path class="st0" d="M48,329.7c-0.2,0.4-0.1,0.9-0.6,1.1c-0.5,0.2-1.2-0.3-1.3-0.7c-0.2-0.6,0.3-0.8,0.5-1
		C47.2,328.8,47.7,329.3,48,329.7"/>
	<path class="st0" d="M44.2,330c0.2,0.4-0.2,0.6-0.3,0.9c-0.3,0.3-0.7,0.3-1.1,0.2c-0.4-0.3-0.7-0.7-0.6-1.3
		c0.3-0.3,0.5-0.4,0.9-0.6C43.6,329.3,44.1,329.5,44.2,330"/>
	<path class="st0" d="M172.5,331.2c-0.1,0.5-0.4,0.9-0.9,1c-0.4,0.1-0.8-0.3-1-0.5c-0.2-0.3-0.1-0.7,0.2-1c0.1-0.2,0.5-0.2,0.7-0.3
		C172,330.4,172.3,330.8,172.5,331.2"/>
	<path class="st0" d="M40.3,330.7c0.2,0.4-0.2,0.6-0.3,0.9c-0.2,0.9-0.7,1.5-1.2,2.3c-1,1.2-2.5,1.2-3.9,1.6l-0.2-0.4
		c1.5-2,3.2-3.5,5.4-4.5L40.3,330.7z"/>
	<path class="st0" d="M169.8,331.8c0.1,0.6-0.4,0.8-0.8,1c-0.5,0-0.9-0.3-1.1-0.6c-0.2-0.6,0.4-0.8,0.7-1.1
		C169.1,331,169.6,331.4,169.8,331.8"/>
	<path class="st0" d="M46.4,331.8c-0.1,0.1,0.1,0.2,0.2,0.3c-0.1,0.6-0.5,0.8-0.8,1c-0.5,0-0.9-0.2-1.2-0.5c-0.2-0.5,0-1.1,0.5-1.2
		C45.6,331.3,46.2,331.4,46.4,331.8"/>
	<path class="st0" d="M179.6,333.5c0.5-0.1,0.6-0.7,1.2-0.8c0.5-0.1,1,0.2,1.3,0.6c0.2,0.6-0.3,1-0.7,1.2c-0.4,0.3-1.2-0.3-1.1,0.4
		c0.4,0.3,0.7,0.6,0.7,1.1c-0.1,0.2-0.5,0.2-0.6,0.1c-1.5-0.6-3.2-1.7-3.8-3.3c-0.2-0.5-1.2-0.9-0.6-1.3
		C177.5,331.2,178.7,332.5,179.6,333.5"/>
	<path class="st0" d="M184.7,331.8c0.3,0.3,0.2,0.8-0.1,1c-0.3,0.5-1.1,0.3-1.5,0.3c-0.3-0.3-0.5-0.5-0.4-1c0.2-0.3,0.4-0.5,0.8-0.7
		C184,331.3,184.3,331.5,184.7,331.8"/>
	<path class="st0" d="M165.4,334.7c0.5,0.6,1,1.5,1.2,2.2c-0.1,0.2-0.4,0.1-0.5,0.1c-1.8-1-4.2-2.1-4.9-4.3
		c-0.2-0.2-0.6-0.5-0.5-0.9c1.4-0.3,2.7,0.8,3.7,1.5C164.7,333.8,165.1,334.1,165.4,334.7"/>
	<path class="st0" d="M43.4,332.6c0.2,0.5-0.2,0.9-0.5,1.1c-0.6,0.1-0.9-0.1-1.2-0.4c-0.4-0.6,0.3-1.1,0.8-1.3
		C42.9,331.9,43.1,332.4,43.4,332.6"/>
	<path class="st0" d="M172,333.9c0.1,0.3-0.4,0.5-0.5,0.8c-0.4,0.1-0.9,0.2-1.2-0.2c-0.1-0.3-0.4-0.7-0.1-1
		C170.8,332.8,171.7,333.3,172,333.9"/>
	<path class="st0" d="M185.3,334.6c0.2,0.6-0.3,1.1-0.7,1.3c-0.5,0.2-1-0.2-1.3-0.5c-0.3-0.3-0.1-0.6,0-1c0.4-0.3,0.9-0.6,1.4-0.4
		C184.9,334.3,185.1,334.4,185.3,334.6"/>
	<path class="st0" d="M148.4,342c0,0.6-1.2,0.5-1.7,1c-1.7,0.9-3.6,0.9-5.6,0.8v-0.3C143.1,341.9,145.8,341.3,148.4,342"/>
	<path class="st0" d="M70.6,344.4c-0.1,0.5-0.3,0.8-0.8,0.9c-0.4,0-0.7-0.2-0.9-0.5c-0.2-0.6,0.3-0.9,0.7-1.2
		C70,343.6,70.5,344,70.6,344.4"/>
	<path class="st0" d="M147.5,344.9c-0.1,0.5-0.3,1-0.8,1.2c-0.5,0.1-0.8-0.2-1.2-0.4c-0.3-0.2-0.1-0.6-0.2-0.9
		C145.7,344,147.1,344,147.5,344.9"/>
	<path class="st0" d="M158.1,345.2c-1.3,0.9-2.8,1.9-4.6,1.9l-2.9-0.1l-0.3-0.2c1.8-2.2,5-2.2,7.7-1.9V345.2z"/>
	<path class="st0" d="M56,346.5c0,0.5-0.2,0.9-0.7,1c-0.5,0.1-0.9-0.1-1.1-0.5c-0.2-0.5,0-1,0.4-1.2C55.1,345.4,55.7,346,56,346.5"
		/>
	<path class="st0" d="M58.6,347c0.2,0.3-0.1,0.4-0.2,0.7c-0.3,0.2-0.7,0.3-1,0c-0.4-0.2-0.5-0.6-0.3-0.9c0.2-0.3,0.5-0.3,0.6-0.5
		C58.1,346.5,58.5,346.6,58.6,347"/>
	<path class="st0" d="M38.2,352.4c-0.5,0.6-1.4-0.2-2-0.5c-1.9-1.1-1.8-3.2-3.7-4.4c0.2-0.6,0.7,0.1,1.1-0.1
		c0.3,0.2,0.7,0.4,1.1,0.6C36.5,349.1,37,350.8,38.2,352.4"/>
	<path class="st0" d="M193.7,331.6c-0.9-1.6-2.3-2.2-4-2.2c-1.4,0.1-2.4,1-3,2.2c-0.3,1.2,0.1,2.3,1,3c0.4,0.2,0.9,0.1,1.1-0.3
		c0.3-0.7-0.5-0.7-0.6-1.2c-0.2-0.8,0.1-1.4,0.6-1.9c0.5-0.5,1.4-0.3,2.1-0.3c0.6,0.4,1.3,0.8,1.6,1.6c0.3,0.9,0.3,1.9,0,2.8
		c-0.6,1.3-1.9,2.4-3.3,2.7c-4.4,0.6-53,0.4-53,0.4c-5.7,0.5-12.2-1.1-17.1,1.9c-2.2,1.1-3.4,3.5-3.9,5.7c-1.4,1.3-3,2.8-4.2,4.2
		l-0.2-0.2c0.3-1.3,0.9-2.4,1.1-3.7c0.8-1.1,0.8-2.5,1.4-3.7c2-3.3,3.9-6.6,7.1-8.9c1.3-1.8,3.7-1.5,5.7-1.5c2.2,1,4.7,1.3,7.4,1.1
		c0.1-0.1,0.2-0.2,0.2-0.4c-0.7-0.7-2-1-2.8-1.7c-2.1-1-4.2,0.3-6.4,0.2c-0.1-0.1-0.2-0.2-0.2-0.3c2-1.5,4.3-2.6,6.6-3.5
		c1.9-1,3.8-1.6,5.8-2.3c0.8,0,1.5-0.7,2.3-0.2l2.8-0.8c0.1,0.1,0.2,0.2,0.4,0.2c2.4-0.8,5.4-0.1,8.2-0.1l0.4,0.3l2.6,0.6
		c1,0.1,1.4,1.2,2.4,1.3c0.5-0.8-0.6-1.1-0.9-1.6c1.2-0.3,2.5,0.1,3.6,0.5l-0.5,0.6c-0.3,0.6,0.2,1,0.6,1.2c0.4,0.1,0.6-0.2,0.9-0.3
		c0.7-0.5-0.1-1,0.2-1.4c3.9,0.7,7.7,1.7,11.4,3.2c1,0.3,2,1.1,3.1,1c-1.1-1-2.7-1.6-4.1-2.2c-0.9-0.5-2.2-0.6-2.9-1.3
		c0.2-0.3,0.5-0.2,0.7-0.4c1.8-0.2,3.4-1.6,4.6-3c0.1-0.3,0.7-0.2,0.6-0.6c-0.5-0.5-1.3,0.2-1.9,0.1c-2.2,0.4-3.2,3.1-5.4,3.5
		c-2.7-0.6-5.5-1.3-8.2-2c-1.3-0.2-2.8-0.3-4-0.9l-3-0.3h-5.4c-0.1-0.1-0.2-0.2-0.2-0.3c1.9-0.5,3.6-1.6,5.5-2.1l14.3-6.6
		c1.5-1.3,2.8-2.8,4.1-4.4c0.1-0.4-0.2-0.9-0.6-1c-0.4-0.2-0.8-0.1-1.1,0.2c-0.6,0.5,0,1.1,0,1.7c-0.6,0.9-1.7,1.6-2.5,2.1
		c-0.2-0.1-14.7,6.6-14.7,6.6c-2.1,0.9-4.3,1.9-6.5,2.4l-3.1,0.5c-0.2,0.6-0.7,1-1.3,1.2c-0.9,0.2-1.5,0.7-2.5,0.7
		c-6.9,2.7-14.1,5.5-19.6,11c0.3-0.6,0.5-1.5,0.5-2.3c-0.1-0.8-0.1-1.7-0.6-2.4c-0.1-0.3-0.5-1.2-0.4-1.5l-0.8,0.5
		c-0.5,1.2-0.9,3.3-0.4,4.6c0.2,1,1,2.1,0.2,3c-2.6,3.1-4,6.9-5.7,10.4c-0.6-0.1-1-0.7-1.2-1.3c1.8-2.3,3.3-4.9,3.8-7.8
		c0.4-0.3,0.1-1,0.5-1.3c-0.1-0.9,0.5-1.7,0.1-2.4c0.3-1.2-1.6-2.3-0.3-3l-1,0.5c-2.3,3,1.2,7.5-1.4,10.4v0.2
		c-0.7,1-1.1,1.9-2.1,2.6c-1.3-0.5-1.8-2-2.5-3.1c-1.2-1.1-1.2-3.4-0.5-5c0.5-1.6-0.3-2.9-0.5-4.3l-0.5-0.3
		c-1.3,1.7-1.8,4.3-0.7,6.3c0.5,1,0.6,2.3,1.4,3.1c0.5,1.6,1.4,2.6,2.3,4c0.2,0.5-0.3,0.6-0.6,0.9c-0.6-0.4-0.5-1.2-1-1.6
		c-1.8-3.8-4.1-6.8-6.8-9.8c-0.1-0.5-0.6-0.9-0.3-1.5c1-1,1.2-2.8,0.7-4.1c-0.1-0.3-0.4-0.6-0.4-0.9l-0.8-0.6
		c0.1,1.9-1.1,3.5-0.6,5.5v0.1c-5.5-4.1-11.6-7.8-17.8-10.7l-0.5,1.4c1.6,0.4,5.7,2.9,5.7,2.9c1.9,0.7,3.6,1.8,5.3,2.9
		c7.3,4,12.1,10.7,15.3,18.1c0.1,0.6,0.6,1.2,0.2,1.8c-1.1-1.7-2.7-2.7-4.1-4.1c-0.4-2.5-1.9-4.9-4.1-6c-0.8-1.2-2.5-1.3-3.8-1.7
		L74,338.7c-15.8-0.2-30.2,0.5-45.9,0.2c-2.2-0.2-4.9-1-5.5-3.3c-0.4-0.8-0.4-2.2,0-3c0.6-1,1.7-1.3,2.7-1.5
		c0.9,0.1,1.4,0.9,1.8,1.5c0,0.7-0.6,1.3-0.9,1.9c0.1,0.2,0.3,0.6,0.6,0.5c0.7-0.3,1.2-1,1.4-1.7c0.1-0.4,0.2-0.9-0.2-1.2
		c-0.3-1.1-1.5-1.9-2.5-2.2c-1.3-0.1-2.7,0.3-3.6,1.2c-1.3,1.1-1.2,3-0.9,4.5c0.9,2.4,3.4,4,5.8,4.3l51.9,0.2
		c5.1,0.3,10.8-0.6,15.9,0.4c1.9,0.6,3.8,2,4.3,4.1c-0.1,0.1-0.2,0.1-0.4,0.1c-4.2-2.7-9.8-3.8-15.1-3.1c-2.1-0.1-4.1,0.7-6,1.2
		c-1,0.2-2-0.3-2.6-0.9c-1.9-1.7-5.3-1.6-7.7-1c0,0.2-0.1,0.3,0.1,0.4c2.6-0.2,4.2,2,6.5,2.3c0.5,0.1,1-0.5,1.4-0.1
		c-2.5,1.2-4.8,2.6-7.4,3.3c-0.8-0.2-1.2-0.9-1.9-1.3c-1-1.1-2.9-0.6-4.3-0.8c-0.5,0.1-0.9-0.2-1.2,0c0.4,0.9,1.4,1.3,2.3,1.8
		c1.3,0.6,2.9-0.1,4.1,0.7c-0.3,0.4-0.7,0.5-1.1,0.8c-2.5,1-4.6,3.2-7.4,3.1c-2.9,0.3-5.9-0.5-7.9-2.6c-0.9-2.1-3-3.2-5.4-3.1
		c-0.2,0.1-0.4,0.1-0.3,0.4c1.2,0.7,2.1,2.1,3.3,2.9c0.7,0.9,2.2,0,2.9,1c1,0.7,2.3,1.3,3.5,1.5c0.9,0.4,1.8,0.5,2.8,0.8l-0.4,0.2
		c-4.9,1.6-10.5,1.8-15.9,1.6c-1.6-0.1-3.1-0.5-4.8-0.5c0.3,0.3,0.8,0.6,1.3,0.7c-0.4,0.3-0.9,0.4-1.4,0.4c-0.6,0.2-1.4,0.2-2,0.5
		c-0.8-0.1-1.6,0.3-2.3,0.5c-0.9,1-2,2-3,2.5c0,0.2-0.1,0.5,0.2,0.5c1-0.4,2.3-0.1,3.3-0.5c1.8-0.2,2.8-2.1,4.2-2.9
		c1.5-1.2,3.6-0.9,5.4-0.6c1.1,0.3-0.1,0.7,0.2,1.4c0.4,0.4,0.8,0.8,1.4,0.6c0.1-0.1,0.2-0.2,0.4-0.3c0.3-0.4,0.3-0.9,0.1-1.3
		c0.7-0.5,1.8,0.1,2.6-0.3c2-0.1,4.1-0.5,6-0.5c0.3-0.1,0.7-0.4,1-0.1c-0.2,0.4-0.7,0.5-0.5,1.1c0.1,0.5,0.6,0.7,1.1,0.8
		c0.5-0.2,1-0.6,0.8-1.3c-0.1-0.4-0.5-0.4-0.8-0.6c1.1-0.5,2.4-0.7,3.5-1.2c0.8-0.2,1.5-0.4,2.2-0.8c0.7-0.1,1.3-0.7,1.9-0.4
		c-0.3,0.9-0.6,1.8-1.1,2.6c-0.8,2.8-1.5,6.6,0,9.4c0.2,0.1,0.2-0.1,0.3-0.1c-1.1-2.8-0.5-6.1,0.5-8.8c0.7-4.6,5.4-5.9,8.8-7.6
		l0.2,0.2c-0.9,2.4-2.2,4.6-2,7.5c0.1,0.5-0.2,1,0,1.3c0.9-0.5,1.5-1.6,2-2.5c0.4-2.4-1-5.4,1.4-7.2c4.4-1.7,8.5-4,13.5-4
		c0.2,0.2,0.5-0.1,0.6,0.2c-1.1,1.2-2.6,2.3-3.1,3.8c-1.7,2.4-1.7,6.4-0.9,9.3c0.5,1.7-1,2.6-1.7,3.9c-0.3,0.5-0.4,1.2-0.7,1.8
		l1.1,0.1c0.9-1,1.8-2.2,1.8-3.5c0.1,0.5,0.6,1,1,1.1c0.4-0.6-0.3-1-0.4-1.6c0.9-0.5,1.2,0.6,1.9,0.8c1.1,0.3,2.1,0.8,3.3,0.8
		l0.4-0.4c-1.2-1.8-3.5-2.1-5.5-2.3c-1.1-1.8-1.1-4-1-6.1c0.2-1.1,0.4-2.3,1.1-3.3c0.3-0.8,1-1.4,1.5-2c1-0.9,2.2-1.6,3.4-1.8h0.2
		c0,0.1,0.1,0.2,0.1,0.2c-1.4,1.1-1.6,2.7-2.4,4.1c-0.9,1.3-1.3,3.2-0.5,4.7c0.3,0.7,0.2,1.8,0.9,2.3c0.7-1,0.7-2.2,1.1-3.3
		c-0.2-1.8-1.2-3.4-0.2-5.2c0.5-1.3,1.7-1.9,2.9-2.4c2.9-0.3,5.5,1.2,8.1,2.4c0.5,0.4,1.4,0.7,1.5,1.5c-0.1,1.5-0.9,2.9-2,3.6
		c-1.4,0.9-3.5,1-4.9-0.1c-0.8-0.8-1.1-2.2-0.8-3.3c0.6-0.6,1.4-1.2,2.3-0.9c0.5,0.3,1,0.8,1.7,0.5c0.3-0.2,0.4-0.6,0.2-0.9
		c-0.6-0.3-0.8-1.1-1.6-1.2c-1-0.2-2.2-0.1-2.9,0.6c-1.1,1-1.5,2.4-1.2,3.8c0.4,1.7,1.7,3,3.3,3.4c2.5,0.6,5-0.2,6.6-2.3
		c0.6-0.7,0.8-1.5,1.2-2.3c2.6,1.6,4.5,4.3,5.5,7.1c0,0.9,0.3,1.9,0.1,2.7l1.9,0.2c-0.2-0.4,0-0.9,0.2-1.3c0.7-3.5,2.9-6.5,5.5-8.8
		c0.9-0.5,0.7,0.7,0.9,1.1c0.8,2,2.7,3.5,4.6,4.1c2.2,0.4,4.4-0.2,5.8-1.9c0.7-1.3,1.5-3.2,0.4-4.5c-0.7-0.9-1.8-1.4-2.9-1.4
		c-1.4,0-2.2,1-2.9,2c0,0.4-0.1,0.9,0.3,1.1c0.2,0,0.6,0.1,0.8-0.3c0.1-0.8,0.8-1.2,1.4-1.6c0.6-0.3,1.2,0,1.7,0.3
		c0.6,0.5,0.7,1.3,0.7,2.1c-0.1,1-0.8,2.1-1.8,2.5c-1.5,0.8-3.8,0.4-5.1-0.5c-0.6-0.7-1-1.5-1.5-2.4c-0.1-0.9-0.4-1.6,0-2.5
		c2.3-1.4,4.8-2.4,7.6-2.7c1.1,0.2,2.1,1,2.8,1.8c2.5,2.5-0.5,6.1,1.2,8.9c0.6-0.1,0.6-1,0.9-1.5c0.8-1.9-0.2-4-0.7-5.9
		c-0.6-1.2-1-2.2-2-3.2c0.3-0.1,0.4-0.1,0.6-0.1c1.1,0.8,2.3,1.6,3.3,2.8c1.5,2.5,2.3,5.5,2.1,8.8c-0.4,1.6-2.1,2.4-3.5,3
		c-0.5,0.4-1.2,1.1-1.4,1.7c0.6,0.4,1.5,0,2.2-0.3c1-0.4,1.6-1.7,2.3-2.3c0.1,0.1,0.1,0.2,0.1,0.3c0.1,0.6-0.3,1.4,0.3,1.6
		c0.3-0.8,0.3-1.8,0.5-2.7c0.7,0.8,0.8,1.7,1,2.7c0.5,1,1.3,2.3,2.6,2.4c0.3-0.5-0.1-1-0.2-1.4c-0.2-1.3-1.3-2-2-3
		c-1.9-2.6-1-6.6-2.5-9.5c-0.5-1.6-1.7-2.7-2.9-4l0.2-0.2c2.6-0.1,4.8,0.8,7.2,1.3c2.9,1.5,7.2,1.1,8.6,4.9c0.6,2.1,1.5,4.1,3,5.8
		l0.2-0.1c0.3-0.5,0.3-1.4,0-2c-0.3-2.7-2.7-3.3-3.9-5.6l0.2-0.2c1.3,0.4,2.6,0.7,3.9,1.2c4.3,1.2,7.3,5.4,7.8,9.7
		c0,3.4-0.6,6.3-2,9.2c-0.2,0.4-0.9,0.9-0.4,1.3c0.6-0.4,0.7-1.1,1-1.6c1.8-3,2.7-7,1.8-10.8c-0.1-0.7-0.9-1.2-0.5-1.9
		c0.3,0.3,0.6,0.4,0.9,0.5c0.3-0.2,0.8-0.2,1-0.6c0.1-0.3,0.3-0.7,0-1c-0.3-0.5-1-0.5-1.5-0.4c-0.3,0.3-0.6,0.7-0.6,1.2
		c-0.5-0.9-1.1-2.1-1.9-2.8l0.1-0.2c2.4,0.8,4.6,2,7,2.6c0.5,0.3,1.1,0.6,1.9,0.6c2.1,0.8,4.4,1.1,6.6,1.7c1.6-0.2,2.9,0.6,4.5,0.2
		v-0.1l-0.1,0.1c-0.6-0.8-1.9-0.1-2.6-0.6c-3.7-0.4-7.2-1.3-10.5-2.6c0.1-0.2,0.3-0.1,0.4-0.1c0.5-0.3,0.9-0.8,0.8-1.3
		c-0.3-0.4-0.7-0.6-1.2-0.6c-0.3,0.2-0.7,0.5-0.8,0.9c0.1,0.4,0.4,0.9,0.8,1c-0.1,0.1-0.3,0.1-0.5,0.1c-1.7-0.8-3.3-1.5-4.9-2.2
		c-0.6-0.1-1.1-0.6-1.7-0.7c-1.2-0.6-2.5-1.2-3.7-1.7c-3.4-1.8-7.2-2.7-10.8-4c-0.8-0.2-1.5-0.4-2.3-0.6c-1.3-0.4-2.7-0.7-4-1.1
		c-4.5-1.1-10.6-1.2-14.6,1.2c-0.6-0.2-1,0.8-1.3,0.2c1.1-3,4.4-3.9,7.3-4c21.4-0.2,41.5-0.4,62.5-0.7c2.5,0,4.9-0.9,6.1-3.1
		C194.2,335.2,194.4,333,193.7,331.6 M108.9,351.4c-0.2,0.6-0.6,1.2-0.6,1.9l-0.2,0.1c0.2-0.8-0.6-1.3-0.4-2.1
		c-0.4-0.6-0.4-1.5-0.8-2.2c-0.5-0.9,0.4-1.2,0.8-1.8c0.7,0.3,1,1,1.5,1.7C109.5,349.8,108.8,350.5,108.9,351.4"/>
	<path class="st0" d="M166.7,348c0,0.2,0.3,0.2,0.2,0.5c-1.9,1.7-4.5,2.2-7.1,2.3c-0.2,0.1-0.4,0.2-0.7,0.2
		c-0.2-0.1-0.2-0.3-0.1-0.4C160.9,348.4,163.9,347.4,166.7,348"/>
	<path class="st0" d="M158.2,348.9c0.2,0.8-0.3,1.2-0.9,1.5c-0.6-0.1-0.9-0.4-1.2-0.9c-0.2-0.4,0.2-0.6,0.4-0.9
		C156.9,348.1,157.9,348.1,158.2,348.9"/>
	<path class="st0" d="M56.8,349c0.1,0.4,0.1,0.9-0.3,1.1c-0.2,0.3-0.7,0.3-1,0.3c-0.4,0-0.6-0.5-0.7-0.8c0-0.5,0.3-0.7,0.7-1
		C56,348.5,56.4,348.5,56.8,349"/>
	<path class="st0" d="M47.2,352.5v0.4c-1.3,0.3-2.5-0.1-3.5-0.8c-0.7-1.1-1.6-2.2-2.8-2.7c0-0.2-0.3-0.4,0-0.5
		C43.6,348.9,45.2,351,47.2,352.5"/>
	<path class="st0" d="M174.9,348.9c-1.2,1.8-2.3,4.1-4.5,4.9c-0.4,0-0.7,0.5-1,0.2c0.9-2,2.7-4.2,4.7-5.1
		C174.3,348.9,174.6,348.8,174.9,348.9"/>
	<path class="st0" d="M59.8,349.6c0.1,0.6-0.4,0.7-0.7,1c-0.4,0.1-0.6-0.3-0.9-0.6c-0.2-0.5,0.3-0.7,0.5-1
		C59.2,348.9,59.6,349.2,59.8,349.6"/>
	<path class="st0" d="M181.6,349.9c-0.5,0.7-0.3,1.7-0.7,2.5c-1.1,1.2-2,2.6-3.7,2.9c-0.3-0.5,0.4-1.1,0.6-1.6
		c0.7-1.6,1.8-3.4,3.5-4.1L181.6,349.9z"/>
	<path class="st0" d="M30.7,350.4c0.2,0.4,0.3,0.8,0,1.2c-0.3,0.3-0.8,0.4-1.2,0.2c-0.5-0.3-0.6-0.9-0.4-1.3
		C29.3,350,30.3,349.7,30.7,350.4"/>
	<path class="st0" d="M27.6,351c0.1,0.3,0.2,0.5,0.2,0.8c-0.2,0.3-0.4,0.6-0.7,0.6c-0.6,0.1-1-0.2-1.2-0.7c-0.1-0.5,0.1-0.9,0.5-1.1
		C26.8,350.4,27.4,350.6,27.6,351"/>
	<path class="st0" d="M33.9,351.3c0.1,0.4,0.2,1.2-0.4,1.3c-0.7,0.3-1.2-0.2-1.6-0.6c0-0.5,0.3-0.9,0.6-1.1
		C33.1,350.9,33.5,350.9,33.9,351.3"/>
	<path class="st0" d="M42.7,352c-0.1,0.4,0.1,0.9-0.4,1c-0.3,0.3-0.7,0.2-1,0.1c-0.1-0.3-0.7-0.6-0.4-1c0.2-0.3,0.4-0.4,0.7-0.6
		C42,351.8,42.5,351.6,42.7,352"/>
	<path class="st0" d="M186.7,352.4c-0.2,0.4-0.4,0.9-0.8,0.9c-0.5-0.1-1-0.1-1.2-0.6c-0.2-0.6,0.3-0.9,0.7-1.1
		C185.9,351.6,186.6,351.8,186.7,352.4"/>
	<path class="st0" d="M176.9,352.7c0.1,0.4-0.4,0.8-0.6,0.9c-0.7,0.3-1.4-0.2-1.7-0.8c0.1-0.5,0.5-0.8,0.9-1
		C176.2,351.8,176.6,352.1,176.9,352.7"/>
	<path class="st0" d="M183.5,352.6c0,0.4-0.2,0.8-0.5,0.9c-0.4,0.2-1,0.1-1.3-0.2c-0.5-0.4-0.1-0.8,0.2-1.1
		C182.5,351.9,183.4,351.9,183.5,352.6"/>
	<path class="st0" d="M29.3,353.5c0.1,0.6-0.1,1.1-0.6,1.3c-0.5,0-1-0.3-1.2-0.8c-0.1-0.5,0.1-1,0.5-1.1
		C28.5,352.8,29,353.1,29.3,353.5"/>
	<path class="st0" d="M174.3,354.1c0.2,0.6-0.2,1.1-0.7,1.4c-0.4,0.1-0.7-0.1-1-0.4c-0.2-0.3-0.5-0.9-0.1-1.1
		C172.9,353.2,173.9,353.5,174.3,354.1"/>
	<path class="st0" d="M58,354.7c0.2,0.6-0.4,0.7-0.6,1c-0.2,0.1-0.6,0.2-0.8,0c-0.3-0.3-0.6-0.6-0.4-1.1c0.3-0.2,0.4-0.4,0.7-0.5
		C57.4,353.8,57.7,354.4,58,354.7"/>
	<path class="st0" d="M185.7,355.1c0.1,0.4-0.2,0.5-0.3,0.8c-0.3,0.3-0.9,0.3-1.2,0.2c-0.5-0.3-0.5-0.7-0.5-1.2
		c0.3-0.2,0.4-0.5,0.7-0.6C185,354.3,185.6,354.5,185.7,355.1"/>
	<path class="st0" d="M182.4,355.2c0.2,0.6-0.4,1-0.8,1.1c-0.2,0.1-0.5-0.1-0.6,0.2c1.4,0.7,2.2,1.8,3.3,2.8v0.4
		c-1.9,0-3.9-0.5-5.3-2c-0.4-0.3-1-0.3-1.4-0.6c0.7-0.7,2-0.4,2.9-0.5c0.7-0.8-0.8-1.3,0.1-1.9c0.3-0.1,0.5-0.4,1-0.3
		C182,354.6,182.2,354.9,182.4,355.2"/>
	<path class="st0" d="M160.6,355.3c0.1,0.3-0.2,0.6-0.3,0.9c-0.3,0.3-0.8,0.4-1.2,0.2c-0.3-0.4-0.7-0.7-0.5-1.2
		C159.1,354.3,160.5,354.5,160.6,355.3"/>
	<path class="st0" d="M41.3,357.1c-0.2,0.5-0.4,0.8-0.9,0.9c-0.4-0.1-0.8-0.2-1-0.6c-0.1-0.4,0.2-0.6,0.3-0.9
		C40.3,356,41.4,356.3,41.3,357.1"/>
	<path class="st0" d="M45.7,356.4c0,0.7-0.8,1.2-1.1,1.9c-0.8,1.8-2.2,3.4-4.3,3.5c-0.2-0.5,0.7-1.1,0.9-1.6
		c0.9-1.8,2.6-2.8,4.1-3.9H45.7z"/>
	<path class="st0" d="M159.3,357.2c0.1,0.6-0.5,1-0.9,1.2c-0.5,0.2-0.9-0.2-1.1-0.4c-0.4-0.4-0.2-0.9,0.1-1.3
		C158,356.1,158.9,356.6,159.3,357.2"/>
	<path class="st0" d="M162.6,357.6c-0.1,0.6-0.4,1-1,1.2c-0.1-0.2-0.4-0.1-0.5-0.1c-0.4-0.2-0.7-0.5-0.7-1c0.3-0.3,0.4-0.7,0.7-0.8
		C161.7,356.9,162.5,356.9,162.6,357.6"/>
	<path class="st0" d="M53.9,357.5c0.1,0.6-0.4,0.9-0.8,1.1c-0.5,0.1-0.8-0.3-1-0.6c-0.1-0.5,0.4-0.8,0.6-1.1
		C53.4,356.7,53.6,357.2,53.9,357.5"/>
	<path class="st0" d="M57.6,357.7c-0.2,0.5-0.5,0.8-1,0.9c-0.4-0.1-0.8-0.2-1-0.6c-0.1-0.5,0.4-0.8,0.7-1.1
		C56.9,356.9,57.5,357.1,57.6,357.7"/>
	<path class="st0" d="M174.1,361.5c0.3,0.2,0.7,0.5,0.6,0.9c-0.9,0.4-1.5-0.6-2.3-0.7c-1.3-1.3-2.2-2.7-2.8-4.3
		c0.5-0.5,1,0.1,1.4,0.3C172.3,358.6,173.5,359.9,174.1,361.5"/>
	<path class="st0" d="M176.1,357.7c0.2,0.4,0.1,0.8-0.1,1.2c-0.3,0.5-1,0.4-1.5,0.3c-0.3-0.3-0.7-0.8-0.4-1.2c0.2-0.4,0.6-0.5,1-0.7
		C175.4,357.3,175.7,357.6,176.1,357.7"/>
	<path class="st0" d="M62.5,359.1c0.1,0.4,0.2,1.1-0.4,1.3c-0.5,0.1-1.1,0-1.3-0.6c-0.3-0.6,0.3-0.8,0.6-1.1
		C61.9,358.6,62.2,358.9,62.5,359.1"/>
	<path class="st0" d="M162.5,362.6c0.7,1.1,1.3,2.4,1.4,3.8c-0.2,0.4,0.3,0.8-0.1,1h-0.2c-2.4-1.7-2.9-4.1-3.8-6.6
		c-0.2-0.1-0.3-0.3-0.2-0.5c0.5-0.5,0.9,0.5,1.4,0.6L162.5,362.6z"/>
	<path class="st0" d="M69.4,360.8c-0.1,0.1,0,0.1,0.1,0.1c-2.1,1.5-5.1,2.4-7.6,1c-0.1-0.2,0.1-0.4,0.3-0.5c1.5-0.5,3-1.2,4.7-1
		L69.4,360.8z"/>
	<path class="st0" d="M57.3,361.1c-1.8,1.1-3.5,3.3-5.7,3.9c-0.4,0.2-0.7,0.8-1.2,0.4c1-2.9,4.1-4.5,6.9-4.7V361.1z"/>
	<path class="st0" d="M159.3,363.5c0.2,0.4,0,1-0.4,1.1c-0.3,0.3-0.8,0.3-1,0c-0.5-0.2-0.5-0.7-0.5-1.1c0.2-0.4,0.5-0.4,0.8-0.6
		C158.7,363.1,159.1,363.1,159.3,363.5"/>
	<path class="st0" d="M154.9,363.8c-0.3,0.7-1.2,1.2-1.9,1.4c-1.8,0.6-3.5-0.2-5.1-0.6c0.1-0.4,0.6-0.3,0.9-0.5
		c1.8-0.4,3.6-0.8,5.4-0.3C154.4,363.6,154.7,363.5,154.9,363.8"/>
	<path class="st0" d="M57.3,365.3c-0.2,0.2-0.2,0.7-0.6,0.9c-0.4,0.2-0.7,0-1.1-0.2c-0.1-0.3-0.5-0.6-0.2-1c0.1-0.4,0.5-0.5,0.9-0.6
		C56.8,364.5,57.2,364.8,57.3,365.3"/>
	<path class="st0" d="M60.4,365.8c-0.2,0.3-0.3,0.8-0.7,1c-0.4,0.1-0.8-0.1-1.1-0.4c-0.2-0.3-0.3-0.7-0.2-1.1
		c0.1-0.3,0.5-0.3,0.7-0.5C59.7,364.8,60.2,365.4,60.4,365.8"/>
	<path class="st0" d="M158.3,366.3c0.1,0.4-0.2,0.7-0.4,1c-0.3,0.4-0.8,0.4-1.2,0.2c-0.4-0.1-0.5-0.5-0.6-0.8
		c-0.3-0.4,0.2-0.7,0.4-1.1C157.1,365.3,158.1,365.5,158.3,366.3"/>
	<path class="st0" d="M160.7,366.2c0.1,0.3,0.2,0.5,0.1,0.7c-0.3,0.3-0.5,1-1.2,0.7c-0.3,0.1-0.5-0.3-0.6-0.4
		c-0.2-0.5-0.1-1.3,0.6-1.5C160.1,365.6,160.4,366.1,160.7,366.2"/>
	<path class="st0" d="M58.5,367.8c0.1,0.6-0.1,1.1-0.5,1.5c-0.6,0.1-1.3,0.1-1.5-0.6c-0.1-0.5,0-1.2,0.6-1.6
		C57.6,367,58.2,367.1,58.5,367.8"/>
	<path class="st0" d="M61.6,367.6c-0.1,1.5-0.4,3.3-1.9,4.2c-0.9,0.2-1.7,1-2.6,0.4v-0.3C58.2,370.3,60.2,369.1,61.6,367.6"/>
	<path class="st0" d="M149.9,368.8c0.2,0.3-0.2,0.6-0.3,0.9c-0.3,0.4-0.9,0.2-1.3,0.1c-0.4-0.2-0.4-0.7-0.3-1.1
		c0.1-0.3,0.4-0.5,0.7-0.6C149.2,368,149.7,368.4,149.9,368.8"/>
	<path class="st0" d="M66.9,371.3c0.7,1.2,0.3,2.9,0.7,4.2c-0.9,0.1-1.3-0.9-1.9-1.4c-1.2-1.6-1-3.8-1.5-5.6
		c0.1-0.2,0.3-0.2,0.4-0.1c0.8,0.5,1.4,1.6,2,2.3C66.5,371,66.9,371,66.9,371.3"/>
	<path class="st0" d="M152.6,369.2c0,0.4-0.5,0.5-0.7,0.8c-0.4-0.1-0.7-0.2-1-0.5c-0.2-0.5,0.3-0.7,0.5-1
		C151.9,368.4,152.5,368.6,152.6,369.2"/>
	<path class="st0" d="M159,374c0,0.2-0.1,0.5-0.3,0.4h-0.2c-1.5-1.4-3.1-3-2.9-5.1l0.3-0.1C157.3,370.5,158.9,371.8,159,374"/>
	<path class="st0" d="M155,372.3c0.1,0.4-0.2,0.8-0.5,1c-0.6,0.2-1.5,0.1-1.6-0.7c0-0.5,0.5-0.8,0.8-1.1
		C154.3,371.4,154.7,371.8,155,372.3"/>
	<path class="st0" d="M151.4,373.4c-0.7,2-2.8,3-4.2,4.5c-0.3-0.2-0.2-0.6-0.1-0.8c0.5-2,2.1-4,4.1-4.8
		C152.1,372.4,151.3,373,151.4,373.4"/>
	<path class="st0" d="M155.4,375c0,0.5-0.5,0.7-0.7,1c-0.4-0.1-0.9-0.2-1.2-0.6c-0.1-0.5,0.4-0.7,0.7-1
		C154.7,374.3,155.2,374.6,155.4,375"/>
	<path class="st0" d="M115.7,277.5c0.7,0,1.3,0.6,1.3,1.3s-0.6,1.3-1.3,1.3H99.9c-0.7,0-1.3-0.6-1.3-1.3s0.6-1.3,1.3-1.3H115.7z
		 M104.6,279.8c1.5,0,0.1-1.9-0.7-1.9h-1.5c-1.5,0-0.1,1.9,0.7,1.9H104.6z M111,279.8c1.5,0,0.1-1.9-0.7-1.9h-1.5
		c-1.5,0-0.1,1.9,0.7,1.9H111z M115.8,277.9h-0.6c-1.5,0-0.2,1.9,0.6,1.9C116.9,279.8,116.9,277.9,115.8,277.9"/>
	<path class="st0" d="M114.4,295.6l3,1.2l3-1.2l-1.2,4.5l2.4-0.5l-0.8,2.7l0.8,2.6l-2.1-0.6l0.9,4.8l-3-1.2l-3,1.2l1.2-4.8l-2.4,0.7
		l0.6-2.7l-0.6-2.6l2.3,0.4L114.4,295.6z M118.8,303.7c0.7,0,0.7-0.9,0.7-1.7c0-1.8-1.5,0-2.2-1.7c-0.5,1.5-2,0.1-2,1.7
		c0,1.1,0,1.8,1.1,1.8H118.8z M115.9,302c0,0.7,0.9,0.2,1.6,0.2c0.7,0,1.6,0.5,1.6-0.2c0-1-0.9-0.6-1.6-0.6
		C116.8,301.4,115.9,301,115.9,302"/>
	<polygon class="st0" points="107.3,302.2 107.3,301.6 106.8,301.5 107.2,301.1 106.9,300.7 107.4,300.7 107.8,300.2 108.1,300.7 
		108.6,300.7 108.3,301.1 108.7,301.5 108.2,301.6 108.2,302.2 107.8,301.8 	"/>
	<polygon class="st0" points="104.9,305.2 104.9,304.6 104.4,304.5 104.8,304.1 104.6,303.7 105.1,303.7 105.4,303.2 105.7,303.7 
		106.2,303.7 106,304.1 106.4,304.5 105.9,304.6 105.9,305.2 105.4,304.9 	"/>
	<polygon class="st0" points="108.9,304.8 108.9,304.3 108.4,304.2 108.8,303.8 108.6,303.3 109.1,303.4 109.4,302.8 109.7,303.3 
		110.2,303.3 110,303.8 110.4,304.2 109.9,304.3 109.9,304.8 109.4,304.5 	"/>
	<polygon class="st0" points="109.4,307.1 109.4,306.8 109.1,306.7 109.3,306.5 109.2,306.2 109.5,306.3 109.7,305.9 109.8,306.2 
		110.1,306.2 110,306.5 110.2,306.7 109.9,306.8 109.9,307.1 109.7,306.9 	"/>
	<polygon class="st0" points="105.7,309.7 105.7,308.7 104.8,308.5 105.5,307.8 105.1,307 106,307.1 106.5,306.2 107,307.1 
		107.9,307 107.5,307.8 108.2,308.5 107.3,308.7 107.3,309.7 106.5,309 	"/>
	<polygon class="st0" points="107.6,259 109.5,263.6 114.2,262.2 111.8,266.6 115.8,269.4 111,270.3 111.3,275.2 107.6,271.9 
		103.9,275.2 104.2,270.3 99.3,269.4 103.4,266.6 100.9,262.2 105.7,263.6 	"/>
	<path class="st0" d="M90.4,362.6c-0.6,0.2-0.8,0.4-0.6,1l0.7,2.8c0.1,0.5,0.2,1.4-0.2,1.9c-0.4,0.6-1.3,1-1.9,1.2
		c-0.5,0.1-1.5,0.3-2.3,0c-0.5-0.2-0.9-0.5-1.1-1.4l-0.7-3c-0.2-0.7-0.5-0.7-1.1-0.6l-0.1-0.2l3.6-0.9l0.1,0.2
		c-0.7,0.2-1,0.3-0.8,1.1l0.7,3c0.1,0.5,0.4,1.7,1.9,1.4c1.9-0.4,1.6-1.8,1.4-2.4l-0.6-2.7c-0.1-0.5-0.3-0.8-1.2-0.6l-0.1-0.2
		l2.3-0.6L90.4,362.6z"/>
	<path class="st0" d="M95.7,363.2c-0.3-0.6-1.2-1.5-2.4-1.2c-0.6,0.1-1.1,0.5-1,1.1c0.1,0.5,0.4,0.6,1.3,0.8l1.7,0.3
		c0.4,0.1,1.3,0.4,1.5,1.4c0.2,0.8-0.3,2-2.2,2.4c-1,0.2-1.6,0-1.9,0.1c-0.2,0.1-0.2,0.2-0.3,0.4l-0.3,0.1l-0.5-2.2l0.3-0.1
		c0.4,0.9,1.3,1.7,2.6,1.4c1.3-0.3,1.1-1.2,1.1-1.3c-0.1-0.6-0.7-0.7-1.4-0.8l-0.8-0.1c-2-0.3-2.1-1.1-2.2-1.5
		c-0.1-0.5-0.1-1.8,2-2.3c0.9-0.2,1.4,0,1.7-0.1c0.2-0.1,0.3-0.2,0.3-0.4l0.3-0.1l0.4,1.9L95.7,363.2z"/>
	<path class="st0" d="M102.7,366.7l-3.9,0.4l0-0.2c0.8-0.1,1-0.2,1-0.9l-0.5-4.8c-0.8,0.1-1.9,0.3-1.9,1.7l-0.3,0l-0.1-1.8l6.5-0.6
		l0.2,1.8l-0.3,0c-0.4-1.4-1.5-1.4-2.2-1.3l0.5,4.8c0.1,0.8,0.3,0.8,1.1,0.7L102.7,366.7z"/>
	<path class="st0" d="M111.7,366.7l-2.2,0l-2.2-2.9l-0.3,0l0,1.8c0,0.7,0.2,0.8,0.9,0.9l0,0.2l-3.7-0.1l0-0.2c0.7-0.1,1-0.1,1-0.8
		l0.1-4c0-0.8-0.3-0.8-0.9-0.9l0-0.2l3.5,0.1c0.8,0,3.1,0.1,3,1.7c0,1.1-1.1,1.4-1.7,1.5l2.1,2.6c0.1,0.2,0.3,0.2,0.4,0.2
		L111.7,366.7z M107,363.5c1.4,0,2-0.2,2-1.4c0-0.9-0.4-1.3-1.3-1.3c-0.6,0-0.6,0.1-0.7,0.4L107,363.5z"/>
	<path class="st0" d="M118.9,367.6l-3.5-0.4l0-0.2c0.7,0,0.9,0,0.9-0.2c0-0.2-0.2-1-0.3-1.3l-2.4-0.3c-0.4,0.6-0.6,1-0.6,1.1
		c0,0.3,0.5,0.4,0.8,0.5l0,0.2l-2.2-0.3l0-0.2c0.6,0,0.8-0.3,1.2-0.9l3-4.7l0.3,0l1.8,5.1c0.4,1,0.5,1.4,1,1.4L118.9,367.6z
		 M115.9,365.1l-0.8-2.3l-1.3,2.1L115.9,365.1z"/>
	<path class="st0" d="M125.2,368.9l-6.2-1.1l0-0.2c0.6,0,0.9,0.1,1-0.5l0.8-4.3c0.1-0.6-0.3-0.7-0.8-0.8l0-0.2l3.7,0.7l0,0.2
		c-0.8-0.1-1.1-0.2-1.2,0.6l-0.8,4.2c-0.1,0.4,0.1,0.5,0.9,0.7c1.6,0.3,2.4-0.3,3-1.3l0.3,0.1L125.2,368.9z"/>
	<path class="st0" d="M129.3,369.8l-3.7-0.8l0-0.2c0.6,0.1,1,0.1,1.1-0.4l0.9-4.3c0.1-0.6-0.4-0.7-0.9-0.8l0-0.2l3.7,0.8l0,0.2
		c-0.5-0.1-1-0.2-1.1,0.4l-0.9,4.3c-0.1,0.6,0.3,0.7,0.9,0.8L129.3,369.8z"/>
	<path class="st0" d="M136.9,370.8l-3.5-0.4l0-0.2c0.7,0,0.9,0,0.9-0.3c0-0.2-0.3-1-0.4-1.3l-2.4-0.3c-0.4,0.6-0.6,1-0.6,1.1
		c0,0.3,0.5,0.4,0.8,0.5l0,0.2l-2.2-0.2l0-0.2c0.6,0,0.8-0.3,1.2-1l2.9-4.7l0.3,0l1.9,5c0.4,1,0.5,1.3,1,1.4L136.9,370.8z
		 M133.8,368.3l-0.9-2.3l-1.2,2.1L133.8,368.3z"/>
	<path class="st0" d="M109.1,297.1c0-2.2-1.2-0.1-1.9-2c-0.5,1.6-2,0.3-2,1.9c0,0.6,0.2,1,0.5,1.2v0.6c0,0.2,0.1,0.3,0.3,0.3h2.3
		c0.2,0,0.3-0.1,0.3-0.3v-0.7C108.9,298,109.1,297.6,109.1,297.1 M107.2,297.5c-0.6,0-1.5,0.4-1.5-0.3c0-1.1,0.7-0.8,1.4-0.8
		c0.6,0,1.6-0.2,1.6,0.8C108.7,298,107.8,297.5,107.2,297.5"/>
	<path class="st0" d="M128.2,324c0.6,0,1-0.4,1-0.9c0-0.5-0.4-0.9-1-0.9c-0.6,0-1,0.4-1,0.9C127.2,323.6,127.6,324,128.2,324"/>
	<path class="st0" d="M123.4,291.5c0,0-0.5,0.8-0.5,0.9c0,0.3,0.2,0.5,0.5,0.5c0.3,0,0.5-0.2,0.5-0.5
		C123.9,292.5,123.4,291.5,123.4,291.5"/>
	<path class="st0" d="M91.2,291.5c0,0-0.5,0.8-0.5,0.9c0,0.3,0.2,0.5,0.5,0.5c0.3,0,0.5-0.2,0.5-0.5
		C91.7,292.5,91.2,291.5,91.2,291.5"/>
	<path class="st0" d="M99.3,291.5c0,0-0.5,0.8-0.5,0.9c0,0.3,0.2,0.5,0.5,0.5c0.3,0,0.5-0.2,0.5-0.5
		C99.8,292.5,99.3,291.5,99.3,291.5"/>
	<path class="st0" d="M107.3,291.5c0,0-0.5,0.8-0.5,0.9c0,0.3,0.2,0.5,0.5,0.5c0.3,0,0.5-0.2,0.5-0.5
		C107.8,292.5,107.3,291.5,107.3,291.5"/>
	<path class="st0" d="M115.4,291.5c0,0-0.5,0.8-0.5,0.9c0,0.3,0.2,0.5,0.5,0.5c0.3,0,0.5-0.2,0.5-0.5
		C115.9,292.5,115.4,291.5,115.4,291.5"/>
	<path class="st0" d="M91.2,302.6c0,0,0.5,0.8,0.5,0.9c0,0.3-0.2,0.5-0.5,0.5c-0.3,0-0.5-0.2-0.5-0.5
		C90.7,303.5,91.2,302.6,91.2,302.6"/>
	<path class="st0" d="M91.2,313.4c0,0,0.5,0.8,0.5,0.9c0,0.3-0.2,0.5-0.5,0.5c-0.3,0-0.5-0.2-0.5-0.5
		C90.7,314.3,91.2,313.4,91.2,313.4"/>
	<path class="st0" d="M92.5,321.9c0,0,0.5,0.8,0.5,0.9c0,0.3-0.2,0.5-0.5,0.5c-0.3,0-0.5-0.2-0.5-0.5
		C92,322.8,92.5,321.9,92.5,321.9"/>
	<path class="st0" d="M99.3,326.4c0,0,0.5,0.8,0.5,0.9c0,0.3-0.2,0.5-0.5,0.5c-0.3,0-0.5-0.2-0.5-0.5
		C98.8,327.3,99.3,326.4,99.3,326.4"/>
	<path class="st0" d="M123.8,302.6c0,0-0.5,0.8-0.5,0.9c0,0.3,0.2,0.5,0.5,0.5c0.3,0,0.5-0.2,0.5-0.5
		C124.3,303.5,123.8,302.6,123.8,302.6"/>
	<path class="st0" d="M123.8,313.4c0,0-0.5,0.8-0.5,0.9c0,0.3,0.2,0.5,0.5,0.5c0.3,0,0.5-0.2,0.5-0.5
		C124.3,314.3,123.8,313.4,123.8,313.4"/>
	<path class="st0" d="M122.6,321.9c0,0-0.5,0.8-0.5,0.9c0,0.3,0.2,0.5,0.5,0.5c0.3,0,0.5-0.2,0.5-0.5
		C123,322.8,122.6,321.9,122.6,321.9"/>
	<path class="st0" d="M115.8,326.4c0,0-0.5,0.8-0.5,0.9c0,0.3,0.2,0.5,0.5,0.5c0.3,0,0.5-0.2,0.5-0.5
		C116.3,327.3,115.8,326.4,115.8,326.4"/>
	<path class="st0" d="M107.6,331.2c0,0-0.5,0.8-0.5,0.9c0,0.3,0.2,0.5,0.5,0.5c0.3,0,0.5-0.2,0.5-0.5
		C108.1,332.1,107.6,331.2,107.6,331.2"/>
	<path class="st0" d="M120.7,315.1c0.1,0.2,0.4,0.2,0.7,0.1l0.3-0.9c0-0.1-0.4-0.4-0.6-0.3c-0.9,0.2-1.8,0.3-2.3,1.1
		c0,0.6,0.4,1.1,0.8,1.3c0.3-0.1,0.4,0.2,0.6,0.4c0.1,0.3-0.1,0.5-0.4,0.5c-0.6-0.6-1.7,0.2-2.1-0.6c0.2-0.8,0.6-1.6-0.1-2.3
		c0.1-0.1,0.3-0.3,0.2-0.5c-0.3-0.7-1-0.2-1.5-0.2c-0.8-0.1-1.4,0.3-1.8,0.9c0.1,0.3,0.2,0.5,0.4,0.8c0.2-0.1,0.3,0,0.4,0.2
		l-0.5,0.3c0.1,0.2,0.1,0.4,0.2,0.6c-0.4,0.2-0.7-0.4-0.9-0.6c0-0.4,0-1.1-0.5-1.2c-0.1,0-0.4,0.1-0.4,0.1c-0.1,0.2-0.2,0.5-0.2,0.8
		c0,0.4,0.2,0.9,0.2,0.9s1.6,1.2,1.9,1.9c-0.5,0.9-0.5,2.2-1.5,2.7c-0.3,0.2-0.3,0.5-0.3,0.8l0.3,0.2c0.7-0.4,1.9-0.5,1.8-1.6
		c0.3-0.5,0.5-1,1-1.3c0.5-0.1,1,0.2,1.2,0.6c-0.2,0.8-0.7,1.3-1.4,1.5c-0.1,0.1-0.1,0.3-0.1,0.4c0.2,0.4,0.8,0.2,1.1,0.2
		c0.9-0.6,1.2-1.6,2-1.9c0.1,0.5-1,0.7-0.3,1.2c0.5-0.1,1.1,0.1,1.4-0.6c-0.4-0.9,1.2-1.3,0.3-2c0-0.8,0.8-1.1,0.8-1.9
		c-0.3-0.8-1.3-0.8-1.5-1.6C119.9,314.9,120.4,315,120.7,315.1"/>
	<path class="st0" d="M83.7,324.4c0.6,0,1-0.4,1-0.9c0-0.5-0.5-0.9-1-0.9c-0.6,0-1,0.4-1,0.9C82.7,324,83.1,324.4,83.7,324.4"/>
	<path class="st0" d="M31.4,355c0.5,0,1-0.4,1-1c0-0.5-0.4-0.9-1-0.9c-0.5,0-1,0.4-1,0.9C30.4,354.5,30.9,355,31.4,355"/>
	<path class="st0" d="M64.7,362.4L64.7,362.4l-0.1-0.1h0v0c0,0,0,0,0,0v0h-0.1v0c0,0,0,0,0,0v-0.1c0,0,0,0,0,0v0h0.1
		c0,0,0.1,0,0.1,0C64.6,362.3,64.6,362.3,64.7,362.4L64.7,362.4C64.7,362.4,64.7,362.4,64.7,362.4L64.7,362.4z M64.5,362.3
		C64.6,362.3,64.6,362.3,64.5,362.3C64.6,362.2,64.6,362.2,64.5,362.3C64.5,362.2,64.5,362.2,64.5,362.3L64.5,362.3z"/>
	<path class="st0" d="M64.8,362.2C64.8,362.2,64.8,362.2,64.8,362.2C64.7,362.2,64.7,362.2,64.8,362.2
		C64.7,362.2,64.7,362.2,64.8,362.2L64.8,362.2C64.8,362.3,64.8,362.3,64.8,362.2c0,0.1,0,0.1-0.1,0.1c0,0,0,0-0.1,0c0,0,0,0,0,0h0
		v-0.1h0c0,0,0,0.1,0.1,0.1C64.8,362.4,64.8,362.3,64.8,362.2C64.8,362.3,64.8,362.3,64.8,362.2L64.8,362.2c-0.1,0-0.1,0-0.1,0
		C64.7,362.2,64.7,362.2,64.8,362.2C64.8,362.2,64.8,362.2,64.8,362.2C64.8,362.2,64.8,362.2,64.8,362.2L64.8,362.2L64.8,362.2
		L64.8,362.2z"/>
	<path class="st0" d="M65.1,362.2C65.1,362.2,65.1,362.2,65.1,362.2l-0.1,0.2h0l-0.1-0.1l-0.1,0.1h0l-0.1-0.2c0,0,0,0,0,0v0h0.1v0
		c0,0,0,0,0,0c0,0,0,0,0,0l0,0.1l0-0.1l0,0c0,0,0,0,0,0v0L65.1,362.2L65.1,362.2c-0.1,0-0.1,0-0.1,0c0,0,0,0,0,0l0,0.1L65.1,362.2
		C65.1,362.2,65.1,362.2,65.1,362.2C65.1,362.2,65.1,362.2,65.1,362.2L65.1,362.2L65.1,362.2L65.1,362.2z"/>
	<path class="st0" d="M65.2,362.4C65.2,362.4,65.2,362.3,65.2,362.4C65.2,362.3,65.2,362.3,65.2,362.4
		C65.2,362.3,65.2,362.3,65.2,362.4c0-0.1,0-0.1,0-0.1c0,0,0-0.1,0.1-0.1c0,0,0.1,0,0.1,0.1C65.3,362.3,65.2,362.4,65.2,362.4
		L65.2,362.4z M65.2,362.3C65.2,362.3,65.2,362.3,65.2,362.3C65.2,362.3,65.2,362.3,65.2,362.3C65.2,362.2,65.2,362.2,65.2,362.3
		C65.2,362.2,65.2,362.2,65.2,362.3C65.2,362.3,65.2,362.3,65.2,362.3"/>
	<path class="st0" d="M65.3,362.2C65.4,362.2,65.4,362.2,65.3,362.2c0.1,0,0.1,0,0.1,0.1c0,0,0,0.1-0.1,0.1c0,0,0,0,0,0
		C65.3,362.3,65.3,362.3,65.3,362.2c0,0.1,0,0.1,0,0.1C65.4,362.4,65.4,362.3,65.3,362.2C65.4,362.3,65.4,362.3,65.3,362.2
		C65.4,362.3,65.3,362.3,65.3,362.2L65.3,362.2l0.1-0.1L65.3,362.2L65.3,362.2L65.3,362.2z"/>
	<path class="st0" d="M126.1,290.3L126.1,290.3l-37.2,0v0h0l0,28.4c0,2.9,1.2,5.4,2.9,6.2l14.3,9.1c0.3,0.4,0.8,0.6,1.3,0.6
		c0.5,0,0.9-0.2,1.2-0.5l14.5-9.2c1.7-0.8,2.9-3.3,2.9-6.2L126.1,290.3L126.1,290.3z M125.1,319.1c-0.2,2.2-0.9,3.9-2.4,5l-14,8.9
		h-0.1c-0.3,0.2-0.7,0.4-1.1,0.4c-0.4,0-0.8-0.2-1.1-0.4l-14-8.9c-1.5-1-2.2-2.8-2.4-5v-27.8h35.1V319.1z"/>
	<path class="st0" d="M112.5,331.7l0.4-0.2C112.8,331.5,112.6,331.6,112.5,331.7"/>
	<path class="st0" d="M84.5,370.5l-3.5,0.4l0-0.2c0.7-0.1,0.9-0.2,0.8-0.5c0-0.2-0.5-0.9-0.6-1.2l-2.4,0.3c-0.2,0.7-0.4,1.1-0.3,1.2
		c0,0.3,0.6,0.3,0.9,0.3l0,0.2l-2.2,0.3l0-0.2c0.6-0.1,0.7-0.5,0.9-1.2l1.8-5.2l0.3,0l3,4.5c0.6,0.9,0.8,1.2,1.3,1.1L84.5,370.5z
		 M80.9,368.8l-1.3-2.1l-0.8,2.3L80.9,368.8z"/>
	<path class="st0" d="M146,357.2c-0.6-1.7-2-2.8-3.6-3.3c-1.7-0.4-3.5-0.1-4.6,1.2c-1.9,1.6-0.6,4.1-0.5,6.2c0,0.4,0.1,0.8-0.4,1
		c-7.7-0.7-14.9-2.6-22.6-3.4c-1.8-0.3-3.5-0.2-5.2-0.6l-2.1-0.2c-6.7,0.2-13.3,0.6-19.6,2.2c-1.3,0.4-2.8,0.5-4.2,1
		c-1-0.2-1.8,0.5-2.7,0.3l-1.8,0.4c-0.2,0-0.4,0-0.6,0c-0.9-2.2,1.7-3.5,0.9-5.7c-0.7-1.2-2.1-2.4-3.7-2.2c-1.8-0.2-3.4,0.8-4.3,2.2
		c-1.2,2.7,0.3,5.5,0.8,8.1c-0.1,0.9,0.9,1.8,0,2.5c-1.7-1.2-3.9-1.8-6-1.2c-0.6,0.3-1.8-0.1-2.1,0.6c2.3,1.2,5.2,1.1,7.8,1
		c0.3-0.1,0.5-0.2,0.8,0.1c0.2,1.4-0.3,3.3,0.6,4.5c1,1.3,2.6,1.6,4.1,1.8c4.9-0.2,9.3-1.6,13.8-2.7c0.7-0.1,1.2-0.4,2-0.4
		c2.4-0.5,5-1,7.6-1c-1.1,1.5-1.8,3.1-2.2,4.8c-0.6,1.5,1.1,1.7,1.7,2.5c-1.7,0.5-2.8,1.6-4.4,2.3c-3.4-0.1-6.3,1.2-9.5,1.6
		c-0.1,0.7,1.1,0.5,1.2,1.2c-0.2,0.5-0.6,0.5-1,0.8c-0.1,0.3,0,0.4,0.3,0.4c0.3-0.4,1-0.1,1.3-0.5c1.1,0,2-0.3,3-0.4
		c0.9-0.4,1.9-0.4,2.7-1.1c1.1-0.3,1.8-1.1,2.9-1.4c1.6,0,3-0.5,4.5-0.6v0.3c-1.2,2-2.5,4-3.8,5.9c-0.2,0.4,0.1,0.8,0.4,0.9
		c0.7,0.2,1.5,0,2.1-0.3c1.1-1.9,2.1-3.8,3-5.8c0.4-1.8,1.7-2.8,3-4c0.2-0.1,0.5-0.4,0.7-0.1c-1.1,1.2-1.8,2.4-2.6,3.8
		c-0.4,1.5-0.5,3.4,0.8,4.7c0.6,0.5,1.6,0.4,2.5,0.4c2.1-1.1,4.7,0.6,6.3-1.4c1-0.2,1.1,1,1.7,1.5c0.9,0.3,1.9,1.2,2.8,0.5
		c-0.1-0.6-0.7-1.1-1-1.7c-0.6-1.1-1.4-2-2-3.1c-0.3-0.8-0.7-1.2-0.9-2c1,0.3,1.8,1,2.9,1.1c0.9,0.4,2,0.3,2.9,0.9
		c0.7,0.9,1.8,1.5,2.7,2c1.3,0.6,2.8,0.8,4.2,1.3c0.5,0.1,1.3,0.5,1.7,0c-0.2-0.3-0.5-0.4-0.8-0.6c-0.2-0.7,1-0.3,1.3-0.9
		c-0.1-0.3-0.4-0.4-0.6-0.4c-0.8-0.4-2.7-0.6-3.2-0.8c-0.6-0.1-1.2-0.4-1.9-0.6c-3.2,0-5-2.9-7.5-4c0.6-0.5,1.5-1,1.9-1.8
		c0.5-0.8,0.6-2,0.2-2.8c-0.5-1.7-2.6-1.5-3.8-2.4l0.2-0.2c2.1-0.1,3.9,0.4,5.8,0.8c5.1,0.7,9.9,2.6,15.2,2.7c2.9,0,6.6,0.2,8.1-2.7
		c0.3-1.7,0.6-3.3,0.9-5C144.6,362.6,146.3,360.2,146,357.2 M88.4,381.7l-0.7-0.7c0.4-0.5,1.2-0.2,1.8-0.5c1.4-0.4,3-1,4.5-0.6
		C92.4,381.1,90.3,381.3,88.4,381.7 M121.7,380.8c1.3,0.6,3.8,1.1,5.7,1.3c-0.2,0.7-1.5,0-1.3,1.1c-1.7-0.6-3.6-1-4.8-2.3
		C121.4,381,121.5,380.8,121.7,380.8 M71.7,358c0.2-1,0.4-2,1.3-2.7c1.3-0.7,3-0.5,4.2,0.2c0.4,0.2,0.6,0.5,0.9,1
		c0.3,0.9-0.2,1.9-0.8,2.4h-0.5c0-0.9,0-1.7,0.3-2.4c-0.1-0.6-0.6-0.7-1-1c-0.9-0.3-1.7,0.2-2.4,0.5c-0.5,0.6-1,1.5-0.7,2.4
		c0.4,0.6,0.1,1.4,0.3,2l-0.2,0.2C72.4,360,71.5,359.2,71.7,358 M74.2,359.5c0.8,0.6,1.9,0.3,2.9,0.5c0.2,0.6,0.2,1.3-0.3,1.8
		c-0.9-0.2-2.1-0.1-2.6-1C74.4,360.5,74.1,360,74.2,359.5 M74,357.7c0.2-0.4,0-1.1,0.6-1.2c0.4-0.1,1-0.1,1,0.3
		c-0.1,0.6-0.1,1.3-0.3,1.9C74.6,358.8,74.2,358.4,74,357.7 M99.1,375c-0.3-1.9,0.5-3.5,1.7-4.8c0.7-0.2,1.6-0.3,2.3,0.1
		c-1.4,0.4-3.1,0.7-3.5,2.5c0.1,0.7-0.2,1.1,0.2,1.7c0.6,1,1.9,0.6,2.7,1.4c0,0.3-0.2,0.6-0.5,0.6C101,375.9,99.9,375.7,99.1,375
		 M97.1,378.7c1.3-0.5,2.6-1.7,4.1-1.2C100.2,378.3,98.5,378.6,97.1,378.7 M102.2,379.2c-0.7,1.7-1.6,3.4-2.6,5
		c-0.1,0.3-0.5,0.3-0.9,0.4c0-0.8,0.7-1.3,1.1-2c1.1-1.4,1.4-3,2.7-4.4C102.8,378.6,102.2,378.8,102.2,379.2 M103.5,376.1v0.2h-0.1
		v-0.2v-0.1h0.2c-0.1,0-0.2,0-0.2,0.1H103.5z M103.1,374.7c-0.9-0.1-1.8-0.4-2.6-0.6c-0.5-0.5,0-1.1,0-1.7c0.7-1.2,2.9-1.8,3.9-0.7
		C104.2,372.8,103.8,373.8,103.1,374.7 M104.2,374.7c0.2-0.7,0.5-1.6,0.9-2.3C105,373.1,104.7,374.1,104.2,374.7 M104.8,370.3
		c-0.7-0.2-1.1-1-1.8-1c0.6-0.2,1.3-0.2,2-0.1C105.3,369.7,104.9,370,104.8,370.3 M105.5,371.9L105.5,371.9l-0.1-0.6h0.1V371.9z
		 M105.5,374.4c-0.1-0.2,0.1-0.5,0.2-0.7c0.3-0.3,0.5,0.2,0.6,0.4C106.1,374.3,105.8,374.4,105.5,374.4 M106.3,371.1
		c0.3-0.8,0.3-1.4,0.8-2c0.5,0,1,0,1.4,0.2c0.1,1.1,1.4,2.5,0,3.4c-0.5,0.2-1.2,0.7-1.7,0.2C106.1,372.3,106,371.8,106.3,371.1
		 M110.2,369.6c-0.1-0.5,0.5-0.1,0.7-0.3l1.7,0.1C111.7,369.2,110.6,371.2,110.2,369.6 M112.9,370.3c-0.6,0.2-1.1,1-1.8,1.1
		C111.4,370.8,112.2,370.2,112.9,370.3 M110.6,373.8L110.6,373.8l-0.1-0.2h0.1V373.8z M110.7,376.9c-0.1,0.1,0.1,0.3-0.1,0.4l-1.2-1
		C110,376.2,110.4,376.4,110.7,376.9 M109.3,375.2c0.1-0.1,0.4-0.1,0.5,0H109.3z M108.5,374.4c0.2-0.3,0.5-0.8,0.9-0.8
		c0,0.1,0.1,0.1,0.1,0.2C109.2,374,108.9,374.3,108.5,374.4 M107.3,374.3h-0.2l0.3-0.3C107.6,374.1,107.4,374.2,107.3,374.3
		 M107.5,376.3c0.7-0.8,1.3,0.4,1.6,1c0.8,1.2,2.9,2.3,2.1,3.9c-1,0.9-2.6,0.1-3.7,0.7c-0.6-0.1-1.6,0.1-1.9-0.5
		C106.1,379.8,106.6,377.8,107.5,376.3 M106,377.3l0.3-0.4c-0.4,1.3-1.1,2.6-1.8,3.9C104.2,379.5,105.5,378.5,106,377.3
		 M108.3,383.7c-1,0.1-2.6,0.6-3.5-0.2c0.1-0.4-0.4-0.6-0.4-1.1c0.9-0.3,1.6,0.7,2.4-0.1c1.2,0.1,2.5-0.2,3.7,0.1
		c0.6,0.2,1.5-1,1.6,0.2C111.7,384.4,109.6,383.2,108.3,383.7 M111.4,375.8h0.1v0.2h-0.1V375.8z M111.7,379.4
		c0.1,0.5,0.6,0.8,0.3,1.2C111.9,380.4,111.6,379.9,111.7,379.4 M113.2,382.6l-0.3,0.1c-0.3-0.2-0.2-0.8-0.1-1.1
		C113.2,381.9,113.5,382.2,113.2,382.6 M115.9,383.9c-0.1,0.2-0.3,0.2-0.4,0.1c-1.6-2-2.3-4.2-3.4-6.4l0.2-0.1
		C113.6,379.5,114.6,381.9,115.9,383.9 M117.9,379c-0.1,0.1-0.1,0.2-0.1,0.2c-1.5,0.1-2.6-0.9-3.7-1.7l-0.1-0.3
		C115.4,377.3,116.6,378.3,117.9,379 M116.5,371.8c0.6,0.2,0.7,0.9,0.7,1.4c-0.1,1.2-0.7,2.2-1.8,2.6c-0.6,0.3-1.5,0.4-2.1,0.2
		c1.3-0.1,2.7-0.5,3.2-1.8L116.5,371.8z M115.3,371.6c0.3,0.8,0.7,1.4,0.5,2.4c-0.5,1-1.6,1-2.6,1.2c-0.5,0.1-0.9-0.1-1.2-0.4
		c0.1-0.2-0.1-0.4-0.2-0.5c0.2-0.7-1.2-1.4-0.3-2C112.4,371.5,114.4,369.7,115.3,371.6 M142.4,367.7c-0.4,0.5-0.1,1.4-0.6,1.9
		c0,1-0.8,1.5-1.5,1.8c-6.3,1.4-12.6-0.8-18.7-1.8c-8.6-1.9-18.6-2.4-27.4-0.4c-4.1,0.8-8.1,1.7-12.1,2.9c-2.5,0.3-5.1,0.7-7.5-0.1
		c-1.9-0.9-1.1-3.4-1.7-5.1c0.1-1.3-0.4-2.4-0.4-3.7c-0.2-0.4-0.3-1-0.2-1.4c0.8,0.1,1.6,0.7,2.5,0.9c4.5,0.9,8.5-0.6,12.6-1.3
		c4-0.9,8.1-1.6,12.3-1.9c4.8-0.1,9.7-0.3,14.3,0.5c1.5,0.1,2.8,0.4,4.2,0.5c3,0.4,5.8,1.2,8.8,1.4c0.5,0.2,1.1,0.2,1.6,0.3
		c4.8,0.8,10.2,2.1,14.8,0C143.5,364,142.7,365.8,142.4,367.7 M140.9,361.1c0.1,0.9-0.8,0.6-1.2,1h-1.3c-0.3-0.4-0.2-1.1-0.2-1.5
		C139.2,360.7,140.1,360.7,140.9,361.1 M140.3,359.8c0.6-0.6-0.2-4,1.5-1.8c0,0.4,0.1,1.1-0.4,1.4
		C141.2,359.6,140.8,360,140.3,359.8 M144.7,359.2c-0.5,1-1.2,1.7-2.3,1.8c0.1-1.3,1.2-2.2,0.8-3.6c-0.7-1-2.1-1.3-3.4-1.1
		c-0.5,0.3-0.3,0.9-0.4,1.3l-0.2,1.8c-1.1,0-1.1-1-1.4-1.7c0.1-1.1,0.5-2.3,1.7-2.8c0.9-0.4,2.2-0.4,3.1,0.1
		c0.7,0.2,1.5,0.5,1.8,1.1C145,356.9,144.8,358.3,144.7,359.2"/>
	<path class="st0" d="M391.4,337h1.8l6.4,15h-2.4l-1.5-3.7h-7.1l-1.5,3.7h-2.4L391.4,337z M395,346.5l-2.8-6.9h0l-2.8,6.9H395z"/>
	<path class="st0" d="M409.8,352h-1.9v-1.5h0c-0.2,0.5-0.7,1-1.2,1.3c-0.6,0.3-1.3,0.5-2.1,0.5c-0.5,0-1-0.1-1.4-0.2
		c-0.4-0.1-0.8-0.4-1.2-0.7c-0.3-0.3-0.6-0.7-0.8-1.2c-0.2-0.5-0.3-1.1-0.3-1.7V342h1.9v5.9c0,0.5,0.1,0.9,0.2,1.2
		c0.1,0.3,0.3,0.6,0.5,0.8c0.2,0.2,0.5,0.4,0.7,0.4c0.3,0.1,0.6,0.1,0.9,0.1c0.4,0,0.8-0.1,1.1-0.2c0.3-0.1,0.6-0.3,0.9-0.6
		c0.3-0.3,0.4-0.6,0.6-1c0.1-0.4,0.2-0.9,0.2-1.5V342h1.9V352z"/>
	<path class="st0" d="M418,344.5c-0.2-0.3-0.5-0.5-0.8-0.7c-0.3-0.2-0.7-0.3-1.2-0.3c-0.5,0-0.8,0.1-1.2,0.3
		c-0.3,0.2-0.5,0.5-0.5,0.8c0,0.3,0.1,0.5,0.3,0.7c0.2,0.2,0.4,0.3,0.7,0.4c0.3,0.1,0.5,0.2,0.8,0.3c0.3,0.1,0.5,0.1,0.8,0.1
		c0.4,0.1,0.8,0.2,1.2,0.4c0.4,0.1,0.7,0.3,0.9,0.6c0.3,0.2,0.5,0.5,0.6,0.8c0.1,0.3,0.2,0.7,0.2,1.2c0,0.6-0.1,1-0.4,1.4
		c-0.2,0.4-0.5,0.7-0.9,1c-0.4,0.3-0.8,0.4-1.3,0.6c-0.5,0.1-1,0.2-1.5,0.2c-0.8,0-1.6-0.1-2.2-0.4c-0.6-0.3-1.2-0.7-1.7-1.4
		l1.4-1.2c0.3,0.3,0.7,0.6,1,0.8c0.4,0.2,0.8,0.4,1.4,0.4c0.2,0,0.5,0,0.7-0.1c0.2,0,0.5-0.1,0.7-0.2c0.2-0.1,0.3-0.2,0.5-0.4
		c0.1-0.2,0.2-0.4,0.2-0.6c0-0.3-0.1-0.5-0.3-0.7c-0.2-0.2-0.4-0.3-0.6-0.4c-0.2-0.1-0.5-0.2-0.8-0.3c-0.3-0.1-0.5-0.1-0.7-0.2
		c-0.4-0.1-0.8-0.2-1.2-0.3c-0.4-0.1-0.7-0.3-1-0.5c-0.3-0.2-0.5-0.5-0.7-0.8c-0.2-0.3-0.3-0.7-0.3-1.2c0-0.5,0.1-1,0.3-1.4
		c0.2-0.4,0.5-0.7,0.9-1c0.4-0.3,0.8-0.4,1.2-0.6c0.5-0.1,0.9-0.2,1.4-0.2c0.7,0,1.3,0.1,1.9,0.4c0.6,0.3,1.1,0.7,1.5,1.3L418,344.5
		z"/>
	<path class="st0" d="M427.8,343.6h-2.7v4.5c0,0.3,0,0.6,0,0.8c0,0.3,0.1,0.5,0.2,0.7c0.1,0.2,0.2,0.4,0.4,0.5
		c0.2,0.1,0.5,0.2,0.8,0.2c0.2,0,0.5,0,0.7-0.1c0.2,0,0.5-0.1,0.7-0.2v1.7c-0.2,0.1-0.5,0.2-0.9,0.3c-0.4,0.1-0.6,0.1-0.8,0.1
		c-0.7,0-1.3-0.1-1.7-0.3c-0.4-0.2-0.7-0.5-0.9-0.8c-0.2-0.3-0.3-0.7-0.3-1.1c0-0.4-0.1-0.8-0.1-1.2v-5.2H421V342h2.2v-2.8h1.9v2.8
		h2.7V343.6z"/>
	<path class="st0" d="M430,342h1.9v1.5h0c0.1-0.3,0.3-0.5,0.5-0.7c0.2-0.2,0.4-0.4,0.7-0.6c0.3-0.2,0.5-0.3,0.9-0.4
		c0.3-0.1,0.6-0.1,0.9-0.1c0.3,0,0.6,0,0.8,0.1l-0.1,2.1c-0.2,0-0.3-0.1-0.5-0.1c-0.2,0-0.3,0-0.5,0c-0.9,0-1.6,0.3-2.1,0.8
		c-0.5,0.5-0.7,1.3-0.7,2.4v5H430V342z"/>
	<path class="st0" d="M437.7,343.2c0.5-0.5,1.2-0.9,1.9-1.1c0.7-0.2,1.4-0.4,2.1-0.4c0.7,0,1.4,0.1,1.9,0.3c0.5,0.2,1,0.4,1.3,0.7
		c0.3,0.3,0.6,0.7,0.8,1.1c0.2,0.4,0.2,0.8,0.2,1.3v5.1c0,0.4,0,0.7,0,1c0,0.3,0,0.6,0.1,0.8h-1.7c0-0.5-0.1-1-0.1-1.5h0
		c-0.4,0.6-0.9,1.1-1.5,1.4c-0.6,0.3-1.2,0.4-2,0.4c-0.5,0-0.9-0.1-1.3-0.2s-0.8-0.3-1.1-0.6c-0.3-0.3-0.6-0.6-0.8-0.9
		c-0.2-0.4-0.3-0.8-0.3-1.3c0-0.6,0.1-1.2,0.4-1.6c0.3-0.4,0.7-0.8,1.2-1.1c0.5-0.3,1.1-0.5,1.8-0.6c0.7-0.1,1.4-0.2,2.1-0.2h1.4
		v-0.4c0-0.3-0.1-0.5-0.1-0.8c-0.1-0.3-0.2-0.5-0.4-0.7c-0.2-0.2-0.4-0.4-0.7-0.5c-0.3-0.1-0.6-0.2-1.1-0.2c-0.4,0-0.7,0-1,0.1
		c-0.3,0.1-0.5,0.2-0.7,0.3c-0.2,0.1-0.4,0.2-0.6,0.4c-0.2,0.1-0.4,0.3-0.5,0.4L437.7,343.2z M443.1,347.2c-0.5,0-0.9,0-1.4,0.1
		c-0.5,0.1-0.9,0.1-1.3,0.3c-0.4,0.1-0.7,0.3-1,0.6c-0.2,0.3-0.4,0.6-0.4,1c0,0.6,0.2,1,0.6,1.2c0.4,0.3,0.9,0.4,1.6,0.4
		c0.5,0,1-0.1,1.3-0.3c0.4-0.2,0.7-0.4,0.9-0.7c0.2-0.3,0.4-0.6,0.5-0.9c0.1-0.3,0.1-0.7,0.1-1v-0.6H443.1z"/>
	<rect x="448.8" y="336" class="st0" width="1.9" height="16"/>
	<path class="st0" d="M453.3,338.4c0-0.4,0.1-0.7,0.4-1c0.3-0.3,0.6-0.4,1-0.4c0.4,0,0.7,0.1,1,0.4c0.3,0.3,0.4,0.6,0.4,1
		c0,0.4-0.1,0.7-0.4,1c-0.3,0.3-0.6,0.4-1,0.4c-0.4,0-0.7-0.1-1-0.4C453.4,339.1,453.3,338.8,453.3,338.4 M453.7,342h1.9v10h-1.9
		V342z"/>
	<path class="st0" d="M458.5,343.2c0.5-0.5,1.2-0.9,1.9-1.1s1.4-0.4,2.1-0.4c0.7,0,1.4,0.1,1.9,0.3s1,0.4,1.3,0.7
		c0.3,0.3,0.6,0.7,0.8,1.1c0.2,0.4,0.2,0.8,0.2,1.3v5.1c0,0.4,0,0.7,0,1c0,0.3,0,0.6,0.1,0.8h-1.7c0-0.5-0.1-1-0.1-1.5h0
		c-0.4,0.6-0.9,1.1-1.5,1.4c-0.6,0.3-1.2,0.4-2,0.4c-0.5,0-0.9-0.1-1.3-0.2s-0.8-0.3-1.1-0.6c-0.3-0.3-0.6-0.6-0.8-0.9
		c-0.2-0.4-0.3-0.8-0.3-1.3c0-0.6,0.1-1.2,0.4-1.6c0.3-0.4,0.7-0.8,1.2-1.1c0.5-0.3,1.1-0.5,1.8-0.6c0.7-0.1,1.4-0.2,2.1-0.2h1.4
		v-0.4c0-0.3-0.1-0.5-0.1-0.8c-0.1-0.3-0.2-0.5-0.4-0.7c-0.2-0.2-0.4-0.4-0.7-0.5c-0.3-0.1-0.6-0.2-1.1-0.2c-0.4,0-0.7,0-1,0.1
		c-0.3,0.1-0.5,0.2-0.7,0.3c-0.2,0.1-0.4,0.2-0.6,0.4c-0.2,0.1-0.4,0.3-0.5,0.4L458.5,343.2z M463.9,347.2c-0.5,0-0.9,0-1.4,0.1
		c-0.5,0.1-0.9,0.1-1.3,0.3c-0.4,0.1-0.7,0.3-1,0.6c-0.2,0.3-0.4,0.6-0.4,1c0,0.6,0.2,1,0.6,1.2c0.4,0.3,0.9,0.4,1.6,0.4
		c0.5,0,1-0.1,1.3-0.3c0.4-0.2,0.7-0.4,0.9-0.7c0.2-0.3,0.4-0.6,0.5-0.9c0.1-0.3,0.1-0.7,0.1-1v-0.6H463.9z"/>
	<path class="st0" d="M469.5,342h1.9v1.5h0c0.2-0.5,0.7-1,1.2-1.3c0.6-0.3,1.3-0.5,2.1-0.5c0.5,0,0.9,0.1,1.4,0.2
		c0.4,0.1,0.8,0.4,1.2,0.7c0.3,0.3,0.6,0.7,0.8,1.2c0.2,0.5,0.3,1.1,0.3,1.7v6.4h-1.9v-5.9c0-0.5-0.1-0.9-0.2-1.2
		c-0.1-0.3-0.3-0.6-0.5-0.8c-0.2-0.2-0.5-0.4-0.7-0.4c-0.3-0.1-0.6-0.1-0.9-0.1c-0.4,0-0.8,0.1-1.1,0.2c-0.3,0.1-0.6,0.3-0.9,0.6
		c-0.3,0.3-0.5,0.6-0.6,1c-0.1,0.4-0.2,0.9-0.2,1.5v5.2h-1.9V342z"/>
	<path class="st0" d="M488.1,348.9c0.4,0.6,0.8,1,1.4,1.2c0.6,0.3,1.2,0.4,1.8,0.4c0.3,0,0.7-0.1,1-0.2c0.3-0.1,0.7-0.3,1-0.5
		c0.3-0.2,0.5-0.5,0.7-0.8c0.2-0.3,0.3-0.7,0.3-1.1c0-0.6-0.2-1-0.5-1.3c-0.4-0.3-0.8-0.6-1.4-0.8c-0.5-0.2-1.1-0.4-1.8-0.6
		c-0.6-0.2-1.2-0.5-1.8-0.8c-0.5-0.3-1-0.8-1.4-1.4c-0.4-0.6-0.6-1.3-0.6-2.3c0-0.4,0.1-0.9,0.3-1.4c0.2-0.5,0.5-0.9,0.9-1.4
		c0.4-0.4,0.9-0.8,1.6-1c0.6-0.3,1.4-0.4,2.3-0.4c0.8,0,1.6,0.1,2.3,0.3c0.7,0.2,1.4,0.7,2,1.4l-1.6,1.5c-0.3-0.4-0.6-0.7-1.1-1
		c-0.5-0.2-1-0.4-1.6-0.4c-0.6,0-1,0.1-1.4,0.2c-0.4,0.1-0.7,0.3-0.9,0.6c-0.2,0.2-0.4,0.5-0.5,0.8c-0.1,0.3-0.1,0.5-0.1,0.7
		c0,0.6,0.2,1.1,0.6,1.5c0.4,0.3,0.8,0.6,1.4,0.8c0.5,0.2,1.1,0.4,1.8,0.6c0.6,0.2,1.2,0.4,1.8,0.7c0.5,0.3,1,0.7,1.4,1.2
		c0.4,0.5,0.5,1.2,0.5,2.1c0,0.7-0.1,1.4-0.4,1.9c-0.3,0.6-0.6,1.1-1.1,1.5c-0.5,0.4-1,0.7-1.6,0.9c-0.6,0.2-1.3,0.3-2,0.3
		c-1,0-1.9-0.2-2.7-0.5s-1.5-0.9-2-1.6L488.1,348.9z"/>
	<path class="st0" d="M500.3,347.7c0,0.4,0.1,0.8,0.3,1.2c0.2,0.4,0.4,0.7,0.7,0.9c0.3,0.3,0.7,0.5,1.1,0.6c0.4,0.1,0.8,0.2,1.3,0.2
		c0.6,0,1.1-0.1,1.5-0.4c0.4-0.3,0.8-0.6,1.2-1.1l1.4,1.1c-1.1,1.4-2.5,2.1-4.4,2.1c-0.8,0-1.5-0.1-2.1-0.4
		c-0.6-0.3-1.2-0.6-1.6-1.1c-0.4-0.5-0.8-1-1-1.7c-0.2-0.6-0.4-1.3-0.4-2.1c0-0.7,0.1-1.4,0.4-2.1c0.3-0.6,0.6-1.2,1.1-1.7
		c0.5-0.5,1-0.8,1.6-1.1c0.6-0.3,1.3-0.4,2.1-0.4c0.9,0,1.6,0.2,2.3,0.5c0.6,0.3,1.1,0.7,1.5,1.2c0.4,0.5,0.7,1.1,0.9,1.7
		c0.2,0.6,0.3,1.3,0.3,1.9v0.7H500.3z M506.3,346.2c0-0.4-0.1-0.8-0.2-1.2c-0.1-0.4-0.3-0.7-0.5-0.9c-0.2-0.3-0.5-0.5-0.9-0.6
		c-0.4-0.1-0.8-0.2-1.3-0.2c-0.5,0-0.9,0.1-1.3,0.3c-0.4,0.2-0.7,0.4-1,0.7c-0.3,0.3-0.5,0.6-0.6,0.9c-0.1,0.3-0.2,0.7-0.2,1H506.3z
		"/>
	<path class="st0" d="M517.8,344.6c-0.4-0.4-0.7-0.6-1.1-0.8c-0.4-0.2-0.8-0.3-1.4-0.3c-0.5,0-1,0.1-1.4,0.3c-0.4,0.2-0.7,0.5-1,0.8
		c-0.3,0.3-0.5,0.7-0.6,1.1c-0.1,0.4-0.2,0.9-0.2,1.3c0,0.5,0.1,0.9,0.2,1.3c0.2,0.4,0.4,0.8,0.7,1.1c0.3,0.3,0.6,0.6,1,0.7
		c0.4,0.2,0.8,0.3,1.3,0.3c0.5,0,1-0.1,1.4-0.3c0.4-0.2,0.7-0.5,1.1-0.8l1.4,1.4c-0.5,0.6-1.1,0.9-1.7,1.2c-0.7,0.2-1.3,0.4-2.1,0.4
		c-0.8,0-1.5-0.1-2.1-0.4c-0.6-0.3-1.2-0.6-1.7-1.1c-0.5-0.5-0.8-1-1.1-1.6c-0.3-0.6-0.4-1.3-0.4-2.1c0-0.8,0.1-1.5,0.4-2.1
		c0.3-0.6,0.6-1.2,1.1-1.7c0.5-0.5,1-0.8,1.6-1.1c0.6-0.3,1.4-0.4,2.1-0.4c0.7,0,1.4,0.1,2.1,0.4c0.7,0.3,1.3,0.7,1.7,1.2
		L517.8,344.6z"/>
	<path class="st0" d="M529.9,352h-1.9v-1.5h0c-0.2,0.5-0.7,1-1.2,1.3c-0.6,0.3-1.3,0.5-2,0.5c-0.5,0-1-0.1-1.4-0.2
		c-0.4-0.1-0.8-0.4-1.2-0.7c-0.3-0.3-0.6-0.7-0.8-1.2c-0.2-0.5-0.3-1.1-0.3-1.7V342h1.9v5.9c0,0.5,0.1,0.9,0.2,1.2
		c0.1,0.3,0.3,0.6,0.5,0.8c0.2,0.2,0.5,0.4,0.7,0.4c0.3,0.1,0.6,0.1,0.9,0.1c0.4,0,0.8-0.1,1.1-0.2c0.3-0.1,0.6-0.3,0.9-0.6
		c0.3-0.3,0.5-0.6,0.6-1c0.1-0.4,0.2-0.9,0.2-1.5V342h1.9V352z"/>
	<path class="st0" d="M532.8,342h1.9v1.5h0c0.1-0.3,0.3-0.5,0.5-0.7c0.2-0.2,0.4-0.4,0.7-0.6c0.3-0.2,0.5-0.3,0.9-0.4
		c0.3-0.1,0.6-0.1,0.9-0.1s0.6,0,0.8,0.1l-0.1,2.1c-0.2,0-0.3-0.1-0.5-0.1c-0.2,0-0.3,0-0.5,0c-0.9,0-1.6,0.3-2.1,0.8
		c-0.5,0.5-0.7,1.3-0.7,2.4v5h-1.9V342z"/>
	<path class="st0" d="M540.1,338.4c0-0.4,0.1-0.7,0.4-1c0.3-0.3,0.6-0.4,1-0.4c0.4,0,0.7,0.1,1,0.4c0.3,0.3,0.4,0.6,0.4,1
		c0,0.4-0.1,0.7-0.4,1c-0.3,0.3-0.6,0.4-1,0.4c-0.4,0-0.7-0.1-1-0.4C540.2,339.1,540.1,338.8,540.1,338.4 M540.5,342h1.9v10h-1.9
		V342z"/>
	<path class="st0" d="M551,343.6h-2.7v4.5c0,0.3,0,0.6,0,0.8c0,0.3,0.1,0.5,0.2,0.7c0.1,0.2,0.2,0.4,0.4,0.5
		c0.2,0.1,0.5,0.2,0.8,0.2c0.2,0,0.5,0,0.7-0.1c0.2,0,0.5-0.1,0.7-0.2v1.7c-0.2,0.1-0.5,0.2-0.9,0.3c-0.4,0.1-0.6,0.1-0.8,0.1
		c-0.7,0-1.3-0.1-1.7-0.3c-0.4-0.2-0.7-0.5-0.9-0.8c-0.2-0.3-0.3-0.7-0.3-1.1c0-0.4-0.1-0.8-0.1-1.2v-5.2h-2.2V342h2.2v-2.8h1.9v2.8
		h2.7V343.6z"/>
	<path class="st0" d="M552.8,338.4c0-0.4,0.1-0.7,0.4-1c0.3-0.3,0.6-0.4,1-0.4s0.7,0.1,1,0.4c0.3,0.3,0.4,0.6,0.4,1
		c0,0.4-0.1,0.7-0.4,1c-0.3,0.3-0.6,0.4-1,0.4s-0.7-0.1-1-0.4C552.9,339.1,552.8,338.8,552.8,338.4 M553.2,342h1.9v10h-1.9V342z"/>
	<path class="st0" d="M559.5,347.7c0,0.4,0.1,0.8,0.3,1.2c0.2,0.4,0.4,0.7,0.8,0.9c0.3,0.3,0.7,0.5,1.1,0.6c0.4,0.1,0.8,0.2,1.3,0.2
		c0.6,0,1.1-0.1,1.5-0.4c0.4-0.3,0.8-0.6,1.2-1.1l1.4,1.1c-1.1,1.4-2.5,2.1-4.4,2.1c-0.8,0-1.5-0.1-2.1-0.4
		c-0.6-0.3-1.2-0.6-1.6-1.1c-0.4-0.5-0.8-1-1-1.7c-0.2-0.6-0.4-1.3-0.4-2.1c0-0.7,0.1-1.4,0.4-2.1c0.3-0.6,0.6-1.2,1.1-1.7
		c0.5-0.5,1-0.8,1.6-1.1c0.6-0.3,1.3-0.4,2.1-0.4c0.9,0,1.6,0.2,2.3,0.5s1.1,0.7,1.5,1.2c0.4,0.5,0.7,1.1,0.9,1.7
		c0.2,0.6,0.3,1.3,0.3,1.9v0.7H559.5z M565.5,346.2c0-0.4-0.1-0.8-0.2-1.2c-0.1-0.4-0.3-0.7-0.5-0.9c-0.2-0.3-0.5-0.5-0.9-0.6
		c-0.4-0.1-0.8-0.2-1.3-0.2c-0.5,0-0.9,0.1-1.3,0.3c-0.4,0.2-0.7,0.4-1,0.7c-0.3,0.3-0.5,0.6-0.6,0.9c-0.1,0.3-0.2,0.7-0.2,1H565.5z
		"/>
	<path class="st0" d="M575.2,344.5c-0.2-0.3-0.5-0.5-0.8-0.7c-0.3-0.2-0.7-0.3-1.2-0.3c-0.5,0-0.8,0.1-1.2,0.3
		c-0.3,0.2-0.5,0.5-0.5,0.8c0,0.3,0.1,0.5,0.3,0.7c0.2,0.2,0.4,0.3,0.7,0.4c0.3,0.1,0.5,0.2,0.8,0.3c0.3,0.1,0.6,0.1,0.8,0.1
		c0.4,0.1,0.8,0.2,1.2,0.4c0.4,0.1,0.7,0.3,0.9,0.6c0.3,0.2,0.5,0.5,0.6,0.8c0.1,0.3,0.2,0.7,0.2,1.2c0,0.6-0.1,1-0.4,1.4
		c-0.2,0.4-0.5,0.7-0.9,1c-0.4,0.3-0.8,0.4-1.3,0.6c-0.5,0.1-1,0.2-1.5,0.2c-0.8,0-1.6-0.1-2.2-0.4c-0.6-0.3-1.2-0.7-1.7-1.4
		l1.4-1.2c0.3,0.3,0.7,0.6,1,0.8c0.4,0.2,0.8,0.4,1.4,0.4c0.2,0,0.5,0,0.7-0.1c0.2,0,0.5-0.1,0.7-0.2c0.2-0.1,0.3-0.2,0.5-0.4
		c0.1-0.2,0.2-0.4,0.2-0.6c0-0.3-0.1-0.5-0.3-0.7c-0.2-0.2-0.4-0.3-0.6-0.4c-0.2-0.1-0.5-0.2-0.8-0.3c-0.3-0.1-0.5-0.1-0.7-0.2
		c-0.4-0.1-0.8-0.2-1.2-0.3c-0.4-0.1-0.7-0.3-1-0.5c-0.3-0.2-0.5-0.5-0.7-0.8c-0.2-0.3-0.3-0.7-0.3-1.2c0-0.5,0.1-1,0.3-1.4
		c0.2-0.4,0.5-0.7,0.9-1c0.4-0.3,0.8-0.4,1.2-0.6c0.5-0.1,0.9-0.2,1.4-0.2c0.7,0,1.3,0.1,1.9,0.4c0.6,0.3,1.1,0.7,1.5,1.3
		L575.2,344.5z"/>
	<path class="st0" d="M598.7,352H596l-1.8-2c-0.6,0.8-1.3,1.3-2,1.8c-0.7,0.4-1.6,0.6-2.6,0.6c-0.8,0-1.6-0.1-2.2-0.4
		c-0.6-0.2-1.1-0.6-1.5-1c-0.4-0.4-0.7-0.9-0.9-1.4c-0.2-0.5-0.3-1-0.3-1.6c0-0.5,0.1-1,0.3-1.4c0.2-0.4,0.4-0.8,0.7-1.2
		c0.3-0.4,0.7-0.7,1.1-1c0.4-0.3,0.8-0.5,1.3-0.7c-0.5-0.5-0.9-1-1.2-1.6c-0.3-0.5-0.5-1.2-0.5-1.9c0-0.6,0.1-1.1,0.3-1.5
		c0.2-0.4,0.5-0.8,0.9-1.1c0.4-0.3,0.8-0.5,1.3-0.7c0.5-0.2,1-0.2,1.5-0.2c0.5,0,1,0.1,1.5,0.2c0.5,0.1,0.9,0.4,1.2,0.6
		c0.4,0.3,0.6,0.6,0.8,1.1c0.2,0.4,0.3,0.9,0.3,1.5c0,0.5-0.1,0.9-0.3,1.3c-0.2,0.4-0.4,0.7-0.7,1.1c-0.3,0.3-0.6,0.6-1,0.8
		c-0.4,0.2-0.7,0.5-1.1,0.7l3,3.1l1.9-3.1h2.3l-2.9,4.5L598.7,352z M589.3,344.9c-0.3,0.2-0.6,0.4-0.9,0.6c-0.3,0.2-0.6,0.4-0.8,0.7
		c-0.2,0.2-0.4,0.5-0.6,0.8c-0.1,0.3-0.2,0.6-0.2,1c0,0.4,0.1,0.7,0.2,1c0.2,0.3,0.4,0.6,0.6,0.8c0.3,0.2,0.6,0.4,0.9,0.6
		c0.3,0.1,0.7,0.2,1,0.2c0.4,0,0.7-0.1,1-0.2c0.3-0.1,0.6-0.3,0.9-0.4c0.3-0.2,0.5-0.4,0.8-0.6c0.2-0.2,0.4-0.5,0.6-0.7L589.3,344.9
		z M592.1,340.2c0-0.5-0.2-0.9-0.5-1.2c-0.3-0.3-0.8-0.4-1.3-0.4c-0.5,0-1,0.1-1.4,0.5c-0.4,0.3-0.6,0.7-0.6,1.3
		c0,0.3,0,0.5,0.1,0.7c0.1,0.2,0.2,0.4,0.4,0.7c0.1,0.2,0.3,0.4,0.5,0.6s0.3,0.4,0.5,0.5c0.3-0.1,0.5-0.3,0.8-0.5
		c0.3-0.2,0.5-0.4,0.8-0.6s0.4-0.4,0.6-0.7C592.1,340.8,592.1,340.5,592.1,340.2"/>
	<rect x="386.7" y="360.1" class="st0" width="2" height="15"/>
	<path class="st0" d="M392,365h1.9v1.5h0c0.2-0.5,0.7-1,1.2-1.3c0.6-0.3,1.3-0.5,2-0.5c0.5,0,0.9,0.1,1.4,0.2
		c0.4,0.1,0.8,0.4,1.2,0.7c0.3,0.3,0.6,0.7,0.8,1.2c0.2,0.5,0.3,1.1,0.3,1.7v6.4H399v-5.9c0-0.5-0.1-0.9-0.2-1.2
		c-0.1-0.3-0.3-0.6-0.5-0.8c-0.2-0.2-0.5-0.4-0.7-0.4c-0.3-0.1-0.6-0.1-0.9-0.1c-0.4,0-0.8,0.1-1.1,0.2c-0.3,0.1-0.6,0.3-0.9,0.6
		c-0.3,0.3-0.5,0.6-0.6,1c-0.1,0.4-0.2,0.9-0.2,1.5v5.2H392V365z"/>
	<polygon class="st0" points="402.2,365 404.4,365 407.4,372.7 410.2,365 412.3,365 408.3,375 406.3,375 	"/>
	<path class="st0" d="M415.1,370.7c0,0.4,0.1,0.8,0.3,1.2c0.2,0.4,0.4,0.7,0.7,0.9c0.3,0.3,0.7,0.5,1.1,0.6c0.4,0.1,0.8,0.2,1.3,0.2
		c0.6,0,1.1-0.1,1.5-0.4c0.4-0.3,0.8-0.6,1.2-1.1l1.4,1.1c-1.1,1.4-2.5,2-4.4,2c-0.8,0-1.5-0.1-2.1-0.4c-0.6-0.3-1.2-0.6-1.6-1.1
		c-0.4-0.5-0.8-1-1-1.7c-0.2-0.6-0.4-1.3-0.4-2.1c0-0.7,0.1-1.4,0.4-2.1c0.3-0.6,0.6-1.2,1.1-1.7c0.5-0.5,1-0.8,1.6-1.1
		c0.6-0.3,1.3-0.4,2.1-0.4c0.9,0,1.6,0.2,2.3,0.5c0.6,0.3,1.1,0.7,1.5,1.2c0.4,0.5,0.7,1.1,0.9,1.7c0.2,0.6,0.3,1.3,0.3,1.9v0.7
		H415.1z M421.1,369.2c0-0.4-0.1-0.8-0.2-1.2c-0.1-0.4-0.3-0.7-0.5-0.9c-0.2-0.3-0.5-0.5-0.9-0.6c-0.4-0.1-0.8-0.2-1.3-0.2
		c-0.5,0-0.9,0.1-1.3,0.3c-0.4,0.2-0.7,0.4-1,0.7c-0.3,0.3-0.5,0.6-0.6,0.9c-0.1,0.3-0.2,0.7-0.2,1H421.1z"/>
	<path class="st0" d="M430.7,367.5c-0.2-0.3-0.5-0.5-0.8-0.7c-0.3-0.2-0.7-0.3-1.2-0.3c-0.4,0-0.8,0.1-1.2,0.3
		c-0.3,0.2-0.5,0.5-0.5,0.8c0,0.3,0.1,0.5,0.3,0.7c0.2,0.2,0.4,0.3,0.7,0.4c0.3,0.1,0.5,0.2,0.8,0.3c0.3,0.1,0.6,0.1,0.8,0.1
		c0.4,0.1,0.8,0.2,1.2,0.4c0.4,0.1,0.7,0.3,0.9,0.6c0.3,0.2,0.5,0.5,0.6,0.8c0.1,0.3,0.2,0.7,0.2,1.2c0,0.6-0.1,1-0.4,1.4
		c-0.2,0.4-0.5,0.7-0.9,1c-0.4,0.3-0.8,0.4-1.3,0.6c-0.5,0.1-1,0.2-1.5,0.2c-0.8,0-1.6-0.1-2.2-0.4c-0.6-0.3-1.2-0.7-1.7-1.4
		l1.4-1.2c0.3,0.3,0.7,0.6,1,0.8c0.4,0.2,0.8,0.4,1.4,0.4c0.2,0,0.5,0,0.7-0.1c0.2-0.1,0.5-0.1,0.7-0.2c0.2-0.1,0.3-0.2,0.5-0.4
		c0.1-0.2,0.2-0.3,0.2-0.6c0-0.3-0.1-0.5-0.3-0.7c-0.2-0.2-0.4-0.3-0.6-0.4c-0.2-0.1-0.5-0.2-0.8-0.3c-0.3-0.1-0.5-0.1-0.7-0.2
		c-0.4-0.1-0.8-0.2-1.2-0.3c-0.4-0.1-0.7-0.3-1-0.5c-0.3-0.2-0.5-0.5-0.7-0.8c-0.2-0.3-0.3-0.7-0.3-1.2c0-0.5,0.1-1,0.3-1.4
		c0.2-0.4,0.5-0.7,0.9-1c0.4-0.3,0.8-0.4,1.2-0.6c0.5-0.1,0.9-0.2,1.4-0.2c0.7,0,1.3,0.1,1.9,0.4c0.6,0.3,1.1,0.7,1.5,1.3
		L430.7,367.5z"/>
	<path class="st0" d="M440.5,366.6h-2.7v4.5c0,0.3,0,0.6,0,0.8c0,0.3,0.1,0.5,0.2,0.7c0.1,0.2,0.2,0.4,0.4,0.5
		c0.2,0.1,0.5,0.2,0.8,0.2c0.2,0,0.5,0,0.7-0.1c0.2,0,0.5-0.1,0.7-0.2v1.7c-0.2,0.1-0.5,0.2-0.9,0.3c-0.4,0.1-0.6,0.1-0.8,0.1
		c-0.7,0-1.3-0.1-1.7-0.3c-0.4-0.2-0.7-0.5-0.9-0.8c-0.2-0.3-0.3-0.7-0.3-1.1c0-0.4-0.1-0.8-0.1-1.2v-5.2h-2.2V365h2.2v-2.8h1.9v2.8
		h2.7V366.6z"/>
	<path class="st0" d="M442.7,365h1.8v1.6h0c0-0.1,0.1-0.3,0.3-0.5c0.2-0.2,0.4-0.4,0.7-0.6c0.3-0.2,0.6-0.3,1-0.5
		c0.4-0.1,0.8-0.2,1.2-0.2c0.7,0,1.4,0.2,1.9,0.5c0.5,0.3,0.9,0.8,1.2,1.4c0.3-0.6,0.8-1.1,1.4-1.4c0.6-0.3,1.2-0.5,1.8-0.5
		c0.8,0,1.4,0.1,1.9,0.4c0.5,0.3,0.9,0.6,1.2,1c0.3,0.4,0.5,0.9,0.6,1.4c0.1,0.5,0.2,1.1,0.2,1.6v5.8h-1.9v-5.6c0-0.4,0-0.7-0.1-1.1
		c-0.1-0.4-0.2-0.7-0.3-0.9c-0.2-0.3-0.4-0.5-0.7-0.6c-0.3-0.2-0.7-0.2-1.1-0.2c-0.9,0-1.6,0.3-2,0.8c-0.4,0.6-0.6,1.3-0.6,2.2v5.5
		h-1.9v-5.2c0-0.5,0-0.9-0.1-1.3c-0.1-0.4-0.1-0.7-0.3-1c-0.1-0.3-0.4-0.5-0.6-0.7c-0.3-0.2-0.6-0.2-1.1-0.2c-0.3,0-0.7,0.1-1,0.2
		c-0.3,0.1-0.6,0.3-0.8,0.6c-0.2,0.3-0.4,0.6-0.6,1c-0.1,0.4-0.2,0.9-0.2,1.5v5.2h-1.9V365z"/>
	<path class="st0" d="M462.1,370.7c0,0.4,0.1,0.8,0.3,1.2c0.2,0.4,0.4,0.7,0.8,0.9c0.3,0.3,0.7,0.5,1.1,0.6c0.4,0.1,0.8,0.2,1.3,0.2
		c0.6,0,1.1-0.1,1.5-0.4c0.4-0.3,0.8-0.6,1.2-1.1l1.4,1.1c-1.1,1.4-2.5,2-4.4,2c-0.8,0-1.5-0.1-2.1-0.4c-0.6-0.3-1.2-0.6-1.6-1.1
		c-0.4-0.5-0.8-1-1-1.7c-0.2-0.6-0.4-1.3-0.4-2.1c0-0.7,0.1-1.4,0.4-2.1c0.3-0.6,0.6-1.2,1.1-1.7c0.5-0.5,1-0.8,1.6-1.1
		c0.6-0.3,1.3-0.4,2.1-0.4c0.9,0,1.6,0.2,2.3,0.5c0.6,0.3,1.1,0.7,1.5,1.2c0.4,0.5,0.7,1.1,0.9,1.7c0.2,0.6,0.3,1.3,0.3,1.9v0.7
		H462.1z M468.1,369.2c0-0.4-0.1-0.8-0.2-1.2c-0.1-0.4-0.3-0.7-0.5-0.9c-0.2-0.3-0.5-0.5-0.9-0.6c-0.4-0.1-0.8-0.2-1.3-0.2
		c-0.5,0-0.9,0.1-1.3,0.3c-0.4,0.2-0.7,0.4-1,0.7c-0.3,0.3-0.5,0.6-0.6,0.9c-0.1,0.3-0.2,0.7-0.2,1H468.1z"/>
	<path class="st0" d="M472.5,365h1.9v1.5h0c0.2-0.5,0.7-1,1.2-1.3c0.6-0.3,1.3-0.5,2.1-0.5c0.5,0,0.9,0.1,1.4,0.2
		c0.4,0.1,0.8,0.4,1.2,0.7c0.3,0.3,0.6,0.7,0.8,1.2c0.2,0.5,0.3,1.1,0.3,1.7v6.4h-1.9v-5.9c0-0.5-0.1-0.9-0.2-1.2
		c-0.1-0.3-0.3-0.6-0.5-0.8c-0.2-0.2-0.5-0.4-0.7-0.4c-0.3-0.1-0.6-0.1-0.9-0.1c-0.4,0-0.8,0.1-1.1,0.2c-0.3,0.1-0.6,0.3-0.9,0.6
		c-0.3,0.3-0.5,0.6-0.6,1c-0.1,0.4-0.2,0.9-0.2,1.5v5.2h-1.9V365z"/>
	<path class="st0" d="M489.7,366.6H487v4.5c0,0.3,0,0.6,0,0.8c0,0.3,0.1,0.5,0.2,0.7c0.1,0.2,0.2,0.4,0.4,0.5
		c0.2,0.1,0.5,0.2,0.8,0.2c0.2,0,0.5,0,0.7-0.1c0.2,0,0.5-0.1,0.7-0.2v1.7c-0.2,0.1-0.5,0.2-0.9,0.3c-0.4,0.1-0.6,0.1-0.8,0.1
		c-0.7,0-1.3-0.1-1.7-0.3c-0.4-0.2-0.7-0.5-0.9-0.8c-0.2-0.3-0.3-0.7-0.3-1.1c0-0.4-0.1-0.8-0.1-1.2v-5.2h-2.2V365h2.2v-2.8h1.9v2.8
		h2.7V366.6z"/>
	<path class="st0" d="M497.6,367.5c-0.2-0.3-0.5-0.5-0.8-0.7c-0.3-0.2-0.7-0.3-1.2-0.3c-0.5,0-0.8,0.1-1.2,0.3
		c-0.3,0.2-0.5,0.5-0.5,0.8c0,0.3,0.1,0.5,0.3,0.7c0.2,0.2,0.4,0.3,0.7,0.4c0.3,0.1,0.5,0.2,0.8,0.3c0.3,0.1,0.5,0.1,0.8,0.1
		c0.4,0.1,0.8,0.2,1.2,0.4c0.4,0.1,0.7,0.3,0.9,0.6c0.3,0.2,0.5,0.5,0.6,0.8c0.1,0.3,0.2,0.7,0.2,1.2c0,0.6-0.1,1-0.4,1.4
		c-0.2,0.4-0.5,0.7-0.9,1c-0.4,0.3-0.8,0.4-1.3,0.6c-0.5,0.1-1,0.2-1.5,0.2c-0.8,0-1.6-0.1-2.2-0.4c-0.6-0.3-1.2-0.7-1.7-1.4
		l1.4-1.2c0.3,0.3,0.7,0.6,1,0.8c0.4,0.2,0.8,0.4,1.4,0.4c0.2,0,0.5,0,0.7-0.1c0.2-0.1,0.5-0.1,0.7-0.2c0.2-0.1,0.3-0.2,0.5-0.4
		c0.1-0.2,0.2-0.3,0.2-0.6c0-0.3-0.1-0.5-0.3-0.7c-0.2-0.2-0.4-0.3-0.6-0.4c-0.2-0.1-0.5-0.2-0.8-0.3c-0.3-0.1-0.5-0.1-0.7-0.2
		c-0.4-0.1-0.8-0.2-1.2-0.3c-0.4-0.1-0.7-0.3-1-0.5c-0.3-0.2-0.5-0.5-0.7-0.8c-0.2-0.3-0.3-0.7-0.3-1.2c0-0.5,0.1-1,0.3-1.4
		c0.2-0.4,0.5-0.7,0.9-1c0.4-0.3,0.8-0.4,1.2-0.6c0.5-0.1,0.9-0.2,1.4-0.2c0.7,0,1.3,0.1,1.9,0.4c0.6,0.3,1.1,0.7,1.5,1.3
		L497.6,367.5z"/>
	<path class="st0" d="M518.5,363.3c-0.4-0.5-1-1-1.6-1.3c-0.6-0.3-1.3-0.4-2-0.4c-0.8,0-1.6,0.2-2.3,0.5c-0.7,0.3-1.3,0.8-1.8,1.3
		c-0.5,0.5-0.9,1.2-1.1,1.9c-0.3,0.7-0.4,1.5-0.4,2.4c0,0.8,0.1,1.5,0.4,2.2c0.3,0.7,0.6,1.3,1.1,1.9c0.5,0.5,1.1,1,1.8,1.3
		c0.7,0.3,1.5,0.5,2.3,0.5c0.9,0,1.6-0.2,2.3-0.5c0.6-0.4,1.2-0.8,1.6-1.5l1.7,1.3c-0.1,0.2-0.3,0.4-0.6,0.7
		c-0.3,0.3-0.7,0.6-1.1,0.9c-0.5,0.3-1,0.5-1.7,0.8c-0.7,0.2-1.4,0.3-2.3,0.3c-1.2,0-2.2-0.2-3.2-0.7c-1-0.4-1.8-1-2.4-1.8
		c-0.7-0.7-1.2-1.6-1.5-2.5s-0.5-1.9-0.5-2.8c0-1.2,0.2-2.2,0.6-3.2c0.4-1,0.9-1.8,1.6-2.5c0.7-0.7,1.5-1.3,2.5-1.7
		c1-0.4,2-0.6,3.2-0.6c1,0,2,0.2,2.9,0.6c1,0.4,1.7,1,2.3,1.8L518.5,363.3z"/>
	<path class="st0" d="M521.8,370c0-0.7,0.1-1.4,0.4-2c0.3-0.6,0.7-1.2,1.1-1.7c0.5-0.5,1-0.9,1.7-1.1c0.6-0.3,1.3-0.4,2.1-0.4
		c0.7,0,1.4,0.1,2.1,0.4c0.6,0.3,1.2,0.7,1.7,1.1c0.5,0.5,0.9,1,1.1,1.7c0.3,0.6,0.4,1.3,0.4,2c0,0.7-0.1,1.4-0.4,2.1
		s-0.7,1.2-1.1,1.7c-0.5,0.5-1,0.8-1.7,1.1c-0.6,0.3-1.3,0.4-2.1,0.4c-0.7,0-1.4-0.1-2.1-0.4c-0.6-0.3-1.2-0.6-1.7-1.1
		c-0.5-0.5-0.9-1-1.1-1.7S521.8,370.7,521.8,370 M523.9,370c0,0.5,0.1,1,0.2,1.4c0.2,0.4,0.4,0.8,0.7,1.1c0.3,0.3,0.6,0.5,1,0.7
		c0.4,0.2,0.9,0.3,1.4,0.3s1-0.1,1.4-0.3c0.4-0.2,0.8-0.4,1-0.7c0.3-0.3,0.5-0.7,0.7-1.1c0.2-0.4,0.2-0.9,0.2-1.4
		c0-0.5-0.1-1-0.2-1.4c-0.2-0.4-0.4-0.8-0.7-1.1c-0.3-0.3-0.6-0.5-1-0.7c-0.4-0.2-0.9-0.3-1.4-0.3s-1,0.1-1.4,0.3
		c-0.4,0.2-0.8,0.4-1,0.7c-0.3,0.3-0.5,0.7-0.7,1.1C524,369,523.9,369.5,523.9,370"/>
	<path class="st0" d="M534.9,365h1.8v1.6h0c0-0.1,0.2-0.3,0.3-0.5c0.2-0.2,0.4-0.4,0.7-0.6c0.3-0.2,0.6-0.3,1-0.5
		c0.4-0.1,0.8-0.2,1.2-0.2c0.7,0,1.4,0.2,1.9,0.5c0.5,0.3,0.9,0.8,1.2,1.4c0.3-0.6,0.8-1.1,1.4-1.4c0.6-0.3,1.2-0.5,1.8-0.5
		c0.8,0,1.4,0.1,1.9,0.4c0.5,0.3,0.9,0.6,1.2,1c0.3,0.4,0.5,0.9,0.6,1.4c0.1,0.5,0.2,1.1,0.2,1.6v5.8h-1.9v-5.6c0-0.4,0-0.7-0.1-1.1
		c0-0.4-0.1-0.7-0.3-0.9c-0.2-0.3-0.4-0.5-0.7-0.6c-0.3-0.2-0.7-0.2-1.1-0.2c-0.9,0-1.6,0.3-2,0.8c-0.4,0.6-0.6,1.3-0.6,2.2v5.5
		h-1.9v-5.2c0-0.5,0-0.9-0.1-1.3c-0.1-0.4-0.1-0.7-0.3-1c-0.1-0.3-0.4-0.5-0.6-0.7c-0.3-0.2-0.6-0.2-1.1-0.2c-0.3,0-0.7,0.1-1,0.2
		c-0.3,0.1-0.6,0.3-0.8,0.6c-0.2,0.3-0.4,0.6-0.6,1c-0.1,0.4-0.2,0.9-0.2,1.5v5.2h-1.9V365z"/>
	<path class="st0" d="M552.9,365h1.8v1.6h0c0-0.1,0.1-0.3,0.3-0.5c0.2-0.2,0.4-0.4,0.7-0.6c0.3-0.2,0.6-0.3,1-0.5
		c0.4-0.1,0.8-0.2,1.2-0.2c0.7,0,1.4,0.2,1.9,0.5c0.5,0.3,0.9,0.8,1.2,1.4c0.3-0.6,0.8-1.1,1.4-1.4c0.6-0.3,1.2-0.5,1.8-0.5
		c0.8,0,1.4,0.1,1.9,0.4c0.5,0.3,0.9,0.6,1.2,1c0.3,0.4,0.5,0.9,0.6,1.4c0.1,0.5,0.2,1.1,0.2,1.6v5.8h-1.9v-5.6c0-0.4,0-0.7-0.1-1.1
		c0-0.4-0.1-0.7-0.3-0.9c-0.2-0.3-0.4-0.5-0.7-0.6c-0.3-0.2-0.7-0.2-1.1-0.2c-0.9,0-1.6,0.3-2,0.8c-0.4,0.6-0.6,1.3-0.6,2.2v5.5
		h-1.9v-5.2c0-0.5,0-0.9-0.1-1.3c0-0.4-0.1-0.7-0.3-1c-0.1-0.3-0.4-0.5-0.6-0.7c-0.3-0.2-0.6-0.2-1.1-0.2c-0.3,0-0.7,0.1-1,0.2
		c-0.3,0.1-0.6,0.3-0.8,0.6c-0.2,0.3-0.4,0.6-0.6,1c-0.1,0.4-0.2,0.9-0.2,1.5v5.2h-1.9V365z"/>
	<path class="st0" d="M570.5,361.4c0-0.4,0.1-0.7,0.4-1c0.3-0.3,0.6-0.4,1-0.4c0.4,0,0.7,0.1,1,0.4c0.3,0.3,0.4,0.6,0.4,1
		c0,0.4-0.1,0.7-0.4,1c-0.3,0.3-0.6,0.4-1,0.4c-0.4,0-0.7-0.1-1-0.4C570.7,362.1,570.5,361.8,570.5,361.4 M571,365h1.9v10H571V365z"
		/>
	<path class="st0" d="M581.2,367.5c-0.2-0.3-0.5-0.5-0.8-0.7c-0.3-0.2-0.7-0.3-1.2-0.3c-0.4,0-0.8,0.1-1.2,0.3
		c-0.3,0.2-0.5,0.5-0.5,0.8c0,0.3,0.1,0.5,0.3,0.7c0.2,0.2,0.4,0.3,0.7,0.4c0.3,0.1,0.5,0.2,0.8,0.3c0.3,0.1,0.6,0.1,0.8,0.1
		c0.4,0.1,0.8,0.2,1.2,0.4c0.4,0.1,0.7,0.3,0.9,0.6c0.3,0.2,0.5,0.5,0.6,0.8c0.1,0.3,0.2,0.7,0.2,1.2c0,0.6-0.1,1-0.4,1.4
		c-0.2,0.4-0.5,0.7-0.9,1c-0.4,0.3-0.8,0.4-1.3,0.6c-0.5,0.1-1,0.2-1.5,0.2c-0.8,0-1.6-0.1-2.2-0.4c-0.6-0.3-1.2-0.7-1.7-1.4
		l1.4-1.2c0.3,0.3,0.7,0.6,1,0.8c0.4,0.2,0.8,0.4,1.4,0.4c0.2,0,0.5,0,0.7-0.1c0.2-0.1,0.5-0.1,0.7-0.2c0.2-0.1,0.3-0.2,0.5-0.4
		c0.1-0.2,0.2-0.3,0.2-0.6c0-0.3-0.1-0.5-0.3-0.7c-0.2-0.2-0.4-0.3-0.6-0.4c-0.2-0.1-0.5-0.2-0.8-0.3c-0.3-0.1-0.5-0.1-0.7-0.2
		c-0.4-0.1-0.8-0.2-1.2-0.3c-0.4-0.1-0.7-0.3-1-0.5c-0.3-0.2-0.5-0.5-0.7-0.8c-0.2-0.3-0.3-0.7-0.3-1.2c0-0.5,0.1-1,0.3-1.4
		c0.2-0.4,0.5-0.7,0.9-1c0.4-0.3,0.8-0.4,1.2-0.6c0.5-0.1,0.9-0.2,1.4-0.2c0.7,0,1.3,0.1,1.9,0.4c0.6,0.3,1.1,0.7,1.5,1.3
		L581.2,367.5z"/>
	<path class="st0" d="M590.7,367.5c-0.2-0.3-0.5-0.5-0.8-0.7c-0.3-0.2-0.7-0.3-1.2-0.3c-0.5,0-0.8,0.1-1.2,0.3
		c-0.3,0.2-0.5,0.5-0.5,0.8c0,0.3,0.1,0.5,0.3,0.7c0.2,0.2,0.4,0.3,0.7,0.4c0.3,0.1,0.5,0.2,0.8,0.3c0.3,0.1,0.6,0.1,0.8,0.1
		c0.4,0.1,0.8,0.2,1.2,0.4c0.4,0.1,0.7,0.3,0.9,0.6c0.3,0.2,0.5,0.5,0.6,0.8c0.1,0.3,0.2,0.7,0.2,1.2c0,0.6-0.1,1-0.4,1.4
		c-0.2,0.4-0.5,0.7-0.9,1c-0.4,0.3-0.8,0.4-1.3,0.6c-0.5,0.1-1,0.2-1.5,0.2c-0.8,0-1.6-0.1-2.2-0.4c-0.6-0.3-1.2-0.7-1.7-1.4
		l1.4-1.2c0.3,0.3,0.7,0.6,1,0.8c0.4,0.2,0.8,0.4,1.4,0.4c0.2,0,0.5,0,0.7-0.1s0.5-0.1,0.7-0.2c0.2-0.1,0.3-0.2,0.5-0.4
		c0.1-0.2,0.2-0.3,0.2-0.6c0-0.3-0.1-0.5-0.3-0.7c-0.2-0.2-0.4-0.3-0.6-0.4c-0.2-0.1-0.5-0.2-0.8-0.3c-0.3-0.1-0.5-0.1-0.7-0.2
		c-0.4-0.1-0.8-0.2-1.2-0.3c-0.4-0.1-0.7-0.3-1-0.5c-0.3-0.2-0.5-0.5-0.7-0.8c-0.2-0.3-0.3-0.7-0.3-1.2c0-0.5,0.1-1,0.3-1.4
		c0.2-0.4,0.5-0.7,0.9-1c0.4-0.3,0.8-0.4,1.2-0.6c0.5-0.1,0.9-0.2,1.4-0.2c0.7,0,1.3,0.1,1.9,0.4c0.6,0.3,1.1,0.7,1.5,1.3
		L590.7,367.5z"/>
	<path class="st0" d="M594.3,361.4c0-0.4,0.1-0.7,0.4-1c0.3-0.3,0.6-0.4,1-0.4c0.4,0,0.7,0.1,1,0.4c0.3,0.3,0.4,0.6,0.4,1
		c0,0.4-0.1,0.7-0.4,1c-0.3,0.3-0.6,0.4-1,0.4c-0.4,0-0.7-0.1-1-0.4C594.5,362.1,594.3,361.8,594.3,361.4 M594.8,365h1.9v10h-1.9
		V365z"/>
	<path class="st0" d="M599.1,370c0-0.7,0.1-1.4,0.4-2c0.3-0.6,0.7-1.2,1.1-1.7c0.5-0.5,1-0.9,1.7-1.1c0.6-0.3,1.3-0.4,2.1-0.4
		c0.7,0,1.4,0.1,2.1,0.4c0.6,0.3,1.2,0.7,1.7,1.1c0.5,0.5,0.9,1,1.1,1.7c0.3,0.6,0.4,1.3,0.4,2c0,0.7-0.1,1.4-0.4,2.1
		c-0.3,0.6-0.7,1.2-1.1,1.7c-0.5,0.5-1,0.8-1.7,1.1c-0.6,0.3-1.3,0.4-2.1,0.4c-0.7,0-1.4-0.1-2.1-0.4c-0.6-0.3-1.2-0.6-1.7-1.1
		c-0.5-0.5-0.9-1-1.1-1.7C599.2,371.4,599.1,370.7,599.1,370 M601.1,370c0,0.5,0.1,1,0.2,1.4c0.2,0.4,0.4,0.8,0.7,1.1
		c0.3,0.3,0.6,0.5,1,0.7c0.4,0.2,0.9,0.3,1.4,0.3c0.5,0,1-0.1,1.4-0.3c0.4-0.2,0.8-0.4,1-0.7c0.3-0.3,0.5-0.7,0.7-1.1
		c0.2-0.4,0.2-0.9,0.2-1.4c0-0.5-0.1-1-0.2-1.4c-0.2-0.4-0.4-0.8-0.7-1.1c-0.3-0.3-0.6-0.5-1-0.7c-0.4-0.2-0.9-0.3-1.4-0.3
		c-0.5,0-1,0.1-1.4,0.3c-0.4,0.2-0.8,0.4-1,0.7c-0.3,0.3-0.5,0.7-0.7,1.1C601.2,369,601.1,369.5,601.1,370"/>
	<path class="st0" d="M612.1,365h1.9v1.5h0c0.2-0.5,0.7-1,1.2-1.3c0.6-0.3,1.3-0.5,2-0.5c0.5,0,0.9,0.1,1.4,0.2
		c0.4,0.1,0.8,0.4,1.2,0.7c0.3,0.3,0.6,0.7,0.8,1.2c0.2,0.5,0.3,1.1,0.3,1.7v6.4h-1.9v-5.9c0-0.5-0.1-0.9-0.2-1.2
		c-0.1-0.3-0.3-0.6-0.5-0.8c-0.2-0.2-0.5-0.4-0.7-0.4c-0.3-0.1-0.6-0.1-0.9-0.1c-0.4,0-0.8,0.1-1.1,0.2c-0.3,0.1-0.6,0.3-0.9,0.6
		c-0.3,0.3-0.5,0.6-0.6,1c-0.1,0.4-0.2,0.9-0.2,1.5v5.2h-1.9V365z"/>
	<path class="st0" d="M407.4,270h9.6l22.8,52.5h-13l-4.5-11.1h-20.4l-4.4,11.1h-12.7L407.4,270z M411.9,285.3l-6.4,16.3h12.8
		L411.9,285.3z"/>
	<path class="st0" d="M471.1,282.9c-0.9-1.2-2.2-2.1-3.8-2.6c-1.6-0.6-3.1-0.9-4.6-0.9c-0.8,0-1.7,0.1-2.6,0.3
		c-0.9,0.2-1.7,0.5-2.5,0.9c-0.8,0.4-1.4,1-1.9,1.7c-0.5,0.7-0.7,1.5-0.7,2.5c0,1.6,0.6,2.8,1.8,3.6c1.2,0.8,2.7,1.6,4.5,2.1
		c1.8,0.6,3.7,1.2,5.8,1.8c2.1,0.6,4,1.4,5.8,2.5c1.8,1.1,3.3,2.5,4.5,4.4c1.2,1.8,1.8,4.3,1.8,7.3c0,2.9-0.5,5.5-1.6,7.6
		c-1.1,2.2-2.6,4-4.4,5.4c-1.9,1.4-4,2.5-6.4,3.2c-2.4,0.7-5,1-7.7,1c-3.4,0-6.6-0.5-9.5-1.6c-2.9-1-5.6-2.7-8.2-5l8.2-9
		c1.2,1.6,2.7,2.8,4.5,3.7c1.8,0.9,3.7,1.3,5.6,1.3c0.9,0,1.9-0.1,2.9-0.3c1-0.2,1.8-0.6,2.6-1c0.8-0.4,1.4-1,1.9-1.7
		c0.5-0.7,0.7-1.5,0.7-2.4c0-1.6-0.6-2.8-1.8-3.7c-1.2-0.9-2.7-1.7-4.6-2.3c-1.8-0.6-3.8-1.3-5.9-1.9c-2.1-0.6-4.1-1.5-5.9-2.6
		c-1.8-1.1-3.3-2.5-4.6-4.3c-1.2-1.8-1.8-4.1-1.8-7c0-2.8,0.6-5.3,1.7-7.4c1.1-2.1,2.6-3.9,4.4-5.3c1.9-1.4,4-2.5,6.4-3.2
		c2.4-0.7,4.9-1.1,7.5-1.1c3,0,5.8,0.4,8.6,1.3c2.8,0.8,5.3,2.2,7.5,4.2L471.1,282.9z"/>
	<rect x="486.4" y="270" class="st0" width="11.6" height="52.5"/>
	<path class="st0" d="M542,283.7c-1.1-1.4-2.5-2.4-4.2-3.2c-1.7-0.7-3.6-1.1-5.7-1.1c-2.2,0-4.2,0.4-6,1.3c-1.9,0.8-3.5,2-4.8,3.5
		c-1.4,1.5-2.4,3.3-3.2,5.4c-0.8,2.1-1.1,4.3-1.1,6.7c0,2.5,0.4,4.7,1.1,6.8c0.8,2.1,1.8,3.8,3.2,5.3c1.3,1.5,2.9,2.7,4.7,3.5
		c1.8,0.8,3.7,1.3,5.8,1.3c2.4,0,4.5-0.5,6.3-1.5c1.8-1,3.3-2.4,4.5-4.1l9.6,7.2c-2.2,3.1-5,5.4-8.4,6.9c-3.4,1.5-6.9,2.2-10.5,2.2
		c-4.1,0-7.9-0.6-11.3-1.9c-3.5-1.3-6.4-3.1-9-5.5c-2.5-2.4-4.5-5.3-5.9-8.7c-1.4-3.4-2.1-7.2-2.1-11.4s0.7-8,2.1-11.4
		c1.4-3.4,3.4-6.3,5.9-8.7c2.5-2.4,5.5-4.2,9-5.5c3.5-1.3,7.2-1.9,11.3-1.9c1.5,0,3,0.1,4.6,0.4c1.6,0.3,3.2,0.7,4.7,1.3
		c1.6,0.6,3.1,1.4,4.5,2.4c1.4,1,2.7,2.2,3.9,3.6L542,283.7z"/>
</g>
</svg>
