<svg  width='150px' height='50px'  id="Layer_1" data-name="Layer 1" xmlns="http://www.w3.org/2000/svg" viewBox="0 0 200 60"><defs><style>.cls-1{fill:#d0d0d0;}</style></defs><title>Nasdaq-Logo</title><polygon class="cls-1" points="10.19 17.59 10.19 42.44 19.04 42.44 19.04 30.97 30.88 42.62 39.1 42.62 39.1 17.59 30.52 17.59 30.52 29.34 18.68 17.59 10.19 17.59"/><path class="cls-1" d="M63.41,42.62h9.67l-11.66-25H51.93L40.1,42.53h9.66l1.17-2.77H62.19ZM54.05,32.35l2.49-5.9,2.51,5.9Z"/><path class="cls-1" d="M151.15,42.62h9.67l-11.65-25h-9.49L127.84,42.53h9.67l1.17-2.77h11.26ZM141.8,32.35l2.49-5.9,2.51,5.9Z"/><path class="cls-1" d="M98.47,17.32v7.32H80.76v1.54H95.12s5.15-.18,5.15,5.15v6.51s.46,4.69-6.41,4.69H74V35H92.05V33.59H78.14A5.28,5.28,0,0,1,72.9,27.9V22.11s-.46-4.79,6.23-4.79Z"/><path class="cls-1" d="M121.78,17.32H101.72v25h20.51s7,.46,7-6.41V24.46A6.87,6.87,0,0,0,121.78,17.32Zm-1.9,17.08h-8.76V25.91h8.76Z"/><path class="cls-1" d="M178.53,17.27H166.27s-6.68-.32-6.68,7.28V36.37s.06,6.24,7.33,6.24h10.35v8.7h8.59V42.55h-4.43c1.43-.2,5.19-1.16,5.19-5.63V23.68S187.44,17.27,178.53,17.27Zm-9.85,8.27h8.75V34.4h-8.75Z"/><path class="cls-1" d="M187.92,13.53h.72v0l.65,1.33h.53l-.68-1.42a1,1,0,0,0,.52-.27.83.83,0,0,0,.19-.54.72.72,0,0,0-.31-.65,1.91,1.91,0,0,0-.9-.21h-1.19v3.09h.47Zm0-1.42h.72a.91.91,0,0,1,.53.13.46.46,0,0,1,.21.44.48.48,0,0,1-.19.41,1.23,1.23,0,0,1-.55.11h-.72Z"/><path class="cls-1" d="M186.75,15.21a2.62,2.62,0,0,0,.88.59,2.29,2.29,0,0,0,1,.21h.14a2.45,2.45,0,0,0,.88-.2,2.92,2.92,0,0,0,.9-.59,2.78,2.78,0,0,0,.77-1.88,2.6,2.6,0,0,0-.21-1,2.37,2.37,0,0,0-.56-.86,2.5,2.5,0,0,0-.88-.58,2.47,2.47,0,0,0-.9-.21h-.14a2.71,2.71,0,0,0-1.88.77,3.26,3.26,0,0,0-.59.9,2.63,2.63,0,0,0-.19,1,2.6,2.6,0,0,0,.19,1A3.1,3.1,0,0,0,186.75,15.21Zm-.3-2.79a3.27,3.27,0,0,1,.52-.79,2.67,2.67,0,0,1,.78-.5,2.4,2.4,0,0,1,.89-.18h.14a2.77,2.77,0,0,1,.79.18,2.33,2.33,0,0,1,.77.52,2.21,2.21,0,0,1,.51.77,2.44,2.44,0,0,1,0,1.84,1.86,1.86,0,0,1-.51.74,2.48,2.48,0,0,1-1.56.7h-.14a2.21,2.21,0,0,1-.91-.18A2.44,2.44,0,0,1,187,15a1.93,1.93,0,0,1-.51-.77,2.3,2.3,0,0,1-.19-.9A2.43,2.43,0,0,1,186.45,12.42Z"/></svg>