<?xml version="1.0" encoding="utf-8"?>
<!-- Generator: Adobe Illustrator 27.5.0, SVG Export Plug-In . SVG Version: 6.00 Build 0)  -->
<svg width='100px' height='50px' version="1.1" id="katman_1" xmlns="http://www.w3.org/2000/svg" xmlns:xlink="http://www.w3.org/1999/xlink" x="0px" y="0px"
	 viewBox="0 0 115.5 28.2" style="enable-background:new 0 0 115.5 28.2;" xml:space="preserve">
<style type="text/css">
	.st0{fill:#D0D0D0;}
</style>
<g transform="matrix(.34642 0 0 .34642 100 155.883)">
	<path class="st0" d="M-272.1-449.9c4.1-0.1,9.1,1.5,12.5,5.7c1.5,1.5,4.3,8.6,4.3,8.6l16.8,44.6c2.2,5.4,8.7,5.8,10.6,0.4l5.2-14.1
		l8.9,23.5c-4.3,7.9-8.5,9.9-13.5,11.7c-5.8,1.8-12.7,1.2-17.7-1.9c-1.7-1-6-3.9-8.9-11l-17.8-49.5v45.1l6.6-19l8.5,23.8
		c-1.2,5.5-5.2,10-9.8,12.1c-5,2.4-11,1.5-15.5-1.3c-4.5-3.3-5.8-7.3-6-14.3l0.1-48.7c0.5-8.1,5.7-12.5,10.3-14.5
		C-275.3-449.7-274.5-449.9-272.1-449.9z M-194.6-368.7c-4.1,0.1-9.1-1.5-12.5-5.6c-1.5-1.5-4.3-8.6-4.3-8.6l-16.8-44.6
		c-2.2-5.4-8.7-5.8-10.6-0.4l-5.2,14.1l-8.9-23.5c4.3-7.9,8.5-9.9,13.5-11.6c5.8-1.8,12.7-1.2,17.7,1.9c1.7,1.1,6,3.9,8.9,11
		l17.7,49.5v-45.1l-6.6,19l-8.5-23.8c1.2-5.5,5.2-10,9.8-12.1c5-2.4,11-1.5,15.5,1.3c4.5,3.4,5.8,7.3,6,14.3l-0.1,48.7
		c-0.5,8.1-5.7,12.5-10.3,14.5C-191.3-368.9-192.2-368.7-194.6-368.7z"/>
	<path class="st0" d="M29-419.5c-1.2-7-7.4-13.9-16.6-13.9C2.2-433.5-6-426.4-6-409.7c0,13,5.7,24.4,18.2,24.4
		c7.9,0,14.1-4.8,16.4-12.7l15.8,7c-4.4,12.1-17.1,22.7-34.8,21.8c-21.8-1-34-16.4-34-39.9c0-27.1,16.2-39.3,34.9-40
		c18.4-0.7,30.5,9.9,34.1,22.1C44.4-426.9,29.2-419.8,29-419.5L29-419.5z M-92.6-369.9h-19.3l-5.5-17.1h-24.8l-5.5,17.1h-19.2
		l26.2-78.6h21.8L-92.6-369.9z M-56.9-369.9h-31.6v-78.6h32.2c16.6,0,25.8,6,25.8,19.8c0,8-3.4,14.5-9.5,17.3
		c7.1,2.4,11.7,8.3,11.7,18.2C-28.4-378.3-38.3-369.9-56.9-369.9z M-57-402.7h-13v16.9h13.2c6.1,0,9.8-2.7,9.9-8.3
		C-46.6-400.1-50.8-402.7-57-402.7L-57-402.7z M-129.3-423.6h-1.1l-6.8,20.7h14.8L-129.3-423.6z M-56.8-433.3H-70v14.5h12.9
		c5.1,0,8.2-2.6,8.2-7.7C-48.9-431.1-51.7-433.3-56.8-433.3z"/>
</g>
</svg>
