<svg id="Layer_1" data-name="Layer 1" xmlns="http://www.w3.org/2000/svg" viewBox="0 0 130.17 47.87"><defs><style>.cls-1{fill:#d0d0d0;fill-rule:evenodd;}</style></defs><title>Artboard 1</title><path class="cls-1" d="M46.77,14.5V28.77h7V17.49A3.91,3.91,0,0,1,54.33,16a2.38,2.38,0,0,1,4.3,1.18V28.77h7v-6.6c0-5.54,0-6.68-.07-7.23a7.63,7.63,0,0,0-2-4.64,6.25,6.25,0,0,0-3.68-1.76,11,11,0,0,0-2.56.09,6.13,6.13,0,0,0-3.16,1.7l-.5.5V.21H46.77ZM121.43.43c-.19.44-7.32,17.7-7.32,17.73s1.87,0,4.15,0h4.16l3.7-8.92,3.71-9h-8.3ZM31.36,8.54A9.09,9.09,0,0,0,27.46,10,10.46,10.46,0,0,0,23,17.24a12.62,12.62,0,0,0,.23,4.54,9.67,9.67,0,0,0,6.19,7,7,7,0,0,0,2.86.43,7.31,7.31,0,0,0,1.62-.09,6.23,6.23,0,0,0,3.33-1.72L37.7,27v1.77h6.78V9h-6.8V10.8l-.31-.34A6.59,6.59,0,0,0,34.1,8.68a5.85,5.85,0,0,0-1.56-.14ZM76.2,8.6a10.87,10.87,0,0,0-5.27,2.25,10.48,10.48,0,0,0-3.62,9.68A10.15,10.15,0,0,0,75,29a11.31,11.31,0,0,0,2.84.33,10.66,10.66,0,0,0,5-1.12,10.08,10.08,0,0,0,5.5-7.73,13.39,13.39,0,0,0,0-3.1,10.52,10.52,0,0,0-1.84-4.6,12.93,12.93,0,0,0-1.88-2,10.76,10.76,0,0,0-5.27-2.19,16.68,16.68,0,0,0-3.08,0Zm22.35,0a10.79,10.79,0,0,0-5.2,2.18,13.12,13.12,0,0,0-1.91,2,10.38,10.38,0,0,0-1.83,4.6,13.39,13.39,0,0,0,0,3.1,10.15,10.15,0,0,0,8.19,8.63,10.51,10.51,0,0,0,2.31.21,10.8,10.8,0,0,0,5.08-1.17,10.31,10.31,0,0,0,5.27-11.4,10.17,10.17,0,0,0-8.9-8.12,15.83,15.83,0,0,0-3,0ZM.34,9,4.55,19c2.32,5.47,4.22,10,4.22,10s-.68,1.65-1.51,3.6L5.75,36.14h7.46l5.61-13.52c3.08-7.38,5.61-13.54,5.61-13.57A28.38,28.38,0,0,0,20.74,9H17l-2.27,5.8c-1.25,3.16-2.28,5.75-2.29,5.74s-1.05-2.61-2.28-5.77L8,9H4.15C2.07,9,.35,9,.35,9ZM34.8,15a3.94,3.94,0,0,1,2.88,2.88,4.7,4.7,0,0,1,0,2.11,4,4,0,0,1-2.87,2.89,5,5,0,0,1-2.11,0A4.14,4.14,0,0,1,30,20.49a4.2,4.2,0,0,1,.38-3.83A4.09,4.09,0,0,1,34.81,15Zm43.72,0a3.88,3.88,0,0,1,3.1,3,5.07,5.07,0,0,1,0,2,3.91,3.91,0,0,1-2.83,2.82,5.7,5.7,0,0,1-2.1,0,3.85,3.85,0,0,1-2.5-2.11,3.56,3.56,0,0,1-.37-1.76,3.58,3.58,0,0,1,.29-1.58,4,4,0,0,1,1.52-1.74,4.22,4.22,0,0,1,2.9-.56Zm22.35,0a3.79,3.79,0,0,1,2.87,2.31,3.59,3.59,0,0,1,.3,1.58,3.46,3.46,0,0,1-.38,1.76,3.86,3.86,0,0,1-2.49,2.11,5.76,5.76,0,0,1-2.11,0,3.92,3.92,0,0,1-2.76-2.81,5,5,0,0,1,0-2.11,3.87,3.87,0,0,1,3.78-2.93,5,5,0,0,1,.85.11Zm14.88,4.89a4.78,4.78,0,0,0-4.09,3.7,5.76,5.76,0,0,0,0,2.11A4.48,4.48,0,0,0,115.14,29a5.2,5.2,0,0,0,1,.09,4.69,4.69,0,0,0,4.68-4.68v0a4.4,4.4,0,0,0-2.11-3.89,4.87,4.87,0,0,0-2.91-.65ZM57.9,30.6A2.29,2.29,0,0,0,56.66,34a2.64,2.64,0,0,0,1.05.91,1.53,1.53,0,0,0,1,.17,1.49,1.49,0,0,0,.95-.17,2.61,2.61,0,0,0,1.13-1,2.25,2.25,0,0,0-1.07-3l0,0a1.62,1.62,0,0,0-.89-.2A2,2,0,0,0,57.9,30.6ZM52,30.71a4.41,4.41,0,0,0-3.59,3.48,5.48,5.48,0,0,0-.14,1.15v.72H46.77v3.33h1.51v7.9h4.07V39.46h2.77V36.11H52.36v-.38a1.46,1.46,0,0,1,1-1.47,2.75,2.75,0,0,1,1.53.05l.32.11V31l-.3-.1a4.5,4.5,0,0,0-1.78-.25,7.3,7.3,0,0,0-1.14.09Zm16.67,5.16a3.35,3.35,0,0,0-2,1.21l-.22.3V36.11H62.34V47.35h4.13V40.93a2,2,0,0,1,.54-1,1.42,1.42,0,0,1,1.93.21c.3.45.3.39.32,4v3.29h4.12V43.65c0-3.91,0-4.36-.24-5.1a3.55,3.55,0,0,0-1-1.69A3.16,3.16,0,0,0,70.62,36,5.58,5.58,0,0,0,68.71,35.87Zm10.4,0a5.7,5.7,0,0,0-2.17.87,5.92,5.92,0,0,0-2.32,3.8,8.66,8.66,0,0,0,0,2.49,6.38,6.38,0,0,0,1.15,2.67,5,5,0,0,0,3,1.86,6,6,0,0,0,2.28-.05,3.82,3.82,0,0,0,1.6-.91l.41-.39v1.14h4.07V36.11H83.08v1.16L82.81,37a3.74,3.74,0,0,0-2.16-1A6.12,6.12,0,0,0,79.11,35.87Zm16,0a3.7,3.7,0,0,0-2,1.24l-.18.23V36.1H88.71V47.32h4.22V44.16c0-3.38,0-3.45.24-3.91a1.28,1.28,0,0,1,1.16-.69,1.16,1.16,0,0,1,1,.36c.44.43.42.28.44,4.08v3.35h4.16v-4.1c0-4,0-4.09-.14-4.51a5.6,5.6,0,0,0-.37-1,2.82,2.82,0,0,0-.64-.92A3.38,3.38,0,0,0,97.46,36,4.84,4.84,0,0,0,95.1,35.87Zm10.86,0a5.79,5.79,0,0,0-4.22,2.76,6.21,6.21,0,0,0-.63,1.58A4.66,4.66,0,0,0,101,41.7a5.2,5.2,0,0,0,.29,2.11,5.55,5.55,0,0,0,4.21,3.74,6.09,6.09,0,0,0,1.41.1,5,5,0,0,0,2.28-.4l.4-.16V43.25l-.34.2a3,3,0,0,1-1.54.45,2.58,2.58,0,0,1-1.47-.28,2.19,2.19,0,0,1-1-1,1.61,1.61,0,0,1-.16-.89,1.9,1.9,0,0,1,.12-.82,2.33,2.33,0,0,1,2.19-1.4,3.59,3.59,0,0,1,2.11.59V36.37l-.33-.14A6.92,6.92,0,0,0,106,35.87Zm9.37,0a6.21,6.21,0,0,0-4.77,7.36,6.09,6.09,0,0,0,.83,2,5.49,5.49,0,0,0,3.53,2.27,11.15,11.15,0,0,0,3.16,0A5.94,5.94,0,0,0,121,46a5.07,5.07,0,0,0,.84-1.11L120,44.2l-1.73-.66-.25.25a1.84,1.84,0,0,1-1,.58,2.06,2.06,0,0,1-2.6-1.28.29.29,0,0,1,0-.09v-.23h7.74v-1a6.27,6.27,0,0,0-.09-1.37,5.78,5.78,0,0,0-1.58-3,5.52,5.52,0,0,0-2.86-1.55A9.32,9.32,0,0,0,115.33,35.87ZM56.54,41.72v5.63h4.12V36.11H56.54ZM117,39a1.34,1.34,0,0,1,.72.41,1.45,1.45,0,0,1,.48.79v.21H116.3c-2.11,0-2,0-1.77-.44A2,2,0,0,1,117,39Zm-35.48.55a2.42,2.42,0,0,1,1.43,1.17,2.26,2.26,0,0,1-1,3,2.34,2.34,0,0,1-.24.09,2.73,2.73,0,0,1-1.5,0,2.25,2.25,0,0,1-1.47-1.47,1.82,1.82,0,0,1-.09-.8,1.59,1.59,0,0,1,.2-.83,2.33,2.33,0,0,1,2.71-1.19Z"/></svg>