<svg id="Layer_1" data-name="Layer 1" xmlns="http://www.w3.org/2000/svg" viewBox="0 0 200 37.79"><defs><style>.cls-1{fill:#d0d0d0;}</style></defs><title>Artboard 3</title><path class="cls-1" d="M.33.4H15a9.94,9.94,0,0,1,6.38,1.93A7.4,7.4,0,0,1,24,8.22a5.66,5.66,0,0,1-3.52,5.64V14a7.15,7.15,0,0,1,4.85,7.21,8.6,8.6,0,0,1-3.21,7.17,11.38,11.38,0,0,1-6.88,1.77H.35V.4ZM13.5,12.05A2.43,2.43,0,0,0,16.22,10a2.35,2.35,0,0,0,0-.53,2.48,2.48,0,0,0-2.4-2.55,2,2,0,0,0-.35,0h-5V12h5.08Zm.73,11.53a2.87,2.87,0,0,0,3.05-2.68,2.54,2.54,0,0,0,0-.39,2.88,2.88,0,0,0-2.69-3.06,2.26,2.26,0,0,0-.45,0H8.42v6.1ZM26.72.41h7.66V30.2H26.72Z"/><path id="A" class="cls-1" d="M35.92,19.56c0-6.7,4.34-11.26,11-11.26s11,4.56,11,11.26S53.67,30.83,47,30.83,35.92,26.32,35.92,19.56Zm14.45,0c0-3.69-1.21-6.06-3.49-6.06s-3.38,2.33-3.38,6.06,1.12,6.06,3.39,6.06S50.37,23.35,50.37,19.56Z"/><path class="cls-1" d="M58.87,19.56c0-6.7,4.34-11.26,11.05-11.26s11,4.56,11,11.26-4.26,11.27-11,11.27S58.87,26.32,58.87,19.56Zm14.45,0c0-3.69-1.21-6.06-3.48-6.06s-3.4,2.33-3.4,6.06,1.12,6.06,3.4,6.06S73.32,23.35,73.32,19.56Z"/><path class="cls-1" d="M82.43,8.91h7.11v3.15h.09A6.75,6.75,0,0,1,96,8.23a5.93,5.93,0,0,1,5.71,3.65h.13a7.12,7.12,0,0,1,6.65-3.62c4.94,0,7,3.65,7,8.51V30.19h-7.48v-12c0-2.19-.68-3.6-2.57-3.6s-2.8,1.73-2.8,4.05V30.21H95.36v-12c0-2.19-.69-3.6-2.58-3.6S90,16.29,90,18.62V30.23H82.43ZM125,27.39h-.08v2.75h-7.1V.35h7.48V11.1h.13a7,7,0,0,1,6.06-2.84c5.33,0,8.39,4.81,8.39,11.22,0,7.22-3.35,11.4-8.89,11.4a6.72,6.72,0,0,1-6-3.49Zm7.27-7.95c0-3.44-1.25-5.63-3.54-5.63S125,16,125,19.44s1.46,5.63,3.73,5.63S132.26,22.88,132.26,19.44Zm8.46,0c0-6.62,4.38-11.26,10.75-11.26a10.45,10.45,0,0,1,7.47,2.74c2.46,2.37,3.58,6.11,3.49,10.49H148.15c.31,2.66,1.6,4,3.83,4a2.88,2.88,0,0,0,2.93-2h7.18c-1.25,4.86-5,7.34-10.38,7.34-6.58,0-11-4.38-11-11.22Zm7.43-2.19H155c-.13-2.58-1.55-3.91-3.31-3.91-2.06,0-3.18,1.49-3.49,3.95Zm22.75-4.73H171c1.56-3,3.58-4.08,6.12-4.08a2.43,2.43,0,0,1,1.19.21v6.57h-.17c-4.38-.77-7,1.29-7,6.11v8.86h-7.49V9h7.1v3.59Z"/><path class="cls-1" d="M179.2,30.19h7.17a2.86,2.86,0,0,0,3,1.8c2.42,0,3.23-1.5,3.23-3.69V26.75h-.22a6.38,6.38,0,0,1-5.11,2.41c-4.6,0-8.55-3.4-8.55-10C178.73,13,182,8.3,186.94,8.3a6.23,6.23,0,0,1,5.72,3h.12V9h7.09V27.34a9.93,9.93,0,0,1-3,7.62c-1.84,1.67-4.51,2.31-7.52,2.31-5.58,0-9.54-2.31-10.23-7.08Zm13.71-11.44c0-2.67-1.25-4.8-3.44-4.8s-3.44,1.9-3.44,4.8,1.33,4.9,3.44,4.9,3.44-2.1,3.44-4.9Z"/></svg>