<svg  width='200px' height='50px'  id="Layer_1" data-name="Layer 1" xmlns="http://www.w3.org/2000/svg" viewBox="0 0 200 60"><defs><style>.cls-1{fill:#d0d0d0;}</style></defs><title>Bloomberg-Logo</title><path class="cls-1" d="M4.83,16.16H18.77A9.5,9.5,0,0,1,24.86,18a7.08,7.08,0,0,1,2.5,5.62A5.41,5.41,0,0,1,24,29v.12A6.83,6.83,0,0,1,28.63,36a8.2,8.2,0,0,1-3.07,6.84A10.9,10.9,0,0,1,19,44.53H4.85V16.16ZM17.39,27.27A2.32,2.32,0,0,0,20,24.77a2.36,2.36,0,0,0-2.62-2.42h-4.8v4.88h4.84Zm.7,11A2.74,2.74,0,0,0,21,35.34a2.75,2.75,0,0,0-3-2.91H12.55v5.82ZM30,16.17h7.3V44.58H30Z"/><path id="A" class="cls-1" d="M38.77,34.44c0-6.39,4.14-10.74,10.54-10.74s10.45,4.35,10.45,10.74S55.7,45.18,49.31,45.18,38.77,40.88,38.77,34.44Zm13.78,0c0-3.52-1.15-5.78-3.32-5.78S46,30.88,46,34.44s1.07,5.78,3.24,5.78S52.55,38.05,52.55,34.44Z"/><path class="cls-1" d="M60.66,34.44c0-6.39,4.14-10.74,10.54-10.74s10.45,4.35,10.45,10.74S77.59,45.18,71.2,45.18,60.66,40.88,60.66,34.44Zm13.78,0c0-3.52-1.15-5.78-3.32-5.78s-3.24,2.22-3.24,5.78,1.07,5.78,3.24,5.78S74.44,38.05,74.44,34.44Z"/><path class="cls-1" d="M83.13,24.28h6.78v3H90a6.43,6.43,0,0,1,6.09-3.65,5.66,5.66,0,0,1,5.45,3.48h.12A6.8,6.8,0,0,1,108,23.66c4.71,0,6.72,3.48,6.72,8.12V44.57h-7.14V33.09c0-2.09-.65-3.43-2.45-3.43s-2.67,1.65-2.67,3.86V44.59h-7V33.11c0-2.09-.66-3.43-2.46-3.43s-2.67,1.64-2.67,3.86V44.61H83.13V24.28ZM123.72,41.9h-.08v2.63h-6.77V16.12H124V26.37h.13a6.7,6.7,0,0,1,5.78-2.71c5.08,0,8,4.59,8,10.7,0,6.89-3.2,10.87-8.48,10.87a6.39,6.39,0,0,1-5.74-3.33Zm6.93-7.58c0-3.28-1.19-5.37-3.37-5.37s-3.56,2.09-3.56,5.37,1.39,5.37,3.56,5.37S130.65,37.6,130.65,34.32Zm8.07,0c0-6.31,4.18-10.74,10.25-10.74a10,10,0,0,1,7.13,2.62c2.34,2.26,3.41,5.82,3.32,10H145.81c.29,2.54,1.52,3.81,3.65,3.81a2.76,2.76,0,0,0,2.79-1.93h6.85c-1.19,4.63-4.8,7-9.9,7-6.27,0-10.5-4.18-10.5-10.7Zm7.09-2.09h6.48c-.12-2.46-1.48-3.73-3.16-3.73C147.17,28.54,146.1,29.93,145.81,32.27Zm21.69-4.51h.12c1.48-2.83,3.41-3.89,5.83-3.89a2.37,2.37,0,0,1,1.14.2V30.3h-.16c-4.18-.74-6.66,1.23-6.66,5.82v8.45h-7.14V24.32h6.77v3.42Z"/><path class="cls-1" d="M175.42,44.57h6.84a2.71,2.71,0,0,0,2.87,1.72c2.3,0,3.08-1.43,3.08-3.52V41.29H188a6.08,6.08,0,0,1-4.88,2.3c-4.38,0-8.15-3.24-8.15-9.55,0-5.83,3.11-10.34,7.83-10.34a5.92,5.92,0,0,1,5.45,2.83h.12V24.32h6.76V41.86a9.48,9.48,0,0,1-2.83,7.26c-1.76,1.6-4.3,2.21-7.17,2.21-5.33,0-9.1-2.21-9.76-6.76Zm13.07-10.91c0-2.54-1.19-4.57-3.28-4.57s-3.28,1.81-3.28,4.57,1.27,4.68,3.28,4.68S188.49,36.33,188.49,33.66Z"/></svg>