<svg id="layer" xmlns="http://www.w3.org/2000/svg" viewBox="0 0 250 21.15"><defs><style>.cls-1{fill:#d0d0d0;}</style></defs><title>Artboard 5</title><path class="cls-1" d="M17,7.08c-.34-1.35-.41-3.93-3.12-3.93h-2v14c0,1.56.2,1.43,2.24,1.76L15,19V20.1H4.27v-1l3.12-.34V3.09h-2c-2.64,0-2.64,2.57-3,3.93H1.49c0,.13.54-6.1.54-6.1H17.28s.54,6.23.54,6.1H17Z"/><path class="cls-1" d="M31.58,20.1H28.8v-1l2.51-.34V11.29h-6v6c0,1.56.2,1.42,2.23,1.76l.34.07v1H18.09v-1l2.65-.34v-15c0-1.56-.21-1.49-2.24-1.76h-.41V1h9.63V2l-2.51.34V9.25h6V3.76C31.24,2.2,31,2.34,29,2l-.28-.07V1h9.7V2l-2.65.34V17.25c0,1.56.21,1.49,2.24,1.76l.47.07v1Z"/><path class="cls-1" d="M54.62,20.1H39.1v-1l2.65-.34v-15c0-1.56-.21-1.49-2.24-1.76H39.1V1H54.62l-.4,4.81h-.75C53.4,4.17,53.06,3,50.76,3H46.22v6.3H50c1.83,0,2-1,2.24-2h.81l-.54,6.3h-.74c.06-2.37-1.16-2.37-2.11-2.37H46.29v4.27c0,2.23-.07,2.57,3.05,2.57,3.59,0,4.4-.67,5-3.45h.75Z"/><path class="cls-1" d="M75.9,20.1H70v-1l2.91-.34-1.36-4.13h-6.5c-.48,1.35-.81,2.44-1,2.64-.47,1.36.14,1.63,2,1.83v1H59.3v-1l2.37-.34,6.1-17.69h4.07l5.62,16.61c.41,1.22,1,1.22,1.76,1.28L80,19v1H76v.07ZM68.38,4.85S67,9.05,65.74,12.57h5.15Z"/><path class="cls-1" d="M93.93,2.34V13.12c0,2.5-.14,7.18-6.71,7.18-6.24,0-7.93-2.85-7.93-7.18V3.76c0-1.56-.2-1.49-2.24-1.76l-.47-.07V1h9.55V2l-2.64.34V12.91c0,3.19.81,5.36,4.27,5.36,3.93,0,4.27-2.58,4.27-5.63V3.76c0-1.56-.2-1.49-2.24-1.76l-.47-.07V1h7.12V2Z"/><path class="cls-1" d="M102.47,20.43a12.09,12.09,0,0,1-6.24-1.49c0-.13.48-5.08.41-4.67l.81.07c0,.94.14,2.64,1.63,3.32a9,9,0,0,0,3.59.81c2.64,0,3.46-1.36,3.46-2.58,0-1.42-1.09-2.23-3.19-2.91-.61-.2-1.9-.68-3.32-1.29-2.37-.95-3.32-2.64-3.32-5.42C96.3,1.6,100.64.71,104,.71a23.69,23.69,0,0,1,5.28.68c0-.07-.47,5.69-.47,5.69H108c.06-3.38-1.43-4.4-4.21-4.4-1.83,0-3.86.34-3.86,2.3s3.19,2.44,6.71,3.87c2,.74,3.19,2.57,3.19,5.42-.21,4.74-4.68,6.16-7.32,6.16"/><path class="cls-1" d="M125.3,7.08c-.33-1.35-.4-3.93-3.11-3.93h-2v14c0,1.56.21,1.43,2.24,1.76l.88.07V20.1H112.63v-1l3.12-.34V3.09h-2c-2.65,0-2.65,2.57-3,3.93h-.82c0,.13.55-6.1.55-6.1h15.18s.54,6.23.54,6.1h-.82v.06Z"/><path class="cls-1" d="M142.72,20.1H140c-.13-.75-.41-2.1-.61-2.85a14.9,14.9,0,0,0-1.29-4.13c-.54-.95-1.56-1.09-3.32-1.09h-1.22v5.22c0,1.56.21,1.49,2.24,1.76l.47.07v1h-9.82v-1l2.64-.34v-15c0-1.56-.2-1.49-2.24-1.76l-.47-.07V1H136c4.88,0,7.66,1.21,7.66,5,0,4.27-2.64,4.74-4.68,5,2.65.48,4.14,1.5,5.15,6.85.21,1.08.75,1,1.5,1.15v1l-2.92.07ZM136.22,3h-2.65v7.12h2.65c2.23,0,3.32-1.29,3.32-3.66,0-3-2.1-3.46-3.32-3.46M156.68,20.1v-1l2.44-.34-1.29-4.13H151c-.61,1.62-1,2.84-1.08,3.11-.41,1.22.47,1.43,1.76,1.43v1h-5.56v-1l1.76-.34,6.24-17.69h4.06l5.63,16.6a1.79,1.79,0,0,0,1.76,1.36l.61.07v1h-9.35V20.1Zm-2-15.66s-1.63,4.41-3,8.13h5.49ZM180.67,20.1H166.51v-1l2.23-.34v-15c0-1.56-.2-1.49-2.23-1.76L166,1.93V1h9.76V2l-2.64.34V15.56c0,2.23-.07,2.57,3,2.57,2.78,0,3.59-1.63,4.27-4.34h.74Z"/><path class="cls-1" d="M184.13,20.1h-2.92v-1l2.65-.34v-15c0-1.56-.21-1.49-2.24-1.76l-.47-.07V1h9.76V2l-2.65.34V17.25c0,1.56.21,1.49,2.24,1.76l.47.07v1Z"/><path class="cls-1" d="M208.05,20.1h-5.89v-1l2.91-.34-1.36-4.13h-6.5c-.48,1.35-.82,2.44-1,2.64-.48,1.36.13,1.63,2,1.83v1h-6.91v-1l2.37-.34,6.1-17.69h4.07l5.62,16.61c.41,1.22,1,1.22,1.76,1.28l.82.07v1h-4.07ZM200.6,4.85s-1.43,4.2-2.65,7.72h5.15Z"/><path class="cls-1" d="M229.6,2.34V20.23h-2.84L217,5.39V17.32c0,1.56.2,1.49,2.23,1.76l.48.07v1h-6.92v-1l2.44-.34v-15c0-1.56-.2-1.42-2.23-1.76l-1-.07V1h7.52l8.27,12.6V3.76c0-1.56-.2-1.49-2.23-1.76l-.48-.07V1h7.12V2Z"/><polygon class="cls-1" points="242.61 2.68 242.75 2.75 243.22 3.02 243.43 3.09 243.63 3.29 243.83 3.36 244.04 3.56 244.31 3.7 244.44 3.49 244.51 3.42 244.65 3.15 244.65 2.81 244.71 2.68 244.65 2.48 244.65 2.27 244.78 2 244.78 1.73 244.78 1.59 244.92 1.39 244.85 1.19 244.99 1.05 244.99 0.92 245.12 1.05 245.19 1.39 245.26 1.39 245.26 1.59 245.39 1.8 245.39 2.07 245.59 2.41 245.73 2.34 245.73 2.27 245.93 2.48 246 2.68 246 2.95 246.14 3.29 246.21 3.42 246.27 3.9 246.34 4.1 246.54 4.31 246.75 4.37 246.88 4.58 247.15 4.64 247.15 4.92 247.29 5.05 247.36 5.39 247.49 5.53 247.49 5.46 247.7 5.53 247.9 6 248.24 6.41 248.37 6.68 248.51 6.54 248.51 6.81 248.51 6.95 248.51 7.15 248.44 7.56 248.51 7.49 248.51 8.24 248.44 8.3 248.44 8.51 248.31 8.64 248.31 8.98 248.17 9.32 248.03 9.52 247.9 9.59 247.76 9.93 247.7 10.13 247.56 10.2 247.49 10.54 247.29 10.81 247.22 11.15 247.22 11.22 247.15 11.42 246.95 11.56 246.75 11.56 246.61 11.56 246.34 11.76 246.14 11.9 245.8 11.69 245.73 11.69 245.73 11.56 245.59 11.69 245.39 11.9 245.19 11.76 244.99 11.69 244.65 11.63 244.24 11.29 244.24 11.08 244.1 10.81 244.04 10.54 243.83 10.61 243.7 10.61 243.83 10.4 243.83 10.2 243.7 10.07 243.63 10.4 243.36 10.4 243.49 10.2 243.63 9.79 243.63 9.52 243.49 9.59 243.49 9.66 243.49 9.79 243.29 9.93 243.16 10.07 243.09 10.2 243.09 10.34 242.88 10.2 242.68 9.86 242.61 9.73 242.48 9.66 242.34 9.39 242.14 9.32 241.87 9.32 241.73 9.19 241.6 9.19 241.46 9.19 241.19 9.12 240.85 9.19 240.72 9.32 240.17 9.59 239.9 9.52 239.5 9.79 239.43 9.86 239.36 10.13 239.22 10.2 239.09 10.2 238.89 10.34 238.68 10.2 238.48 10.27 238.28 10.4 238.14 10.54 237.8 10.74 237.53 10.81 237.19 10.81 236.99 10.74 236.78 10.61 236.65 10.4 236.78 10.34 236.78 10 236.78 9.79 236.45 9.39 236.38 9.12 236.38 8.78 236.11 8.64 235.97 8.44 235.77 8.17 235.63 7.96 235.5 7.69 235.63 7.69 235.56 7.56 235.7 7.69 235.77 7.36 235.63 7.29 235.43 7.08 235.43 6.88 235.43 6.68 235.43 6.41 235.43 6.27 235.43 6.07 235.63 6.2 235.7 6 235.84 5.8 235.97 5.8 236.11 5.59 236.31 5.39 236.51 5.46 236.72 5.19 236.92 5.25 237.06 5.05 237.26 4.98 237.46 4.92 237.6 4.85 237.8 4.71 237.87 4.44 238.14 4.17 238.07 3.97 238 3.76 238.07 3.63 238.28 3.49 238.28 3.63 238.48 3.97 238.55 3.76 238.41 3.56 238.48 3.42 238.55 3.49 238.82 3.42 238.82 3.22 238.75 3.09 238.89 2.95 238.95 2.68 239.09 2.54 239.22 2.68 239.43 2.54 239.5 2.41 239.63 2.34 239.77 2.41 239.84 2.54 240.04 2.61 239.97 2.95 240.04 2.95 240.11 2.75 240.24 2.68 240.38 2.75 240.58 2.75 240.51 2.61 240.38 2.48 240.51 2.34 240.58 2.27 240.78 2.14 240.65 1.93 240.78 1.8 240.85 1.73 240.99 1.59 241.26 1.66 241.46 1.59 241.53 1.53 241.53 1.32 241.33 1.19 241.6 1.26 241.8 1.39 241.94 1.39 242.21 1.53 242.48 1.53 242.54 1.59 242.68 1.39 242.88 1.53 242.95 1.46 243.09 1.59 242.88 1.93 242.75 2 242.75 2.14 242.61 2.68"/><polygon class="cls-1" points="245.59 12.51 245.8 12.51 245.93 12.64 246.14 12.71 246.34 12.64 246.48 12.57 246.68 12.64 246.68 13.05 246.54 13.25 246.54 13.39 246.41 13.46 246.27 13.46 246.21 13.66 246 13.66 245.93 13.52 245.8 13.25 245.73 12.98 245.59 12.71 245.59 12.51"/></svg>