<?xml version="1.0" encoding="utf-8"?>
<!-- Generator: Adobe Illustrator 27.5.0, SVG Export Plug-In . SVG Version: 6.00 Build 0)  -->
<svg  width='250px' height='50px'  version="1.1" id="layer" xmlns="http://www.w3.org/2000/svg" xmlns:xlink="http://www.w3.org/1999/xlink" x="0px" y="0px"
	 viewBox="0 0 368.9 34.4" style="enable-background:new 0 0 368.9 34.4;" xml:space="preserve">
<style type="text/css">
	.st0{fill:#D0D0D0;}
</style>
<g>
	<path class="st0" d="M24.4,12.8c-0.5-2-0.6-5.8-4.6-5.8h-3v7.6v4.7v8.4c0,2.3,0.3,2.1,3.3,2.6l1.3,0.1V32H10.5H5.6v-1.5l4.6-0.5
		V19.3v-4.7V6.9h-3c-3.9,0-3.9,3.8-4.5,5.8H1.5c0,0.2,0.8-9,0.8-9h0.6h5.3H13h11.2h0.6c0,0,0.8,9.2,0.8,9h-1.2V12.8z"/>
</g>
<g>
	<path class="st0" d="M45.9,32h-4.1v-1.5l3.7-0.5v-8.1V19h-8.9v2.7v6.2c0,2.3,0.3,2.1,3.3,2.6l0.5,0.1V32h-10H26v-1.5l3.9-0.5v-8.1
		v-6.3V7.9c0-2.3-0.3-2.2-3.3-2.6L26,5.3V3.8h10.1h4.1v1.5l-3.7,0.5v9.5v0.7h8.9v-0.6V7.9c0-2.3-0.3-2.1-3.3-2.6l-0.4-0.1V3.8h10H56
		v1.5l-3.9,0.5v9.5v6.3v6.2c0,2.3,0.3,2.2,3.3,2.6l0.7,0.1V32L45.9,32L45.9,32z"/>
	<path class="st0" d="M79.9,32H61.3H57v-1.5l3.9-0.5v-8.1v-6.3V7.9c0-2.3-0.3-2.2-3.3-2.6L57,5.3V3.8h4.9h18l-0.6,7.1h-1.1
		c-0.1-2.4-0.6-4.2-4-4.2h-6.7V16h5.6c2.7,0,3-1.5,3.3-2.9h1.2l-0.8,9.3h-1.1c0.1-3.5-1.7-3.5-3.1-3.5h-5v6.3c0,3.3-0.1,3.8,4.5,3.8
		c5.3,0,6.5-1,7.4-5.1h1.1L79.9,32z"/>
	<path class="st0" d="M111.3,32h-8.7v-1.5l4.3-0.5l-2-6.1h-9.6c-0.7,2-1.2,3.6-1.4,3.9c-0.7,2,0.2,2.4,3,2.7v1.5H92h-5.2v-1.5
		l3.5-0.5l9-26.1h6l8.3,24.5c0.6,1.8,1.5,1.8,2.6,1.9l1.2,0.1v0.9v0.6h-6V32z M100.2,9.5c0,0-2.1,6.2-3.9,11.4h7.6L100.2,9.5z"/>
	<path class="st0" d="M137.9,5.8v4.4v11.5c0,3.7-0.2,10.6-9.9,10.6c-9.2,0-11.7-4.2-11.7-10.6v-5.3v-6V7.9c0-2.3-0.3-2.2-3.3-2.6
		l-0.7-0.1V3.8h9.8h4.3v1.5l-3.9,0.5v4.4v6.1v5.1c0,4.7,1.2,7.9,6.3,7.9c5.8,0,6.3-3.8,6.3-8.3V10.5V7.9c0-2.3-0.3-2.2-3.3-2.6
		l-0.7-0.1V3.8h6.2h4.3v1.5L137.9,5.8z"/>
	<path class="st0" d="M150.5,32.5c-4,0-7.7-1.1-9.2-2.2c0-0.2,0.7-7.5,0.6-6.9l1.2,0.1c0,1.4,0.2,3.9,2.4,4.9
		c0.8,0.3,2.6,1.2,5.3,1.2c3.9,0,5.1-2,5.1-3.8c0-2.1-1.6-3.3-4.7-4.3c-0.9-0.3-2.8-1-4.9-1.9c-3.5-1.4-4.9-3.9-4.9-8
		c0-6.9,6.4-8.2,11.3-8.2c2.8,0,5.7,0.5,7.8,1c0-0.1-0.7,8.4-0.7,8.4h-1.2c0.1-5-2.1-6.5-6.2-6.5c-2.7,0-5.7,0.5-5.7,3.4
		c0,3,4.7,3.6,9.9,5.7c2.9,1.1,4.7,3.8,4.7,8C161,30.4,154.4,32.5,150.5,32.5"/>
	<path class="st0" d="M184.2,12.8c-0.5-2-0.6-5.8-4.6-5.8h-3v7.6v4.7v8.4c0,2.3,0.3,2.1,3.3,2.6l1.3,0.1V32h-10.8h-4.9v-1.5l4.6-0.5
		V19.3v-4.7V6.9h-3c-3.9,0-3.9,3.8-4.5,5.8h-1.2c0,0.2,0.8-9,0.8-9h0.6h5.3h4.7h11.2h0.6c0,0,0.8,9.2,0.8,9h-1.2V12.8z"/>
	<path class="st0" d="M209.9,32h-4c-0.2-1.1-0.6-3.1-0.9-4.2c-0.5-2.5-1-4.4-1.9-6.1c-0.8-1.4-2.3-1.6-4.9-1.6h-1.8v3.1v4.6
		c0,2.3,0.3,2.2,3.3,2.6l0.7,0.1v1.5h-10.1h-4.4v-1.5l3.9-0.5v-8.1v-6.3V7.9c0-2.3-0.3-2.2-3.3-2.6l-0.7-0.1V3.8h10.6h3.6
		c7.2,0,11.3,1.8,11.3,7.4c0,6.3-3.9,7-6.9,7.4c3.9,0.7,6.1,2.2,7.6,10.1c0.3,1.6,1.1,1.5,2.2,1.7v1.5L209.9,32L209.9,32z
		 M200.3,6.7h-3.9v10.5h3.9c3.3,0,4.9-1.9,4.9-5.4C205.2,7.4,202.1,6.7,200.3,6.7 M230.5,32v-1.5l3.6-0.5l-1.9-6.1h-10.1
		c-0.9,2.4-1.5,4.2-1.6,4.6c-0.6,1.8,0.7,2.1,2.6,2.1v1.5h-4.3h-1.3h-2.6v-1.5l2.6-0.5l9.2-26.1h6l8.3,24.5c0.6,1.8,1.8,1.9,2.6,2
		l0.9,0.1v1.5h-13.8V32z M227.6,8.9c0,0-2.4,6.5-4.4,12h8.1L227.6,8.9z M265.9,32h-17.3H245v-1.5l3.3-0.5v-8.1v-6.3V7.9
		c0-2.3-0.3-2.2-3.3-2.6l-0.7-0.1V3.8h4.9h9.5v1.5l-3.9,0.5V14v11.3c0,3.3-0.1,3.8,4.5,3.8c4.1,0,5.3-2.4,6.3-6.4h1.1L265.9,32z"/>
	<path class="st0" d="M271,32h-4.3v-1.5l3.9-0.5v-8.1v-6.3V7.9c0-2.3-0.3-2.2-3.3-2.6l-0.7-0.1V3.8h10.1h4.3v1.5l-3.9,0.5v9.5v6.3
		v6.2c0,2.3,0.3,2.2,3.3,2.6l0.7,0.1V32L271,32L271,32z"/>
	<path class="st0" d="M306.3,32h-8.7v-1.5l4.3-0.5l-2-6.1h-9.6c-0.7,2-1.2,3.6-1.4,3.9c-0.7,2,0.2,2.4,3,2.7v1.5h-4.9h-5.3v-1.5
		l3.5-0.5l9-26.1h6l8.3,24.5c0.6,1.8,1.5,1.8,2.6,1.9l1.2,0.1v0.9v0.6h-6V32z M295.3,9.5c0,0-2.1,6.2-3.9,11.4h7.6L295.3,9.5z"/>
	<path class="st0" d="M338.1,5.8v4.7v21.7h-4.2l-14.4-21.9v9.8v7.8c0,2.3,0.3,2.2,3.3,2.6l0.7,0.1V32h-6.2h-4v-1.5l3.6-0.5v-9.9
		v-9.5V7.9c0-2.3-0.3-2.1-3.3-2.6l-1.5-0.1V3.8h7h4.1l12.2,18.6V10.8V7.9c0-2.3-0.3-2.2-3.3-2.6l-0.7-0.1V3.8h6.2h4.3v1.5L338.1,5.8
		z"/>
	<polygon class="st0" points="357.3,6.3 357.5,6.4 358.2,6.8 358.5,6.9 358.8,7.2 359.1,7.3 359.4,7.6 359.8,7.8 360,7.5 360.1,7.4 
		360.3,7 360.3,6.5 360.4,6.3 360.3,6 360.3,5.7 360.5,5.3 360.5,4.9 360.5,4.7 360.7,4.4 360.6,4.1 360.8,3.9 360.8,3.7 361,3.9 
		361.1,4.4 361.2,4.4 361.2,4.7 361.4,5 361.4,5.4 361.7,5.9 361.9,5.8 361.9,5.7 362.2,6 362.3,6.3 362.3,6.7 362.5,7.2 362.6,7.4 
		362.7,8.1 362.8,8.4 363.1,8.7 363.4,8.8 363.6,9.1 364,9.2 364,9.6 364.2,9.8 364.3,10.3 364.5,10.5 364.5,10.4 364.8,10.5 
		365.1,11.2 365.6,11.8 365.8,12.2 366,12 366,12.4 366,12.6 366,12.9 365.9,13.5 366,13.4 366,14.5 365.9,14.6 365.9,14.9 
		365.7,15.1 365.7,15.6 365.5,16.1 365.3,16.4 365.1,16.5 364.9,17 364.8,17.3 364.6,17.4 364.5,17.9 364.2,18.3 364.1,18.8 
		364.1,18.9 364,19.2 363.7,19.4 363.4,19.4 363.2,19.4 362.8,19.7 362.5,19.9 362,19.6 361.9,19.6 361.9,19.4 361.7,19.6 
		361.4,19.9 361.1,19.7 360.8,19.6 360.3,19.5 359.7,19 359.7,18.7 359.5,18.3 359.4,17.9 359.1,18 358.9,18 359.1,17.7 359.1,17.4 
		358.9,17.2 358.8,17.7 358.4,17.7 358.6,17.4 358.8,16.8 358.8,16.4 358.6,16.5 358.6,16.6 358.6,16.8 358.3,17 358.1,17.2 
		358,17.4 358,17.6 357.7,17.4 357.4,16.9 357.3,16.7 357.1,16.6 356.9,16.2 356.6,16.1 356.2,16.1 356,15.9 355.8,15.9 355.6,15.9 
		355.2,15.8 354.7,15.9 354.5,16.1 353.7,16.5 353.3,16.4 352.7,16.8 352.6,16.9 352.5,17.3 352.3,17.4 352.1,17.4 351.8,17.6 
		351.5,17.4 351.2,17.5 350.9,17.7 350.7,17.9 350.2,18.2 349.8,18.3 349.3,18.3 349,18.2 348.7,18 348.5,17.7 348.7,17.6 
		348.7,17.1 348.7,16.8 348.2,16.2 348.1,15.8 348.1,15.3 347.7,15.1 347.5,14.8 347.2,14.4 347,14.1 346.8,13.7 347,13.7 
		346.9,13.5 347.1,13.7 347.2,13.2 347,13.1 346.7,12.8 346.7,12.5 346.7,12.2 346.7,11.8 346.7,11.6 346.7,11.3 347,11.5 
		347.1,11.2 347.3,10.9 347.5,10.9 347.7,10.6 348,10.3 348.3,10.4 348.6,10 348.9,10.1 349.1,9.8 349.4,9.7 349.7,9.6 349.9,9.5 
		350.2,9.3 350.3,8.9 350.7,8.5 350.6,8.2 350.5,7.9 350.6,7.7 350.9,7.5 350.9,7.7 351.2,8.2 351.3,7.9 351.1,7.6 351.2,7.4 
		351.3,7.5 351.7,7.4 351.7,7.1 351.6,6.9 351.8,6.7 351.9,6.3 352.1,6.1 352.3,6.3 352.6,6.1 352.7,5.9 352.9,5.8 353.1,5.9 
		353.2,6.1 353.5,6.2 353.4,6.7 353.5,6.7 353.6,6.4 353.8,6.3 354,6.4 354.3,6.4 354.2,6.2 354,6 354.2,5.8 354.3,5.7 354.6,5.5 
		354.4,5.2 354.6,5 354.7,4.9 354.9,4.7 355.3,4.8 355.6,4.7 355.7,4.6 355.7,4.3 355.4,4.1 355.8,4.2 356.1,4.4 356.3,4.4 
		356.7,4.6 357.1,4.6 357.2,4.7 357.4,4.4 357.7,4.6 357.8,4.5 358,4.7 357.7,5.2 357.5,5.3 357.5,5.5 	"/>
	<polygon class="st0" points="361.7,20.8 362,20.8 362.2,21 362.5,21.1 362.8,21 363,20.9 363.3,21 363.3,21.6 363.1,21.9 
		363.1,22.1 362.9,22.2 362.7,22.2 362.6,22.5 362.3,22.5 362.2,22.3 362,21.9 361.9,21.5 361.7,21.1 	"/>
</g>
</svg>
