<svg  width='150px' height='50px'  id="Layer_1" data-name="Layer 1" xmlns="http://www.w3.org/2000/svg" viewBox="0 0 200 60"><defs><style>.cls-1{fill:#d0d0d0;fill-rule:evenodd;}</style></defs><title>YahooFinance-Logo</title><path class="cls-1" d="M82.62,21.72V35.26h6.66V30.1c0-3.41,0-5.29,0-5.54a3.68,3.68,0,0,1,.51-1.43,2.25,2.25,0,0,1,4.08,1.12c0,.2,0,2.25,0,5.66v5.35h6.66V29c0-5.26,0-6.34-.07-6.86a7.2,7.2,0,0,0-1.93-4.4,5.87,5.87,0,0,0-3.49-1.67,10.87,10.87,0,0,0-2.43.08,5.85,5.85,0,0,0-3,1.62l-.47.47V8.17H82.62ZM153.45,8.38c-.18.41-6.95,16.79-6.95,16.82s1.78,0,3.94,0l3.95,0,3.51-8.47,3.52-8.51s-1.77,0-3.94,0h-3.94ZM68,16.07a8.63,8.63,0,0,0-3.7,1.37,9.92,9.92,0,0,0-4.2,6.88,12,12,0,0,0,.22,4.31,9.19,9.19,0,0,0,5.87,6.68,6.58,6.58,0,0,0,2.71.41,7,7,0,0,0,1.54-.09A5.88,5.88,0,0,0,73.6,34l.42-.42v1.68h6.43V16.48H74v1.73l-.3-.32A6.26,6.26,0,0,0,70.6,16.2a5.75,5.75,0,0,0-1.48-.13C68.59,16.06,68.09,16.06,68,16.07Zm42.54.06a10.29,10.29,0,0,0-5,2.13,9.93,9.93,0,0,0-3.43,9.18,9.61,9.61,0,0,0,7.24,8,10.43,10.43,0,0,0,2.7.31,10,10,0,0,0,4.73-1.06A9.55,9.55,0,0,0,122,27.36a13.14,13.14,0,0,0,0-2.94,10.06,10.06,0,0,0-1.75-4.37,12,12,0,0,0-1.78-1.86,10.16,10.16,0,0,0-5-2.07A15.09,15.09,0,0,0,110.55,16.13Zm21.2,0a10.24,10.24,0,0,0-4.93,2.06A13.05,13.05,0,0,0,125,20.05a9.92,9.92,0,0,0-1.74,4.37,12.57,12.57,0,0,0,0,2.94,9.64,9.64,0,0,0,7.77,8.19,9.87,9.87,0,0,0,2.19.19,10.13,10.13,0,0,0,4.82-1.11,9.77,9.77,0,0,0,5-10.81,9.64,9.64,0,0,0-8.44-7.7A14.79,14.79,0,0,0,131.75,16.13Zm-93.17.38,4,9.44c2.2,5.19,4,9.45,4,9.48s-.64,1.57-1.43,3.42l-1.43,3.4h7.07l5.32-12.82c2.93-7,5.33-12.85,5.33-12.88a26.34,26.34,0,0,0-3.5-.05H54.41L52.25,22c-1.18,3-2.16,5.45-2.17,5.44s-1-2.47-2.16-5.47L45.8,16.5H42.19C40.21,16.48,38.58,16.49,38.58,16.51Zm32.69,5.67A3.75,3.75,0,0,1,74,24.91a4.67,4.67,0,0,1,0,2,3.81,3.81,0,0,1-2.73,2.74,4.72,4.72,0,0,1-2,0,3.91,3.91,0,0,1-2.6-2.24,4,4,0,0,1,.36-3.64A3.88,3.88,0,0,1,71.27,22.18Zm41.48,0A3.67,3.67,0,0,1,115.68,25a4.91,4.91,0,0,1,0,1.87A3.71,3.71,0,0,1,113,29.55a5.49,5.49,0,0,1-2,0,3.66,3.66,0,0,1-2.37-2,3.39,3.39,0,0,1-.35-1.67,3.38,3.38,0,0,1,.28-1.5A3.71,3.71,0,0,1,110,22.73,4,4,0,0,1,112.75,22.2Zm21.2,0a3.61,3.61,0,0,1,2.73,2.19,3.38,3.38,0,0,1,.28,1.5,3.28,3.28,0,0,1-.36,1.67,3.65,3.65,0,0,1-2.36,2,5.49,5.49,0,0,1-2,0,3.71,3.71,0,0,1-2.62-2.67,4.67,4.67,0,0,1,0-2,3.68,3.68,0,0,1,3.58-2.78A4.51,4.51,0,0,1,134,22.2Zm14.12,4.64a4.52,4.52,0,0,0-3.88,3.51,5.49,5.49,0,0,0,0,2,4.26,4.26,0,0,0,3.3,3.19,4.81,4.81,0,0,0,.91.08,4.44,4.44,0,0,0,4.44-4.46,4.18,4.18,0,0,0-2-3.69A4.6,4.6,0,0,0,148.07,26.84ZM93.18,37A2.17,2.17,0,0,0,92,40.2a2.55,2.55,0,0,0,1,.87,1.48,1.48,0,0,0,.91.16,1.46,1.46,0,0,0,.9-.16,2.47,2.47,0,0,0,1.07-1,2.13,2.13,0,0,0-1.06-2.86,1.52,1.52,0,0,0-.84-.19A1.78,1.78,0,0,0,93.18,37Zm-5.56.1a4.19,4.19,0,0,0-3.41,3.3,5.4,5.4,0,0,0-.13,1.09l0,.69H82.62v3.16h1.43v7.49h3.86V45.4h2.63V43.8l0-1.58H87.92l0-.36a1.39,1.39,0,0,1,1-1.39,2.57,2.57,0,0,1,1.45.05l.3.1s0-.72,0-1.61V37.39l-.28-.1a4.39,4.39,0,0,0-1.69-.24A7.84,7.84,0,0,0,87.62,37.14ZM103.43,42a3.16,3.16,0,0,0-1.91,1.14l-.21.29V42.22H97.39V52.89h3.92V50c0-1.68,0-3,0-3.2a1.89,1.89,0,0,1,.51-1,1.34,1.34,0,0,1,1.83.2c.29.43.29.37.31,3.79l0,3.13h3.9V49.38c0-3.71,0-4.14-.22-4.84a3.41,3.41,0,0,0-.94-1.6,3,3,0,0,0-1.45-.87A5.19,5.19,0,0,0,103.43,42Zm9.87,0a5.47,5.47,0,0,0-2.06.82,5.68,5.68,0,0,0-2.2,3.61,8.47,8.47,0,0,0,0,2.36,6.11,6.11,0,0,0,1.09,2.53A4.79,4.79,0,0,0,113,53.09a5.77,5.77,0,0,0,2.16-.05,3.74,3.74,0,0,0,1.52-.86l.39-.37v1.08h3.86V42.22h-3.86v1.1l-.26-.27a3.58,3.58,0,0,0-2.05-1A5.83,5.83,0,0,0,113.3,42Zm15.17,0a3.47,3.47,0,0,0-1.89,1.17l-.17.22V42.21l-2,0h-2v5.32l0,5.33h4v-3c0-3.21,0-3.27.23-3.71a1.2,1.2,0,0,1,1.1-.65,1.1,1.1,0,0,1,.9.34c.42.41.4.26.42,3.87v3.18H133V49c0-3.83,0-3.88-.13-4.28a5.25,5.25,0,0,0-.35-.91,2.58,2.58,0,0,0-.61-.87,3.13,3.13,0,0,0-1.2-.79A4.5,4.5,0,0,0,128.47,42Zm10.3,0a5.5,5.5,0,0,0-4,2.61,5.94,5.94,0,0,0-.6,1.5,4.4,4.4,0,0,0-.13,1.42,5,5,0,0,0,.27,2,5.28,5.28,0,0,0,4,3.55,5.84,5.84,0,0,0,1.33.09,4.64,4.64,0,0,0,2.17-.38l.38-.15,0-1.8V49l-.33.19a2.84,2.84,0,0,1-1.46.42,2.38,2.38,0,0,1-1.39-.26,2.06,2.06,0,0,1-.94-1,1.46,1.46,0,0,1-.15-.84,1.79,1.79,0,0,1,.11-.78,2.21,2.21,0,0,1,2.08-1.33,3.4,3.4,0,0,1,2,.56s0-.79,0-1.77V42.47l-.31-.13A6.47,6.47,0,0,0,138.77,42Zm8.89,0a5.88,5.88,0,0,0-3.74,8.9,5.2,5.2,0,0,0,3.35,2.16,10.41,10.41,0,0,0,3,0A5.58,5.58,0,0,0,153,51.61a4.67,4.67,0,0,0,.8-1.06l-1.67-.65-1.64-.63-.24.24a1.78,1.78,0,0,1-.91.55,1.94,1.94,0,0,1-2.49-1.3l0-.22h7.35v-.9a5.75,5.75,0,0,0-.09-1.3,5.41,5.41,0,0,0-1.5-2.87A5.13,5.13,0,0,0,149.9,42,8.39,8.39,0,0,0,147.66,42ZM91.89,47.55v5.34H95.8V42.22H91.89ZM149.23,45a1.36,1.36,0,0,1,.68.39,1.4,1.4,0,0,1,.45.75l0,.2h-1.78c-2,0-1.85,0-1.68-.42A1.86,1.86,0,0,1,149.23,45Zm-33.66.53a2.25,2.25,0,0,1,1.35,1.11,2.13,2.13,0,0,1-1.21,2.94,2.63,2.63,0,0,1-1.42,0,2.17,2.17,0,0,1-1.4-1.4,1.82,1.82,0,0,1-.08-.76,1.46,1.46,0,0,1,.19-.78A2.2,2.2,0,0,1,115.57,45.51Z"/></svg>