<svg id="Layer_1" data-name="Layer 1" xmlns="http://www.w3.org/2000/svg" viewBox="0 0 148.95 34.34"><defs><style>.cls-1{fill:#d0d0d0;}</style></defs><title>Artboard 4</title><polygon class="cls-1" points="0.4 6.27 0.4 26.64 7.65 26.64 7.65 17.24 17.36 26.78 24.09 26.78 24.09 6.27 17.06 6.27 17.06 15.9 7.36 6.27 0.4 6.27"/><path class="cls-1" d="M44,26.78h7.93L42.38,6.3H34.61l-9.7,20.41h7.92l1-2.27H43Zm-7.67-8.41,2-4.84,2.06,4.84Z"/><path class="cls-1" d="M115.92,26.78h7.92L114.3,6.3h-7.78l-9.7,20.41h7.92l1-2.27h9.23Zm-7.66-8.41,2-4.84,2,4.84Z"/><path class="cls-1" d="M72.75,6.05v6H58.23v1.26H70a4,4,0,0,1,4.22,4.22v5.34s.38,3.84-5.25,3.84H52.69V20.54h14.8V19.38H56.09A4.32,4.32,0,0,1,51.78,15c0-.11,0-.21,0-.32V10s-.38-3.93,5.11-3.93Z"/><path class="cls-1" d="M91.85,6.05H75.41V26.54H92.22S98,26.92,98,21.29V11.9A5.65,5.65,0,0,0,92.57,6,5.77,5.77,0,0,0,91.85,6.05Zm-1.56,14H83.11v-7h7.18Z"/><path class="cls-1" d="M138.36,6H128.31s-5.47-.26-5.47,6v9.68s0,5.12,6,5.12h8.49v7.13h7V26.73h-3.63A4.54,4.54,0,0,0,145,22.11V11.26S145.66,6,138.36,6Zm-8.07,6.78h7.17v7.26h-7.17Z"/><path class="cls-1" d="M146.05,2.94h.59L147.18,4h.43l-.56-1.16a.89.89,0,0,0,.43-.22.72.72,0,0,0,.16-.44.61.61,0,0,0-.26-.54,1.71,1.71,0,0,0-.74-.17h-1V4h.38Zm0-1.16h.59a.74.74,0,0,1,.44.11.36.36,0,0,1,.17.36.37.37,0,0,1-.16.33.87.87,0,0,1-.45.09h-.59Z"/><path class="cls-1" d="M145.1,4.32a2.07,2.07,0,0,0,.72.48,1.89,1.89,0,0,0,.82.18h.11a2,2,0,0,0,.72-.17,2.3,2.3,0,0,0,.74-.48,2.29,2.29,0,0,0,.63-1.54,2.11,2.11,0,0,0-.17-.82,2,2,0,0,0-.46-.71,2.31,2.31,0,0,0-1.46-.64h-.11a2.2,2.2,0,0,0-1.54.63,2.45,2.45,0,0,0-.49.74,2,2,0,0,0-.15.81,2.06,2.06,0,0,0,.15.82A2.45,2.45,0,0,0,145.1,4.32ZM144.85,2a2.48,2.48,0,0,1,.43-.64,2,2,0,0,1,.63-.41,1.87,1.87,0,0,1,.73-.15h.12a2.45,2.45,0,0,1,.65.15,2,2,0,0,1,.63.42,2,2,0,0,1,.42.63,2.07,2.07,0,0,1,0,1.51,1.63,1.63,0,0,1-.42.61,2,2,0,0,1-1.28.57h-.12a1.71,1.71,0,0,1-.74-.14,2,2,0,0,1-.6-.43,1.59,1.59,0,0,1-.42-.63,1.88,1.88,0,0,1-.15-.74A1.94,1.94,0,0,1,144.85,2Z"/></svg>