<svg id="katman_1" data-name="katman 1" xmlns="http://www.w3.org/2000/svg" viewBox="0 0 100 24.98"><defs><style>.cls-1{fill:#d0d0d0;}</style></defs><title>Artboard 2</title><path class="cls-1" d="M4.88.28A4.69,4.69,0,0,1,8.62,2,13.48,13.48,0,0,1,9.91,4.57L15,18c.66,1.62,2.61,1.74,3.18.12l1.56-4.23,2.67,7.05a6.46,6.46,0,0,1-4.05,3.51A6.67,6.67,0,0,1,13,23.83a6.5,6.5,0,0,1-2.67-3.3L5,5.68V19.21l2-5.7,2.55,7.14a5.35,5.35,0,0,1-2.93,3.63,4.93,4.93,0,0,1-4.65-.39C.59,22.9.2,21.7.14,19.6L.17,5A4.94,4.94,0,0,1,3.26.64,3.06,3.06,0,0,1,4.88.28ZM28.12,24.64A4.77,4.77,0,0,1,24.37,23a13.48,13.48,0,0,1-1.29-2.58L18,7c-.66-1.62-2.61-1.74-3.18-.12L13.3,11.11l-2.67-7a6.31,6.31,0,0,1,4-3.48A6.67,6.67,0,0,1,20,1.15a6.65,6.65,0,0,1,2.67,3.3L28,19.3V5.77l-2,5.7L23.44,4.33A5.34,5.34,0,0,1,26.38.7,4.93,4.93,0,0,1,31,1.09c1.35,1,1.74,2.19,1.8,4.29L32.8,20a4.94,4.94,0,0,1-3.09,4.35A3.43,3.43,0,0,1,28.12,24.64Z"/><path class="cls-1" d="M95.18,9.4a5,5,0,0,0-5-4.17c-3.06,0-5.52,2.1-5.52,7.11,0,3.9,1.71,7.32,5.46,7.32a5,5,0,0,0,4.91-3.81L99.8,18a10.29,10.29,0,0,1-10.43,6.54c-6.54-.3-10.2-4.92-10.2-12C79.17,4.39,84,.73,89.64.52s9.14,3,10.22,6.63c-.06,0-4.62,2.16-4.68,2.25ZM58.71,24.28H52.92l-1.65-5.13H43.84l-1.65,5.13H36.43L44.29.7h6.53Zm10.71,0H59.94V.7H69.6c5,0,7.74,1.8,7.74,5.94,0,2.4-1,4.35-2.85,5.19,2.13.72,3.51,2.49,3.51,5.46C78,21.76,75,24.28,69.42,24.28Zm0-9.84h-3.9v5.07h4c1.83,0,2.94-.81,3-2.49s-1.17-2.58-3-2.58ZM47.71,8.17h-.33l-2,6.21h4.44ZM69.45,5.26h-4V9.61h3.87A2.16,2.16,0,0,0,71.82,7.3C71.82,5.92,71,5.26,69.45,5.26Z"/></svg>